<svg id="Layer_1" data-name="Layer 1" xmlns="http://www.w3.org/2000/svg" viewBox="0 0 200 200"><defs><style>.cls-1{fill:#231f20;}</style></defs><title>tik</title><path class="cls-1" d="M166.9357,200H33.0653A33.1025,33.1025,0,0,1,0,166.9357V33.0653A33.1027,33.1027,0,0,1,33.0653,0h133.87A33.1025,33.1025,0,0,1,200,33.0653v133.87A33.1023,33.1023,0,0,1,166.9357,200ZM33.0653,16.8415A16.242,16.242,0,0,0,16.8415,33.0653v133.87a16.2417,16.2417,0,0,0,16.2238,16.2228h133.87a16.2415,16.2415,0,0,0,16.2228-16.2228V33.0653a16.2417,16.2417,0,0,0-16.2228-16.2238Z"/><path class="cls-1" d="M83.4823,162.438a16.803,16.803,0,0,1-12.1637-5.1956L35.1132,119.4988a11.2369,11.2369,0,0,1,16.2186-15.5574L82.7791,136.726,147.5133,42.44A11.2367,11.2367,0,0,1,166.04,55.16L97.4166,155.1107a16.8119,16.8119,0,0,1-12.54,7.271Q84.1773,162.4375,83.4823,162.438Z"/></svg>