<svg id="Layer_1" data-name="Layer 1" xmlns="http://www.w3.org/2000/svg" viewBox="0 0 860.2837 865.2"><title>Creat Account</title><path d="M860.2632,215.1065c-.0322,12.83-7.0636,27.2131-19.0844,39.24Q680.8141,414.7908,520.0636,574.8469c-9.0388,8.96-21.4978,15.7789-33.6162,20.0563-26.7909,9.4564-54.3587,16.723-81.6484,24.751-11.8919,3.4983-18.76-2.725-15.3341-14.5,8.5731-29.47,16.8558-59.0745,27.021-88.0048,3.7744-10.7419,11.0352-21.1825,19.1425-29.3392q158.72-159.6872,318.2452-318.5734c28.9966-28.9391,70.3716-26.8575,94.5927,4.23C856,183.1365,860.6317,197.6031,860.2632,215.1065Z"/><path d="M649.43,206.77V60.92A60.982,60.982,0,0,0,588.52,0H60.91A60.9823,60.9823,0,0,0,0,60.92V804.29A60.974,60.974,0,0,0,60.91,865.2H588.52a60.9737,60.9737,0,0,0,60.91-60.91V516.2l-50,41.75V804.29a10.9173,10.9173,0,0,1-10.91,10.91H60.91A10.9172,10.9172,0,0,1,50,804.29V60.92A10.9255,10.9255,0,0,1,60.91,50H588.52a10.9256,10.9256,0,0,1,10.91,10.92V256.57Z"/><rect x="122.1004" y="126.6766" width="411.0715" height="43.8627" rx="21.9313"/><rect x="122.1004" y="243.3356" width="411.0715" height="43.8627" rx="21.9313"/><path d="M495.59,359.99l-44.04,43.87H144.03a21.9351,21.9351,0,0,1,0-43.87Z"/><path d="M385.24,476.65a390.8737,390.8737,0,0,0-27.72,43.87H144.03a21.9351,21.9351,0,0,1,0-43.87Z"/><path d="M144.03,593.31H328.74a254.7188,254.7188,0,0,0-7.1,43.87H144.03a21.9351,21.9351,0,1,1,0-43.87Z"/></svg>