<?xml version="1.0" encoding="utf-8"?>
<!-- Generator: Adobe Illustrator 24.0.2, SVG Export Plug-In . SVG Version: 6.00 Build 0)  -->
<svg version="1.1" id="Layer_1" xmlns="http://www.w3.org/2000/svg" xmlns:xlink="http://www.w3.org/1999/xlink" x="0px" y="0px"
	 viewBox="0 0 251.4 251.4" style="enable-background:new 0 0 251.4 251.4;" xml:space="preserve">
<style type="text/css">
	.st0{fill:#2D2B7F;}
</style>
<title>+</title>
<path class="st0" d="M242.5,116.7H134.7V9c0-5-4-9-9-9l0,0c-5,0-9,4-9,9v107.8H9c-5,0-9,4-9,9l0,0c0,5,4,9,9,9h107.8v107.8
	c0,5,4,9,9,9l0,0c5,0,9-4,9-9V134.7h107.8c5,0,9-4,9-9l0,0C251.4,120.8,247.4,116.7,242.5,116.7z"/>
</svg>
