<svg id="Layer_1" data-name="Layer 1" xmlns="http://www.w3.org/2000/svg" viewBox="0 0 300 200"><title>Guest</title><path d="M198.84,123.36a8.54,8.54,0,0,1-13.49,0l-4.8-6.18c-4.91,1.64-8.1,4.21-8.1,6.67,0,4,8.4,8.42,19.64,8.42s19.65-4.44,19.65-8.42c0-2.46-3.2-5-8.1-6.67Z" fill="#000"/><path d="M161,82.94l28.76,37a3.06,3.06,0,0,0,4.63,0l28.76-37A39,39,0,0,0,192.4,20h-.61A39,39,0,0,0,161,82.94ZM183.68,98.6h-5.62V93h5.62Zm11.22,0h-5.61V93h5.61Zm11.23,0h-5.62V93h5.62ZM185.38,27.74a11.93,11.93,0,0,1,13.43,0L222.6,44.33a8.45,8.45,0,0,1,3.14,5.91,8.29,8.29,0,0,1-2,6.13,8.42,8.42,0,0,1-6.39,2.81v.13h-.51l-5.72,28.06H173.07l-5.72-28.06h-.51a8.42,8.42,0,0,1-5.48-14.82Z" fill="#000"/><path d="M131.14,103.38a2.82,2.82,0,0,0,4.82-2.19,2.72,2.72,0,0,0-1-1.91L111.41,82.86a6.13,6.13,0,0,0-7,0L80.6,99.44a2.82,2.82,0,0,0-.75,1.75,2.76,2.76,0,0,0,.67,2,2.87,2.87,0,0,0,4,.31l23.44-16.81Z" fill="#000"/><path d="M105.1,121.05h5.61v11.22H105.1Z" fill="#000"/><path d="M93.14,104.21h29.54L107.91,93.63Z" fill="#000"/><path d="M168.66,53l23.43-16.82,23.24,16.66a2.82,2.82,0,1,0,3.85-4.11L195.6,32.35a6.13,6.13,0,0,0-7,0l-23.8,16.58a2.88,2.88,0,0,0-.09,3.79,2.9,2.9,0,0,0,4,.31Z" fill="#000"/><path d="M177.65,81.76h6V64.92h16.83V81.76h6l4.57-22.45h-38Z" fill="#000"/><path d="M177.33,53.7h29.53L192.09,43.12Z" fill="#000"/><path d="M189.29,70.53h5.61V81.76h-5.61Z" fill="#000"/><path d="M110.22,170.43l28.76-37a39,39,0,0,0-30.77-62.92h-.61a39,39,0,0,0-30.77,62.92l28.76,37a3,3,0,0,0,4.63,0Zm11.72-21.32h-5.62V143.5h5.62ZM83.16,109.82h-.51a8.43,8.43,0,0,1-6.4-2.94A8.44,8.44,0,0,1,77.17,95l24-16.76a12,12,0,0,1,13.43,0l23.8,16.59a8.49,8.49,0,0,1,3.14,5.92,8.22,8.22,0,0,1-8.4,8.93v.13h-.51l-5.72,28.06H88.88Zm16.33,39.29H93.87V143.5h5.62Zm5.61-5.61h5.61v5.61H105.1Z" fill="#000"/><path d="M119.46,167.69l-4.81,6.18a8.54,8.54,0,0,1-13.49,0l-4.8-6.18c-4.9,1.64-8.1,4.22-8.1,6.68,0,4,8.4,8.42,19.65,8.42s19.64-4.45,19.64-8.42C127.55,171.91,124.36,169.33,119.46,167.69Z" fill="#000"/><path d="M158.42,149.11V88.74l-1.83-2.36A44.8,44.8,0,0,1,147.19,59a44.23,44.23,0,0,1,5.62-21.6V17.21H141.58V36.86H65.81V48.08h75.77V80a44.34,44.34,0,0,1,5.61,51.1V166H128.3c3.1,2.34,4.86,5.23,4.86,8.42a8.57,8.57,0,0,1-.47,2.8H164V160.33h70.16V149.11Z" fill="#000"/><path d="M93.46,132.27h6V115.43h16.83v16.84h6l4.57-22.45h-38Z" fill="#000"/></svg>