<svg id="Layer_1" data-name="Layer 1" xmlns="http://www.w3.org/2000/svg" viewBox="0 0 300 200"><title>Guest</title><path d="M220.76,41.68H136V38.74a17,17,0,0,0-17-17H79.24a17,17,0,0,0-17,17V159.1a17,17,0,0,0,17,17H220.76a17,17,0,0,0,17-17V58.64A17,17,0,0,0,220.76,41.68Zm3.15,118.24a4.42,4.42,0,0,1-4.42,4.42h-139a4.42,4.42,0,0,1-4.42-4.42V57.82a4.42,4.42,0,0,1,4.42-4.43h139a4.42,4.42,0,0,1,4.42,4.43Z" fill="#000"/><path d="M177.31,98.18a1.32,1.32,0,0,0-1.21-.81H161.78V72.71a4.41,4.41,0,0,0-4.4-4.41H142.67a4.41,4.41,0,0,0-4.4,4.41V97.37H123.9A1.31,1.31,0,0,0,123,99.6L149,125.75a1.3,1.3,0,0,0,.92.38,1.34,1.34,0,0,0,.93-.38L177,99.6A1.29,1.29,0,0,0,177.31,98.18Z" fill="#000"/><path d="M171.27,149.91H128.73a19.62,19.62,0,0,1-19.59-19.6v-9h10.2v9a9.41,9.41,0,0,0,9.39,9.4h42.54a9.41,9.41,0,0,0,9.39-9.4v-9h10.2v9A19.62,19.62,0,0,1,171.27,149.91Z" fill="#000"/></svg>