<svg id="Layer_1" data-name="Layer 1" xmlns="http://www.w3.org/2000/svg" viewBox="0 0 300 200"><title>Guest</title><path d="M149.22,137.43a45.85,45.85,0,0,0,10.65,29.45c-7.49.49-15.19.74-23.06.74-26.38,0-51-2.85-71.76-7.76,1.06-11,6.28-36.17,27.59-44.13C111.22,109.66,119,104,119,104l.62.59c5.52,5.19,11.63,8.24,17.19,8.24h.52c5.56,0,11.67-3,17.18-8.24l.63-.59a47.86,47.86,0,0,0,5.45,3.21A45.81,45.81,0,0,0,149.22,137.43Z" fill="#000"/><path d="M165.83,62.52l-.23-.25a18.82,18.82,0,0,1-1.42-1.33s2.77-13.55,1-20.09c-1.32-4.86-2.65-6.37-6.48-8.41-3.4-4.12-13.67-9.58-22.28-9.58-3.93,0-10.11.85-13.6,2.73h0A26.13,26.13,0,0,0,108.9,40.93c-2.16,6.43.53,20,.53,20A18.82,18.82,0,0,1,108,62.27l-.23.25c-1,1.19-.79,4.9.35,8.76s2.39,4.91,2.71,5.81c3.27,15.38,14.66,28.5,26.26,28.5s22.39-13.12,25.67-28.5c.32-.9,1.67-1.94,2.7-5.81S166.9,63.45,165.83,62.52Z" fill="#000"/><path d="M193.35,137.3a8.31,8.31,0,1,1-8.3-8.3A8.31,8.31,0,0,1,193.35,137.3Z" fill="#000"/><path d="M195.24,97.72A39.71,39.71,0,1,0,235,137.43,39.71,39.71,0,0,0,195.24,97.72Zm25.16,43.66h-4v7.91a3.59,3.59,0,1,1-7.18,0v-7.91h-9.52a3.31,3.31,0,0,1-.55,0,14.65,14.65,0,1,1,.24-7.11l.31,0H220.4a3.59,3.59,0,0,1,0,7.18Z" fill="#000"/></svg>