<svg id="Layer_1" data-name="Layer 1" xmlns="http://www.w3.org/2000/svg" viewBox="0 0 300 200"><title>Guest</title><path d="M232.6,56.75H89.84A10.29,10.29,0,0,0,79.55,67V178.82a10.29,10.29,0,0,0,10.29,10.29H232.6a10.3,10.3,0,0,0,10.29-10.29V67A10.3,10.3,0,0,0,232.6,56.75Zm.1,122.07a.1.1,0,0,1-.1.1H89.84a.1.1,0,0,1-.11-.1V67a.1.1,0,0,1,.11-.1H232.6a.1.1,0,0,1,.1.1Z" fill="#000"/><path d="M210.16,34.7H67.4A10.31,10.31,0,0,0,57.11,45V156.78A10.31,10.31,0,0,0,67.4,167.07H89.73V156.88H67.4a.11.11,0,0,1-.1-.1V45a.11.11,0,0,1,.1-.1H210.16a.11.11,0,0,1,.11.1V66.94h10.18V45A10.3,10.3,0,0,0,210.16,34.7Z" fill="#000"/><polygon points="222.8 169 222.8 150.71 184.55 102.79 151.13 143.14 131.16 122.97 99.63 169 222.8 169" fill="#000"/><circle cx="123.17" cy="91.78" r="13.67" fill="#000"/></svg>