<svg xmlns="http://www.w3.org/2000/svg" viewBox="0 0 276 164"><title>Splash</title><g id="Atlas_Meraj" data-name="Atlas Meraj"><polygon points="114.01 107.03 102.7 107.56 102.7 20.95 113.87 20.95 114.01 107.03" fill="#00b1eb"/><polygon points="114.01 107.03 102.7 107.56 102.7 20.95 113.87 20.95 114.01 107.03" fill="none"/><path d="M232.51,74.9v9.47c-2.91.63-5.56.13-8.85.38,0-3-.5-7.2,3.17-8.83a52.67,52.67,0,0,1,5.68-1M125.34,98.13l.19-19.32H136v14.9l50.51.12c1.14-2.26-.54-8.29-3.74-9.85h-14V74.39s20.6-.63,30,0a7.5,7.5,0,0,1,6,4,17.75,17.75,0,0,1,.37,11.35c-1.17,4.24-2.57,7.06-6.06,9.47.51,2.29,2.32,3.22,4.55,3.92a8.23,8.23,0,0,0,6.78-1.19c3.42-2.28,3-6.08,3.07-9.67.13-5.93-.75-12.25,1.89-17.3.73-1.39,1.35-2.28,1.89-3.15,5.95-6.83,14.5-7.08,23.33-6.83a1,1,0,0,1,.93,1.19V92.45a1.23,1.23,0,0,1-1.14,1.17H222.65a24.57,24.57,0,0,1-4.28,13.22c-3.17,3.55-7.6,4.69-12.38,4.92-12.42.65-15.55-8.58-15.55-8.58s-32.67.22-52.45.22a3.13,3.13,0,0,1-2.77-1.18C135,117,122,128.58,103.74,133.91V123.05c12.85-4.81,21.64-14.09,21.64-24.3,0-.22,0-.62,0-.62m71.1-13.58a11,11,0,0,1-1.25,6.28,35.06,35.06,0,0,0-3-9.46c2.38-1.18,3.91,1.71,4.21,3.18" fill="#00b1eb" fill-rule="evenodd"/><path d="M232.51,74.9v9.47c-2.91.63-5.56.13-8.85.38,0-3-.5-7.2,3.17-8.83A52.67,52.67,0,0,1,232.51,74.9Z" fill="none"/><path d="M125.34,98.13l.19-19.32H136v14.9l50.51.12c1.14-2.26-.54-8.29-3.74-9.85h-14V74.39s20.6-.63,30,0a7.5,7.5,0,0,1,6,4,17.75,17.75,0,0,1,.37,11.35c-1.17,4.24-2.57,7.06-6.06,9.47.51,2.29,2.32,3.22,4.55,3.92a8.23,8.23,0,0,0,6.78-1.19c3.42-2.28,3-6.08,3.07-9.67.13-5.93-.75-12.25,1.89-17.3.73-1.39,1.35-2.28,1.89-3.15,5.95-6.83,14.5-7.08,23.33-6.83a1,1,0,0,1,.93,1.19V92.45a1.23,1.23,0,0,1-1.14,1.17H222.65a24.57,24.57,0,0,1-4.28,13.22c-3.17,3.55-7.6,4.69-12.38,4.92-12.42.65-15.55-8.58-15.55-8.58s-32.67.22-52.45.22a3.13,3.13,0,0,1-2.77-1.18C135,117,122,128.58,103.74,133.91V123.05c12.85-4.81,21.64-14.09,21.64-24.3C125.38,98.53,125.34,98.13,125.34,98.13Z" fill="none"/><path d="M144.08,56.45l-5-11.92-4.95,11.92Zm-18.71,11.1v-.78a3.4,3.4,0,0,0,2.5-1.26,33,33,0,0,0,2.87-5.85l9-21.25h.84L151.4,63a11.23,11.23,0,0,0,1.72,3,4,4,0,0,0,2.2.78v.78h-11v-.78a9.45,9.45,0,0,0,2.45-.39c.37-.17.55-.56.56-1.21a5.53,5.53,0,0,0-.22-1.11,14.28,14.28,0,0,0-.58-1.7l-1.82-4.17H133.35c-1.14,2.84-1.81,4.57-2,5.21a5.35,5.35,0,0,0-.32,1.48,1.52,1.52,0,0,0,.91,1.52,6.77,6.77,0,0,0,2,.37v.78Z" fill="#2d2b7f" fill-rule="evenodd"/><path d="M167,48.08v1.51h-4.32l0,12.18a8,8,0,0,0,.27,2.44,2,2,0,0,0,2,1.45,2.39,2.39,0,0,0,1.32-.35,6,6,0,0,0,1.29-1.15l.55.47-.47.63a7.15,7.15,0,0,1-2.32,2.11,5.56,5.56,0,0,1-2.38.59,3.34,3.34,0,0,1-3.38-2.21,9.34,9.34,0,0,1-.48-3.34V49.59h-2.3a.53.53,0,0,1-.19-.13.24.24,0,0,1,0-.16.51.51,0,0,1,.09-.32,5.85,5.85,0,0,1,.61-.56,15.19,15.19,0,0,0,2.09-1.93c.44-.52,1.46-1.84,3.06-4a.83.83,0,0,1,.31,0c.05,0,.06.14.06.33v5.21Z" fill="#2d2b7f"/><path d="M168.94,67a5,5,0,0,0,2.66-.78,3,3,0,0,0,.71-2.37V43.17a5.71,5.71,0,0,0-.23-1.92,1.7,1.7,0,0,0-1.72-.89,5.13,5.13,0,0,0-.65,0l-.88.19v-.69c1.9-.52,4.19-1.18,6.88-2,.11,0,.16.05.17.12a2.78,2.78,0,0,1,.05.56V63.91a3.27,3.27,0,0,0,.63,2.4,5.09,5.09,0,0,0,2.62.66v.58H168.94Z" fill="#2d2b7f"/><path d="M192.5,55.86a18.56,18.56,0,0,0-4,1.77c-2,1.25-3.05,2.68-3.05,4.27a3.31,3.31,0,0,0,1.25,2.84,3.21,3.21,0,0,0,1.86.59,4.88,4.88,0,0,0,2.67-.79,2.26,2.26,0,0,0,1.28-2Zm-7.75,2.38a44.84,44.84,0,0,1,7.75-3.44V53a7.63,7.63,0,0,0-.4-3c-.5-1-1.49-1.43-3-1.43a4,4,0,0,0-2,.57,1.73,1.73,0,0,0-1,1.56,7.74,7.74,0,0,0,.1.86,6,6,0,0,1,.11.77,1.74,1.74,0,0,1-.78,1.64,2,2,0,0,1-1.06.28,1.77,1.77,0,0,1-1.46-.62,2.15,2.15,0,0,1-.5-1.4,4.37,4.37,0,0,1,1.81-3.08,7.83,7.83,0,0,1,5.36-1.64c2.75,0,4.6.9,5.56,2.67a9,9,0,0,1,.79,4.25v8.48a5.64,5.64,0,0,0,.17,1.69,1.1,1.1,0,0,0,1.15.83,1.9,1.9,0,0,0,.8-.15,7,7,0,0,0,1.1-.72v1.1A6.35,6.35,0,0,1,197.77,67a4.21,4.21,0,0,1-2.4.82,2.43,2.43,0,0,1-2.11-.93,4.39,4.39,0,0,1-.71-2.22,19.82,19.82,0,0,1-2.73,2.06,7.12,7.12,0,0,1-3.67,1.13A4.45,4.45,0,0,1,183,66.61a4.37,4.37,0,0,1-1.33-3.24,6.05,6.05,0,0,1,3.08-5.13" fill="#2d2b7f" fill-rule="evenodd"/><path d="M201.55,60.91h.7a10.93,10.93,0,0,0,1.32,3.69A4.77,4.77,0,0,0,207.9,67a3.56,3.56,0,0,0,2.5-.86,3,3,0,0,0,.94-2.29,3.07,3.07,0,0,0-.54-1.7,5.35,5.35,0,0,0-1.86-1.61l-2.36-1.36a13.72,13.72,0,0,1-3.85-2.81,5.3,5.3,0,0,1,.47-7.24,6.15,6.15,0,0,1,4.24-1.5,8.07,8.07,0,0,1,2.48.41,10.86,10.86,0,0,0,1.51.41,1.34,1.34,0,0,0,.55-.09,1.26,1.26,0,0,0,.3-.34h.51l.15,5.89h-.66a9.84,9.84,0,0,0-1.14-3.18,4.2,4.2,0,0,0-3.79-2.13,3,3,0,0,0-2.33.91,3.11,3.11,0,0,0-.85,2.14c0,1.3,1,2.46,2.92,3.47l2.8,1.5c3,1.64,4.51,3.53,4.51,5.7a5.06,5.06,0,0,1-1.89,4.09A7.28,7.28,0,0,1,207.63,68a10.93,10.93,0,0,1-2.87-.42,15,15,0,0,0-1.91-.42.61.61,0,0,0-.44.19,1,1,0,0,0-.3.42h-.56Z" fill="#2d2b7f"/><path d="M100.41,134.78a71.08,71.08,0,0,1-16.25,1.86c-13.45,0-25.68-3.73-34.76-9.79l.79.59c-10.87-6.84-19-20.89-14.59-35,5.55-18,28.67-25.5,28.67-25.5l-16.56.38.1,6.07c-3,.12-9.9,0-9.9,0V57.76s2.91-.15,4.63-.08l44.58-.2V69a137.39,137.39,0,0,0-18.2,5C58.57,78.25,44.43,85.84,43.82,99c-.53,6.83,2.77,12.49,8.45,17.55a22.39,22.39,0,0,0,5.92,3.92l-.56-.25a55.38,55.38,0,0,0,26.45,6.31,57.12,57.12,0,0,0,16.33-2.33Z" fill="#00b1eb" fill-rule="evenodd"/><path d="M100.41,134.78a71.08,71.08,0,0,1-16.25,1.86c-13.45,0-25.68-3.73-34.76-9.79l.79.59c-10.87-6.84-19-20.89-14.59-35,5.55-18,28.67-25.5,28.67-25.5l-16.56.38.1,6.07c-3,.12-9.9,0-9.9,0V57.76s2.91-.15,4.63-.08l44.58-.2V69a137.39,137.39,0,0,0-18.2,5C58.57,78.25,44.43,85.84,43.82,99c-.53,6.83,2.77,12.49,8.45,17.55a22.39,22.39,0,0,0,5.92,3.92l-.56-.25a55.38,55.38,0,0,0,26.45,6.31,57.12,57.12,0,0,0,16.33-2.33Z" fill="none"/><path d="M63.84,106.06c0,.3,0,.56.11.82a3.15,3.15,0,0,0,.69,1.49,1.94,1.94,0,0,1,.54-1,1.24,1.24,0,0,1,1.43-.14,1.33,1.33,0,0,1,.45,1.57c-.2-.32-.37-.83-.85-.82a.62.62,0,0,0-.47,1.06,2.32,2.32,0,0,0,1.16.26,5.56,5.56,0,0,0,2.11-.19,6.33,6.33,0,0,0,2.35-1.33,6.12,6.12,0,0,0,1.14-1.73h.71a1.23,1.23,0,0,1,0,.25c.25-.06.52-.17.78-.25h3.71a7.35,7.35,0,0,1-.2.71,7,7,0,0,1,2,1.58,8,8,0,0,1,.81,1.16l-.07.17a6.66,6.66,0,0,0-1.36-.57,13.53,13.53,0,0,0-3.39-.53c-2.67,0-5.24.88-7.88,1.16a6.54,6.54,0,0,1-5.32-2,6.19,6.19,0,0,1-1.12-1.7Zm6,0c-.15.22-.28.44-.4.65a7.06,7.06,0,0,0-.35,2.32c-.29-.23-.18-.61-.23-.93a6,6,0,0,1,0-1.4,3.82,3.82,0,0,1-2,.07,3,3,0,0,1-1.22-.71Zm9.21,0a5,5,0,0,1,.22,1.06c-.25-.2-.23-.57-.38-.84,0-.07,0-.15-.08-.21Zm6.17,0a4.72,4.72,0,0,1-2.63,1.67A7.75,7.75,0,0,1,80.44,113a7.58,7.58,0,0,1-6.09,2.36,9.41,9.41,0,0,1-3.84-1.45,5.36,5.36,0,0,0-2.32-1.13,9.94,9.94,0,0,0-1.34.06,2.31,2.31,0,0,1,1.93-1.32,1.87,1.87,0,0,1,.7-1.26c.14.12.12.33.16.52a3.78,3.78,0,0,0,1.42,2.46c.22.19.35-.14.45-.29a.8.8,0,0,0-.19-1c-.26-.27-.66-.14-1-.18a1.3,1.3,0,0,1,2.2.1,1.54,1.54,0,0,1-.52,2,6.43,6.43,0,0,0,6.66-.28.8.8,0,0,0-1-1c-.37.13-.37.58-.47.9-.3,0-.23-.45-.3-.66a1.15,1.15,0,0,1,1.51-1.22,1.62,1.62,0,0,1,1,1.34A6.11,6.11,0,0,0,80.69,111a4.81,4.81,0,0,0-.09-3.52,5.67,5.67,0,0,0-.81-1.44Zm4.13,0a6,6,0,0,1-.79,2.53,6.43,6.43,0,0,1-1.75,1.85,3.8,3.8,0,0,1-1.42.64,11.08,11.08,0,0,1-3.15.12,1,1,0,0,1,.69-.26,7.27,7.27,0,0,0,2.32-.76,2.7,2.7,0,0,1,.21-2.35,13.13,13.13,0,0,1,1.88-1.77Zm-13.85,4.27a.43.43,0,0,0-.29.63c.15.45,1,.28.9-.21a.44.44,0,0,0-.61-.42m-1.82.19c.76-.26,1.28-1,2.11-1.15a2.29,2.29,0,0,1,1.63.49c.52,0,.88-.42,1.35-.57a1.33,1.33,0,0,1-.58.76c-.89.78-2,1.36-2.56,2.49a4.54,4.54,0,0,0-.27,2c-.52-.08-.81-.57-1-1a3,3,0,0,1-.13-1.3A2,2,0,0,1,72.58,110c.37.18.67.66,1.13.5M86.29,108a.6.6,0,0,0-.29.53.64.64,0,0,0,.94.5.59.59,0,0,0,.1-.94.58.58,0,0,0-.75-.09" fill="#00b1eb" fill-rule="evenodd"/><path d="M62.17,96.57a3.27,3.27,0,0,0,.26.53,5,5,0,0,0,2.47,2.14,10.92,10.92,0,0,0,3.76.59A5.13,5.13,0,0,1,72,101.05a2.39,2.39,0,0,1,.82,1.41c-.29-.13-.41-.44-.62-.68A3.51,3.51,0,0,0,70,100.54c-.61-.06-.84.89-.35,1.19s1,0,1.5-.13a1.38,1.38,0,0,1-1,1.12,1.43,1.43,0,0,1-1.82-1.09,2.29,2.29,0,0,1,.25-1.27A3.57,3.57,0,0,0,65.51,102a3.91,3.91,0,0,1,1.32.25,2.13,2.13,0,0,1,1.29,2.11c0,.49-.24,1,.09,1.49s.76.15,1.05-.08.66-.8,1-1.17a7,7,0,0,1,3.18-2.06,11.18,11.18,0,0,0,2-.51,1.48,1.48,0,0,0,.75-1,3.39,3.39,0,0,0-.49-1.35,1.82,1.82,0,0,1,1.61,1.69,2.49,2.49,0,0,1-.79,1.81,4.9,4.9,0,0,1,2.56,2.87h-.24a5,5,0,0,0-2.06-2,3.48,3.48,0,0,0-1.64-.42c-.4,0-.44.6-.18.82s.67.21,1,.27a1.52,1.52,0,0,1-1.2.67,1.19,1.19,0,0,1-1.11-.79,1.82,1.82,0,0,1,.2-1.21,7.42,7.42,0,0,0-4,2.71l-4.26,0a3.08,3.08,0,0,1-.88-1.7,6.31,6.31,0,0,1,.2-2.45,6.42,6.42,0,0,1-1.9-.7A4.74,4.74,0,0,1,60.8,98a7.6,7.6,0,0,1-.12-1.43Zm3.53,0c0,.16,0,.31,0,.47a2.85,2.85,0,0,1-.44-.48Zm4,0a7.72,7.72,0,0,1-1,.59c-1.25.5-2.65.58-3.93,1.08-.18.08-.57.15-.51-.18a11,11,0,0,0,3-1.46Zm3,0A2.85,2.85,0,0,0,73.08,98,3.73,3.73,0,0,0,75,99.7a2.55,2.55,0,0,1-2.56,0,2.65,2.65,0,0,1-1.15-1.19,6,6,0,0,1-2.82.14c-.39-.11-.89-.1-1.12-.48a7.66,7.66,0,0,0,3.53-.1c.21,0,.23-.22.29-.36a2.58,2.58,0,0,1-.61-.75c0-.11,0-.25,0-.39Zm6,0a1.44,1.44,0,0,0,.07.36c.42-.13.87-.38,1.31-.13a.91.91,0,0,1,.46,1.2,1.77,1.77,0,0,1-.69.74,5,5,0,0,0,3.5,1.53,5.7,5.7,0,0,0,4-1.56,5.33,5.33,0,0,0,1.26-2.14h.44a5.8,5.8,0,0,1-1.95,2.82,5.6,5.6,0,0,1-3.79,1.51,6.83,6.83,0,0,1-2.93-.65c-1.15-.45-2.15-1.32-3.42-1.43a14.85,14.85,0,0,0-1.49.06,1.86,1.86,0,0,1,.74-1.24,3,3,0,0,1,2.09-.5c0-.18,0-.37,0-.57Zm5.19,0a4.68,4.68,0,0,0,.52.64c.54.72,1.42,1.16,1.9,1.93-.5-.1-1-.38-1.48-.46a5.12,5.12,0,0,0-3.07.22,7.22,7.22,0,0,1-1,.45c.25-.38.66-.62.85-1.06a1.42,1.42,0,0,0-.28-1.72Zm2.69,0a.81.81,0,0,1-.25.3,1,1,0,0,0-.08-.27Zm-25.39,9.49a6.05,6.05,0,0,1,0-4.67c.15-.27.25-.6.55-.73,0,.37-.24.84.07,1.14.5.5,1.2.82,1.55,1.48a6.13,6.13,0,0,1,.53,2.79Zm11.33,0a5.44,5.44,0,0,0,.44-1.42,2.71,2.71,0,0,1,.22-.75,3.73,3.73,0,0,1,0,2.17Zm1.44,0a4,4,0,0,1,.48-.09,18.06,18.06,0,0,0,2-.19,7.9,7.9,0,0,0,1.34-.56,3.41,3.41,0,0,1-.07.85Zm5.85,0c-.15-.23-.31-.45-.47-.67a4.36,4.36,0,0,1-.57-3.18,5.13,5.13,0,0,1,.67-1.6.58.58,0,0,1,.36-.31,12.28,12.28,0,0,0-.58,1.9c0,.43-.1,1,.29,1.32a.66.66,0,0,0,.69-.08c.28-.19.25-.58.22-.86s-.48-.58-.78-.8A1.3,1.3,0,0,1,81.41,103a1.8,1.8,0,0,1-1.59,1.65A3.15,3.15,0,0,0,81.5,106a3.37,3.37,0,0,1,2-2.4c.8-.34,1.82-.69,2.05-1.64.12-.21,0-.75.34-.65a4.75,4.75,0,0,1,.38,2.62,4.42,4.42,0,0,1-1,2.14Zm7.58,0a3.21,3.21,0,0,0,.57-.65,3.84,3.84,0,0,0,.54-2.34c-.34,0-.72.23-1.06,0A1,1,0,0,1,87,101.8c.15-.38.54-.57.85-.79-.21-.44-.73-.74-.78-1.25a5.35,5.35,0,0,1,1,.86,3.24,3.24,0,0,1,1.17-1.69,2.4,2.4,0,0,1,1.5-.36c-.26.58-.67,1.13-.9,1.76a12.53,12.53,0,0,0-.41,5.68v0Zm-25.51-2.47a.46.46,0,0,0-.08.77.47.47,0,0,0,.75-.23c.17-.38-.33-.73-.67-.54m3.93-.58a.44.44,0,0,0-.08.74c.29.28.87,0,.81-.37a.49.49,0,0,0-.73-.37" fill="#00b1eb" fill-rule="evenodd"/><path d="M60.68,96.57A10,10,0,0,1,62,91.94a8.33,8.33,0,0,1,3.42-3.18,6,6,0,0,0,2.33-1.61A8,8,0,0,0,68.33,86c.29,0,.28.4.37.61a3.6,3.6,0,0,1,0,1.87,6.16,6.16,0,0,1,3.69,1.66,4.16,4.16,0,0,1,1,3c0,.3,0,.65-.2.89a6.16,6.16,0,0,0-.33-2,3.8,3.8,0,0,0-2.4-2.26,7,7,0,0,0-3-.3.88.88,0,1,1-1.7.37,5.91,5.91,0,0,0-3.65,3.91,4.55,4.55,0,0,0,.11,2.87Zm4.57,0a8.1,8.1,0,0,1-.85-2.26A2.66,2.66,0,0,0,63,92.86a1.72,1.72,0,0,1,1.52-1,1.88,1.88,0,0,1,1,.32A3.54,3.54,0,0,1,67.61,91a2.22,2.22,0,0,1,1.28.27c-.57.34-1.2.71-1.36,1.4s.38,1.47.1,2.19a1.53,1.53,0,0,1-1.81.49,5.33,5.33,0,0,0-.12,1.26Zm2,0a5.14,5.14,0,0,0,.89-.79,5.32,5.32,0,0,0,1.25-2.34,16,16,0,0,0,.16-3.8c.33.23.26.7.36,1a6.5,6.5,0,0,0,1.94,3,3.58,3.58,0,0,0,3.52.73,2.11,2.11,0,0,0,1.24-.79c.11-.49-.59-.57-.86-.32s-.24.65-.57.83a1.86,1.86,0,0,1,0-1.07,1.2,1.2,0,0,1,1.13-.78,1.54,1.54,0,0,1,1.18.69,5.48,5.48,0,0,0,1-1.47,4.68,4.68,0,0,1-1.49-.13,3.68,3.68,0,0,1-1.72-1.18,2.57,2.57,0,0,0-1-.72,4.21,4.21,0,0,0-1.55-.09,3.36,3.36,0,0,1,2-2.15,3,3,0,0,1,2.23.25,6.48,6.48,0,0,1,2.32,1.82,6.78,6.78,0,0,1,2.43-1,7.3,7.3,0,0,1,3.71.31,6.35,6.35,0,0,1,3.75,7.95l-.44,0a.35.35,0,0,1,.05-.08,1.49,1.49,0,0,1-.93-.55A1.23,1.23,0,0,1,88,94.27c.25-.24.64-.2.91-.39a5.22,5.22,0,0,0-2.62-3.56,5.47,5.47,0,0,0-3.67-.79,4.73,4.73,0,0,0-3.41,2.33,8.62,8.62,0,0,1-2.82,3.06,4.33,4.33,0,0,1-3.42.3,6.42,6.42,0,0,1-1.7-.89,9.46,9.46,0,0,1-.75,1.45,4.77,4.77,0,0,1-.83.79Zm3.28,0a.71.71,0,0,1,.28-.68c.28-.32.73-.17,1.1-.14a1.39,1.39,0,0,0,1-.37,5.49,5.49,0,0,0-.12,1.22Zm7.77,0a6.26,6.26,0,0,1,0-1.37,5.09,5.09,0,0,1,2.37-3.39c-.06.71-.82,1-1.15,1.52a4.45,4.45,0,0,0-.86,3.24Zm3,0s0,0-.07,0c-.58-.57-1.47-.53-2.21-.69.3-.29.82-.17,1.13-.5s.38-1,.45-1.46a8.21,8.21,0,0,1,.83-2.81,1,1,0,0,1,.33-.39c.07.44.07.89.12,1.32a9.74,9.74,0,0,0,2,4.6Zm4.9,0a2.7,2.7,0,0,0-.43-1.12c-.65-.89-1.91-1-2.55-2a3.62,3.62,0,0,1-.55-2l-.54,0,.1-.34a6.64,6.64,0,0,1,2.55.22,4.77,4.77,0,0,0,2.46-.09,3.17,3.17,0,0,1-1.13,1.52,3.92,3.92,0,0,1,1,1.71,2.78,2.78,0,0,1-.53,2.09Zm-2-4.18a.44.44,0,0,0-.09.73.49.49,0,0,0,.81-.31.48.48,0,0,0-.72-.42m-18.38,1a.49.49,0,0,0,0,.78.47.47,0,1,0,0-.78m11.59-4a.64.64,0,0,0-.17,1.09.63.63,0,0,0,1-.46.64.64,0,0,0-.82-.63m-.13-4.29c-.17.1-.33.27-.25.48a.47.47,0,0,0,.87.14c.24-.37-.27-.92-.62-.62m-4.55-.25a7.43,7.43,0,0,1,7.13.23,8.65,8.65,0,0,1,2.29,2.34.8.8,0,0,1,.13.42,2.49,2.49,0,0,1-.36-.3,6.76,6.76,0,0,0-2.16-1.93c-.33-.13-.6.17-.8.38a2.13,2.13,0,0,1-1.87.77c-.85-.07-1.5-.68-2.33-.85a3.84,3.84,0,0,0-1.31-.11,5.14,5.14,0,0,1,0,1,1.41,1.41,0,0,1-2,.86c.29-.19.72-.31.75-.73a.44.44,0,0,0-.64-.46,4.29,4.29,0,0,0-1.18,1c-.25.26-.28.69-.61.89a5.22,5.22,0,0,1,3-3.42" fill="#00b1eb" fill-rule="evenodd"/><path d="M134.35,136.76a2.17,2.17,0,0,0,.87,1,2.68,2.68,0,0,0,1.49.43,1.91,1.91,0,0,0,1.73-.88A4.25,4.25,0,0,0,139,135a4.19,4.19,0,0,0-.14-1.12,3.73,3.73,0,0,0-.43-1,2.44,2.44,0,0,0-.7-.73,1.88,1.88,0,0,0-1-.29,3.15,3.15,0,0,0-1.49.33,1.7,1.7,0,0,0-.87.84Zm0,4.53a3,3,0,0,0,.07.74.72.72,0,0,0,.28.45,1.63,1.63,0,0,0,.71.25,7.8,7.8,0,0,0,1.28.09v.23c-.46,0-.95-.05-1.4-.05s-.95,0-1.41,0l-1.28,0c-.41,0-.84,0-1.27.05v-.23a3.66,3.66,0,0,0,.68-.1,1.49,1.49,0,0,0,.48-.21.92.92,0,0,0,.31-.4,2.39,2.39,0,0,0,.1-.68v-8.25a1.3,1.3,0,0,0-.34-1.06,2.21,2.21,0,0,0-1.08-.34v-.22l2.87-.26v.79a5.41,5.41,0,0,1,1.29-.71,4.23,4.23,0,0,1,1.42-.2,4,4,0,0,1,1.51.28,3,3,0,0,1,1.13.79,3.72,3.72,0,0,1,.72,1.22,4.67,4.67,0,0,1,.26,1.53,3.47,3.47,0,0,1-.34,1.56,3.53,3.53,0,0,1-.88,1.16,3.84,3.84,0,0,1-1.3.75,5,5,0,0,1-2.73.13,4,4,0,0,1-1.08-.46Z" fill="#00b1eb" fill-rule="evenodd"/><path d="M147.17,138.29a3.65,3.65,0,0,0,1-.31.94.94,0,0,0,.33-.83v-4.38c0-.39-.13-.61-.37-.7a2.53,2.53,0,0,0-.91-.13v-.24l2.77-.4v1.07c.14-.11.32-.23.51-.4s.41-.33.63-.49a5.93,5.93,0,0,1,.66-.41,1.59,1.59,0,0,1,.67-.16,1.44,1.44,0,0,1,1.11.41,1.66,1.66,0,0,1,.4,1.12l-1.51.8c0-.1.05-.19.07-.28a1.71,1.71,0,0,0,0-.36.81.81,0,0,0-.18-.51.65.65,0,0,0-.52-.24,1,1,0,0,0-.53.15,2.05,2.05,0,0,0-.5.33l-.47.41-.38.4v4a.86.86,0,0,0,.36.83,4,4,0,0,0,1.07.31v.21l-1.28,0-1.26,0-.85,0-.84,0Z" fill="#00b1eb" fill-rule="evenodd"/><path d="M164.23,131.18a5.78,5.78,0,0,1,1.66.25,4,4,0,0,1,1.28.79,3,3,0,0,1,.83,1.19,4.13,4.13,0,0,1,0,3.09,3,3,0,0,1-.83,1.19,3.51,3.51,0,0,1-1.28.77,4.67,4.67,0,0,1-1.66.27,4.57,4.57,0,0,1-1.65-.27,3.68,3.68,0,0,1-1.3-.77,3,3,0,0,1-.81-1.19,4.13,4.13,0,0,1,0-3.09,3,3,0,0,1,.81-1.19,4.23,4.23,0,0,1,1.3-.79,5.66,5.66,0,0,1,1.65-.25m-.34.57a1.7,1.7,0,0,0-.92.26,1.91,1.91,0,0,0-.63.69,2.64,2.64,0,0,0-.39,1,3.7,3.7,0,0,0-.12,1,4.85,4.85,0,0,0,.16,1.22,3.22,3.22,0,0,0,.51,1.11,2.41,2.41,0,0,0,.84.81,2.21,2.21,0,0,0,1.23.32,1.63,1.63,0,0,0,.92-.26,2,2,0,0,0,.62-.69,2.94,2.94,0,0,0,.41-1,4.77,4.77,0,0,0,.12-1.08,3.88,3.88,0,0,0-.18-1.2,4,4,0,0,0-.51-1.11,2.63,2.63,0,0,0-.85-.81,2.25,2.25,0,0,0-1.21-.31" fill="#00b1eb" fill-rule="evenodd"/><path d="M182.68,136.53a3.87,3.87,0,0,0,.06.82.92.92,0,0,0,.21.5,1,1,0,0,0,.49.29,4.39,4.39,0,0,0,.82.07v.23l-1.49,0-1.55,0v-.7a3.19,3.19,0,0,1-1.22.66,4.93,4.93,0,0,1-1.7.27,3.33,3.33,0,0,1-1.4-.28,3.07,3.07,0,0,1-1.07-.8,3.34,3.34,0,0,1-.7-1.16,3.87,3.87,0,0,1-.25-1.38,4.08,4.08,0,0,1,.3-1.58,3.66,3.66,0,0,1,.85-1.23,4,4,0,0,1,1.27-.84,4.43,4.43,0,0,1,1.57-.28,3.6,3.6,0,0,1,1.22.21,11.53,11.53,0,0,1,1.11.56v-4.9a3.73,3.73,0,0,0-.06-.74,1.1,1.1,0,0,0-.25-.45,1,1,0,0,0-.52-.23,4.54,4.54,0,0,0-.77-.13v-.23l3.08-.29Zm-1.48-3.3a1.3,1.3,0,0,0-.28-.53,1.86,1.86,0,0,0-.54-.5,3.53,3.53,0,0,0-.73-.35,2.54,2.54,0,0,0-.83-.15,1.78,1.78,0,0,0-1.07.3,2.24,2.24,0,0,0-.74.73,4,4,0,0,0-.41,1,5.71,5.71,0,0,0-.13,1.15,5.22,5.22,0,0,0,.13,1.13,3.84,3.84,0,0,0,.41,1.06,2.38,2.38,0,0,0,.74.74,1.84,1.84,0,0,0,1.07.29,2.57,2.57,0,0,0,.85-.14,3.57,3.57,0,0,0,.71-.33,2.47,2.47,0,0,0,.54-.42,1.33,1.33,0,0,0,.28-.4Z" fill="#00b1eb" fill-rule="evenodd"/><path d="M193,136.13a1.72,1.72,0,0,0,.41,1.23,1.6,1.6,0,0,0,1.2.42,2.75,2.75,0,0,0,1.21-.28,3.51,3.51,0,0,0,.88-.61v-4a2.13,2.13,0,0,0,0-.46.7.7,0,0,0-.19-.36,1.26,1.26,0,0,0-.46-.29,3,3,0,0,0-.81-.19v-.22l3-.2V137a1.08,1.08,0,0,0,.37,1,2.34,2.34,0,0,0,1,.27v.19l-1.45.06-1.42,0v-1a9.9,9.9,0,0,1-1.4.86,3.47,3.47,0,0,1-1.57.34,2.34,2.34,0,0,1-1.55-.51,1.83,1.83,0,0,1-.65-1.56v-3.92a.89.89,0,0,0-.31-.77,2.55,2.55,0,0,0-1.11-.29v-.27l2.89-.23Z" fill="#00b1eb"/><path d="M212.5,134.35a7.33,7.33,0,0,0-.45-.94,2.55,2.55,0,0,0-.56-.87,3.11,3.11,0,0,0-.78-.64,2.34,2.34,0,0,0-1-.22,1.69,1.69,0,0,0-1,.27,2.75,2.75,0,0,0-.68.72,3.29,3.29,0,0,0-.37,1,5.24,5.24,0,0,0-.12,1.11,3,3,0,0,0,.22,1.19,3,3,0,0,0,.57,1,2.48,2.48,0,0,0,.92.7,3,3,0,0,0,1.2.25,3.66,3.66,0,0,0,1.33-.25,6.85,6.85,0,0,0,1.18-.65l.28.31a8.06,8.06,0,0,1-1.69,1,4.59,4.59,0,0,1-1.85.34,3.62,3.62,0,0,1-1.4-.29,3.69,3.69,0,0,1-1.17-.82,3.35,3.35,0,0,1-.79-1.19A3.57,3.57,0,0,1,206,135a3.65,3.65,0,0,1,.32-1.48,3.5,3.5,0,0,1,.79-1.18,4.07,4.07,0,0,1,1.17-.83,3.62,3.62,0,0,1,1.4-.29,9.45,9.45,0,0,1,1.46.08c.45.06.89.13,1.34.21l.22,2.88Z" fill="#00b1eb" fill-rule="evenodd"/><path d="M219.17,132.07v-.31a1.89,1.89,0,0,0,1-.3,2.78,2.78,0,0,0,.77-.72,4.42,4.42,0,0,0,.52-1l.41-1h.25v2.73h2.6v.57h-2.6v4.39a1.91,1.91,0,0,0,0,.49,1.13,1.13,0,0,0,.11.43.59.59,0,0,0,.25.29.69.69,0,0,0,.45.12,1.87,1.87,0,0,0,.94-.24,5.06,5.06,0,0,0,.76-.62l.15.18-.62.58a3.48,3.48,0,0,1-.62.53,2.83,2.83,0,0,1-.73.38,2.28,2.28,0,0,1-.84.13,1.14,1.14,0,0,1-1.07-.48,2.17,2.17,0,0,1-.29-1.14v-5Z" fill="#00b1eb"/><path d="M231.08,136h.25c.2.25.41.52.62.77a3.66,3.66,0,0,0,.73.68,4.11,4.11,0,0,0,.83.49,2.7,2.7,0,0,0,1,.19,4.73,4.73,0,0,0,.52,0,1.6,1.6,0,0,0,.45-.16,1.06,1.06,0,0,0,.35-.31.85.85,0,0,0,.12-.46,1,1,0,0,0-.35-.78,3.35,3.35,0,0,0-.85-.54,7,7,0,0,0-1.12-.41,7.53,7.53,0,0,1-1.13-.48,3.32,3.32,0,0,1-.86-.68,1.49,1.49,0,0,1-.35-1,2,2,0,0,1,.62-1.56,2.39,2.39,0,0,1,1.61-.54,5,5,0,0,1,1.39.18,7.72,7.72,0,0,0,1.4.24l.1,2h-.25a2.82,2.82,0,0,0-.48-.7,3.71,3.71,0,0,0-.62-.57,3.55,3.55,0,0,0-.76-.43,2,2,0,0,0-.81-.15,1.76,1.76,0,0,0-.86.2.88.88,0,0,0,0,1.41,4.25,4.25,0,0,0,.86.47c.34.14.7.3,1.12.43a6.32,6.32,0,0,1,1.12.49,3.72,3.72,0,0,1,.88.73,1.71,1.71,0,0,1,.32,1.06,2.41,2.41,0,0,1-.2,1.07,1.87,1.87,0,0,1-.6.68,2.4,2.4,0,0,1-.87.34,4.72,4.72,0,0,1-1.08.1,4.6,4.6,0,0,1-.85-.06,5.33,5.33,0,0,1-.8-.17l-.69-.16-.58-.12Z" fill="#00b1eb"/><path d="M142,125a3.37,3.37,0,0,0,1.08-.21,1.13,1.13,0,0,0,.57-.46,1.9,1.9,0,0,0,.25-.85c0-.34,0-.78,0-1.31v-6.3c0-.54,0-1,0-1.32a2,2,0,0,0-.25-.86,1.26,1.26,0,0,0-.59-.47A3.9,3.9,0,0,0,142,113v-.24l1.53.06h2.8c.42,0,.83,0,1.24-.06V113a3.53,3.53,0,0,0-1.05.19,1.12,1.12,0,0,0-.57.47,1.78,1.78,0,0,0-.23.86,11.73,11.73,0,0,0-.06,1.32v6.3a11.66,11.66,0,0,0,.06,1.31,1.5,1.5,0,0,0,.25.85,1.06,1.06,0,0,0,.59.46,3.5,3.5,0,0,0,1.09.21v.23c-.47,0-1,0-1.43,0s-1,0-1.44,0-.93,0-1.38,0-.91,0-1.38,0Z" fill="#00b1eb"/><path d="M154.43,122.75h.26a7.36,7.36,0,0,0,.61.77,4.23,4.23,0,0,0,.72.68,3.59,3.59,0,0,0,.85.5,2.46,2.46,0,0,0,1,.18,2.89,2.89,0,0,0,.5,0,1.27,1.27,0,0,0,.45-.16.91.91,0,0,0,.36-.3.89.89,0,0,0,.12-.47,1,1,0,0,0-.34-.79,4.11,4.11,0,0,0-.87-.53c-.35-.15-.71-.29-1.12-.44a4.94,4.94,0,0,1-1.12-.45A3,3,0,0,1,155,121a1.4,1.4,0,0,1-.34-1,2,2,0,0,1,.63-1.59,2.37,2.37,0,0,1,1.6-.55,5.28,5.28,0,0,1,1.38.19,6.43,6.43,0,0,0,1.38.24l.12,2h-.24a3.38,3.38,0,0,0-.47-.67,3,3,0,0,0-.64-.59,3.47,3.47,0,0,0-.74-.43,2.28,2.28,0,0,0-.81-.15,1.68,1.68,0,0,0-.86.2.86.86,0,0,0,0,1.41,5.17,5.17,0,0,0,.86.48c.36.14.72.29,1.13.41a5.76,5.76,0,0,1,1.12.51,3,3,0,0,1,.87.72,1.62,1.62,0,0,1,.35,1,2.41,2.41,0,0,1-.22,1.08,1.51,1.51,0,0,1-.6.67,2.27,2.27,0,0,1-.87.35,4.83,4.83,0,0,1-1.08.1,6,6,0,0,1-.86,0,6.66,6.66,0,0,1-.8-.17l-.68-.17-.57-.11Z" fill="#00b1eb"/><path d="M166.59,125a2.46,2.46,0,0,0,.74-.13,1.12,1.12,0,0,0,.44-.31A1.28,1.28,0,0,0,168,124a8.07,8.07,0,0,0,0-.91v-9.5a1.69,1.69,0,0,0-.22-1,1.43,1.43,0,0,0-1.07-.28V112l2.78-.34v11.38c0,.36,0,.67,0,.91a1,1,0,0,0,.2.57,1.09,1.09,0,0,0,.45.31,2.73,2.73,0,0,0,.81.13v.23c-.38,0-.75,0-1.13,0s-.78,0-1.15,0-.71,0-1.06,0-.69,0-1,0Z" fill="#00b1eb"/><path d="M177.87,119.63a2.59,2.59,0,0,1,.43-.93,1.88,1.88,0,0,1,.63-.54,2.16,2.16,0,0,1,.81-.22,9.71,9.71,0,0,1,1-.06,5.15,5.15,0,0,1,1,.11,2.77,2.77,0,0,1,.87.34,1.91,1.91,0,0,1,.85,1.65v3.49a1,1,0,0,0,.2.65.65.65,0,0,0,.58.27,1.29,1.29,0,0,0,.69-.2,3,3,0,0,1,.57-.43l.16.2c-.13.12-.26.27-.45.44s-.34.33-.52.49a4.47,4.47,0,0,1-.59.41,1.23,1.23,0,0,1-.57.14.76.76,0,0,1-.4-.11,4.49,4.49,0,0,1-.41-.29c-.13-.11-.25-.25-.36-.36a3.2,3.2,0,0,0-.31-.32,8.6,8.6,0,0,1-1.35.74,3.57,3.57,0,0,1-1.48.34,2.13,2.13,0,0,1-.76-.12,1.83,1.83,0,0,1-.65-.38,2.39,2.39,0,0,1-.48-.58,2,2,0,0,1-.17-.78,1.63,1.63,0,0,1,.46-1.23,2.61,2.61,0,0,1,1.11-.72,6.71,6.71,0,0,1,1.57-.33c.59-.06,1.18-.08,1.77-.1v-1.44a1.42,1.42,0,0,0-.42-1.09,1.67,1.67,0,0,0-1.11-.36.86.86,0,0,0-.77.48,2.19,2.19,0,0,0-.28,1.12Zm4.1,2.31a4.14,4.14,0,0,0-1.26-.19,2.51,2.51,0,0,0-.72.11,1.44,1.44,0,0,0-.63.27,1.69,1.69,0,0,0-.49.47,1.43,1.43,0,0,0-.17.71,1,1,0,0,0,.45.92,1.87,1.87,0,0,0,1,.29,2.71,2.71,0,0,0,1.12-.26,3,3,0,0,0,.72-.42Z" fill="#00b1eb" fill-rule="evenodd"/><path d="M194,123.87c0,.42.11.68.34.81a2.25,2.25,0,0,0,1,.31v.23c-.38,0-.75,0-1.16,0s-.84,0-1.27,0-.57,0-.84,0-.57,0-.9,0V125a2.79,2.79,0,0,0,1-.31c.23-.13.33-.39.33-.81V120a3.36,3.36,0,0,0-.06-.73.88.88,0,0,0-.21-.42,1.25,1.25,0,0,0-.4-.2c-.17,0-.38,0-.61-.06v-.24L194,118v1a7.88,7.88,0,0,1,1.2-.75,2.84,2.84,0,0,1,1.38-.32,2.34,2.34,0,0,1,1.16.27,2.69,2.69,0,0,1,.91.79l.55-.36c.2-.12.42-.23.65-.34a2.93,2.93,0,0,1,.64-.25,2.76,2.76,0,0,1,.66-.11,2.59,2.59,0,0,1,1.89.66,2.63,2.63,0,0,1,.66,1.95v3.38a.83.83,0,0,0,.37.81,2.56,2.56,0,0,0,1,.31v.23c-.4,0-.81,0-1.23,0s-.85,0-1.27,0-.58,0-.82,0-.52,0-.75,0V125a2.22,2.22,0,0,0,.88-.31c.23-.13.33-.39.33-.81v-3.18a2,2,0,0,0-.46-1.4,1.53,1.53,0,0,0-1.08-.47,2.75,2.75,0,0,0-1.85.62v4.43c0,.42.11.68.34.81a2.46,2.46,0,0,0,1,.31v.23c-.37,0-.77,0-1.16,0s-.83,0-1.27,0c-.29,0-.56,0-.82,0s-.52,0-.75,0V125a2.16,2.16,0,0,0,.89-.31.86.86,0,0,0,.33-.81v-3.18a2.87,2.87,0,0,0-.29-1.44c-.18-.37-.61-.53-1.26-.53a1.7,1.7,0,0,0-.47,0,1.3,1.3,0,0,0-.44.17,1.75,1.75,0,0,0-.43.28c-.14.13-.31.27-.49.45Z" fill="#00b1eb" fill-rule="evenodd"/><path d="M212.59,120.44a6.53,6.53,0,0,0,0-.8,1.11,1.11,0,0,0-.18-.59.89.89,0,0,0-.42-.39,2.19,2.19,0,0,0-.78-.2v-.27l2.88-.19v5.55a3.52,3.52,0,0,0,.08.76.81.81,0,0,0,.26.41,1.15,1.15,0,0,0,.46.21,6.12,6.12,0,0,0,.69.06v.23c-.43,0-.88,0-1.33,0s-.89,0-1.32,0-.58,0-.86,0-.56,0-.86,0V125a5.17,5.17,0,0,0,.66-.06.94.94,0,0,0,.41-.21.65.65,0,0,0,.26-.41,3,3,0,0,0,.08-.76Zm.56-6.57a1,1,0,0,1,.7.31,1,1,0,0,1,.29.73,1.05,1.05,0,0,1-.29.74.94.94,0,0,1-.7.31.9.9,0,0,1-.71-.31,1,1,0,0,1-.31-.74,1,1,0,0,1,.31-.73.94.94,0,0,1,.71-.31" fill="#00b1eb" fill-rule="evenodd"/><path d="M228.27,121.06c-.12-.31-.28-.62-.43-.94a3.33,3.33,0,0,0-.56-.87,2.68,2.68,0,0,0-.79-.62,1.92,1.92,0,0,0-1-.25,1.69,1.69,0,0,0-1,.28,2.22,2.22,0,0,0-.68.72,4.62,4.62,0,0,0-.39,1,5.46,5.46,0,0,0-.12,1.11,3.36,3.36,0,0,0,.21,1.2,3.11,3.11,0,0,0,.6,1,2.67,2.67,0,0,0,.9.7,2.83,2.83,0,0,0,1.22.25,3.44,3.44,0,0,0,1.32-.25,7.11,7.11,0,0,0,1.18-.64l.27.3a6.7,6.7,0,0,1-1.67,1,4.79,4.79,0,0,1-1.84.35,3.45,3.45,0,0,1-1.42-.3,4,4,0,0,1-1.18-.82,3.83,3.83,0,0,1-.78-1.2,3.15,3.15,0,0,1-.32-1.46,3.31,3.31,0,0,1,.32-1.47,4.07,4.07,0,0,1,.78-1.2,4,4,0,0,1,1.18-.81,3.46,3.46,0,0,1,1.42-.31c.51,0,1,.05,1.46.09s.87.13,1.31.22l.26,2.87Z" fill="#00b1eb" fill-rule="evenodd"/></g></svg>