<svg xmlns="http://www.w3.org/2000/svg" viewBox="0 0 276 164"><title>Splash</title><g id="Atlas_Pension" data-name="Atlas Pension"><path d="M61.23,137.68a1.22,1.22,0,0,1,.34,0,3.42,3.42,0,0,0,.78,2.13,2.45,2.45,0,0,0,1.12.38h.36a3.46,3.46,0,0,0,1.25-.19,2.32,2.32,0,0,0,.91-.49,4.18,4.18,0,0,0,.71-1.11,2,2,0,0,0,.14-.85,4,4,0,0,0,0-.54,8.74,8.74,0,0,0-.3-.94,13.43,13.43,0,0,0-.55-1.25l-.94-2a9.94,9.94,0,0,1-.51-1.37,3.3,3.3,0,0,1-.12-1,3,3,0,0,1,.32-1.38,3.33,3.33,0,0,1,.93-1.06,3.78,3.78,0,0,1,1.07-.61,4.68,4.68,0,0,1,1.37-.19,7.34,7.34,0,0,1,2.77.57,4.79,4.79,0,0,1-.15,1,8.55,8.55,0,0,1-.34,1.07,1.51,1.51,0,0,1-.32,0,4.9,4.9,0,0,0-.23-1.27,1.4,1.4,0,0,0-.56-.73,1.75,1.75,0,0,0-1-.3,2.27,2.27,0,0,0-2.41,2.42,3.88,3.88,0,0,0,.18,1.18,19.1,19.1,0,0,0,1,2.29,13.8,13.8,0,0,1,.64,1.4c0,.07.13.35.28.83a6.18,6.18,0,0,1,.25.87,3.83,3.83,0,0,1,0,.63,2.74,2.74,0,0,1-1,2.22,5.41,5.41,0,0,1-3.55,1.11,9.45,9.45,0,0,1-2.8-.44v-.06a4.65,4.65,0,0,1,.11-.72q0-.19.15-1.2C61.18,138.06,61.2,137.89,61.23,137.68Z" fill="#231f20" fill-rule="evenodd"/><path d="M74.46,133.24l-.13,0a1.08,1.08,0,0,0-.56.29,6.09,6.09,0,0,0-1.18,1.14,2.54,2.54,0,0,1-.2.24l-.37-.05a4.06,4.06,0,0,1,.61-.82,9.45,9.45,0,0,1,1-.93,4.93,4.93,0,0,1,1-.63,1.24,1.24,0,0,1,.49-.11.55.55,0,0,1,.36.13.4.4,0,0,1,.14.28,12.1,12.1,0,0,1-1.15,2.59c-.21.43-.35.73-.42.89q.54-.57,1.38-1.56a17.32,17.32,0,0,1,1.61-1.61,2.93,2.93,0,0,1,.9-.53,2.6,2.6,0,0,1,.82-.19.69.69,0,0,1,.47.18.45.45,0,0,1,.12.34,7.59,7.59,0,0,1-1.13,2.93l-.45.87-.06.15,1-1.18.63-.69.46-.47a7,7,0,0,1,1.72-1.55,3,3,0,0,1,1.4-.54.49.49,0,0,1,.38.18.6.6,0,0,1,.17.46,1.45,1.45,0,0,1,0,.37,5.28,5.28,0,0,1-.31.88s-.3.55-.86,1.57c-.32.58-.56,1-.74,1.29l-.49.78a4.4,4.4,0,0,1-.55.82,1.52,1.52,0,0,0-.57.91s0,.07.07.1a1.31,1.31,0,0,0,.37-.19,12,12,0,0,0,1.57-1.25l.3.07a4.73,4.73,0,0,1-1.54,1.51,3.59,3.59,0,0,1-1.92.71.48.48,0,0,1-.35-.16.41.41,0,0,1,0-.21,5.9,5.9,0,0,1,.31-.54L80.4,137c.88-1.43,1.41-2.33,1.58-2.72a4.6,4.6,0,0,0,.37-1,.24.24,0,0,0-.07-.18.21.21,0,0,0-.17-.07.8.8,0,0,0-.35.12,5.59,5.59,0,0,0-1.32,1.11q-1.5,1.59-2.28,2.52A19.38,19.38,0,0,0,76,139.92a2.44,2.44,0,0,1-.46.63l-.42,0a1.93,1.93,0,0,1-.53-.06,1.89,1.89,0,0,1,.28-.58c.31-.51.82-1.39,1.51-2.66s1.15-2.14,1.37-2.59a6.58,6.58,0,0,0,.41-1,.78.78,0,0,0,0-.22.45.45,0,0,0-.09-.28.19.19,0,0,0-.15-.08,1.09,1.09,0,0,0-.46.17,5.78,5.78,0,0,0-1.27,1.11c-.94,1-1.47,1.57-1.59,1.72a29.64,29.64,0,0,0-1.8,2.5s-.14.26-.38.65l-.46.82a2,2,0,0,1-.39.44l-.43,0a.73.73,0,0,1-.25,0l0-.14A.88.88,0,0,1,71,140l1.62-3.08,1.76-3.43A.57.57,0,0,0,74.46,133.24Z" fill="#231f20" fill-rule="evenodd"/><path d="M90.55,133.17a1.21,1.21,0,0,0,.13-.25,1,1,0,0,1,.24-.38l.42,0a.76.76,0,0,1,.33.08l0,.12a.54.54,0,0,1,0,.18,1.64,1.64,0,0,0-.13.37l-.08.2-.66,1.75c-.27.79-.52,1.42-.72,1.89a12.49,12.49,0,0,0-.54,1.44,5,5,0,0,1-.42,1l0,.1s0,.09.11.15a3.49,3.49,0,0,0,.69-.53c.48-.49.77-.8.86-.92l.19-.24.21.21a10.22,10.22,0,0,1-.89,1.05,4.52,4.52,0,0,1-1.12.93,1.48,1.48,0,0,1-.72.21.44.44,0,0,1-.32-.1.31.31,0,0,1-.11-.25,2.24,2.24,0,0,1,.1-.51c.16-.43.27-.72.34-.85s.15-.35.27-.64.2-.49.4-.92a4.33,4.33,0,0,0-.48.55,14.48,14.48,0,0,1-1.87,1.89,6.46,6.46,0,0,1-1.17.66,3,3,0,0,1-.81.17,1.35,1.35,0,0,1-.52-.08,1,1,0,0,1-.39-.4,1.36,1.36,0,0,1-.12-.65A4.07,4.07,0,0,1,84,138a7.36,7.36,0,0,1,1-1.94,9,9,0,0,1,1.67-1.73,6.92,6.92,0,0,1,1.52-.94,4.08,4.08,0,0,1,1.58-.39,1.87,1.87,0,0,1,.42,0A1.66,1.66,0,0,1,90.55,133.17Zm-4.79,6.47a1.82,1.82,0,0,0,.43-.16c.07,0,.33-.22.78-.55.83-.8,1.29-1.27,1.4-1.39a7.64,7.64,0,0,0,.8-1c.08-.11.25-.42.52-.93l.25-.68a6.91,6.91,0,0,0,.14-.69.77.77,0,0,0-.23-.52.67.67,0,0,0-.49-.15,1.56,1.56,0,0,0-.68.13,4.44,4.44,0,0,0-1.16.75A8.19,8.19,0,0,0,86.15,136a10.69,10.69,0,0,0-.93,1.62,3.94,3.94,0,0,0-.37,1.34.84.84,0,0,0,.15.55.51.51,0,0,0,.39.17Z" fill="#231f20" fill-rule="evenodd"/><path d="M94.36,133.1a4.39,4.39,0,0,0-.6.55c-.06.06-.35.45-.9,1.18l-.39,0a5.92,5.92,0,0,1,.9-1.31,5.06,5.06,0,0,1,1.15-1.07,1.52,1.52,0,0,1,.7-.22.72.72,0,0,1,.34.19.45.45,0,0,1,.09.28,1.24,1.24,0,0,1,0,.33,15.49,15.49,0,0,1-.42,1.54c-.22.66-.41,1.19-.57,1.58l-.51,1.21,0,.17c.09-.16.28-.51.56-1.05a19.76,19.76,0,0,1,2.3-3.74,1.7,1.7,0,0,1,1.22-.51,1.09,1.09,0,0,1,.74.32.85.85,0,0,1,.25.65,1.15,1.15,0,0,1-.28.78.7.7,0,0,1-.56.22.52.52,0,0,1-.43-.14,1.27,1.27,0,0,1-.15-.72c-.09-.18-.18-.26-.29-.26a.48.48,0,0,0-.33.17,14.32,14.32,0,0,0-1.77,2.7,26.76,26.76,0,0,0-1.64,3.17,7.44,7.44,0,0,1-.53,1.23.46.46,0,0,1-.41.17.53.53,0,0,1-.37-.1.29.29,0,0,1-.12-.24,1.42,1.42,0,0,1,.1-.45c.28-.69.73-2,1.36-3.8l.68-2.11c0-.18.08-.3.1-.35l.06-.14C94.56,133.28,94.5,133.2,94.36,133.1Z" fill="#231f20" fill-rule="evenodd"/><path d="M101.13,133.15h-.87l-.64,0h-.13a1.29,1.29,0,0,1,.17-.5c1,0,1.52,0,1.7-.07l.32-.75a15.09,15.09,0,0,0,.6-1.52,5.08,5.08,0,0,1,.22-.52l.51,0a2.32,2.32,0,0,1,.46,0l0,.16a17.58,17.58,0,0,1-.88,2.16,4.19,4.19,0,0,0-.16.46l.32,0h.2l.33,0,.92,0a1.14,1.14,0,0,1-.11.52c-.25,0-.59,0-1,0h-.39a1.69,1.69,0,0,0-.57.1l-1.61,3.85c-.18.36-.48,1.06-.91,2.1a.17.17,0,0,0,.06.13l.12,0a1.09,1.09,0,0,0,.66-.34,12.06,12.06,0,0,0,1.62-1.71,1.54,1.54,0,0,1,.29.21c-.65.79-1.11,1.32-1.37,1.57a7.59,7.59,0,0,1-1,.79,8,8,0,0,1-.73.46,1.2,1.2,0,0,1-.45.09.52.52,0,0,1-.36-.11.38.38,0,0,1-.12-.3,4.73,4.73,0,0,1,.48-1.33l.41-.91,1.45-3.49C100.86,133.89,101,133.49,101.13,133.15Z" fill="#231f20" fill-rule="evenodd"/><path d="M110.78,133.1a4.39,4.39,0,0,0-.6.55c-.06.06-.35.45-.9,1.18l-.4,0a6.41,6.41,0,0,1,.91-1.31,4.86,4.86,0,0,1,1.15-1.07,1.52,1.52,0,0,1,.7-.22.68.68,0,0,1,.34.19.45.45,0,0,1,.09.28,1.24,1.24,0,0,1,0,.33,13.61,13.61,0,0,1-.43,1.54c-.21.66-.39,1.19-.56,1.58l-.51,1.21,0,.17c.09-.16.28-.51.56-1.05a19.23,19.23,0,0,1,2.3-3.74,1.7,1.7,0,0,1,1.22-.51,1.09,1.09,0,0,1,.74.32.85.85,0,0,1,.25.65,1.15,1.15,0,0,1-.28.78.72.72,0,0,1-.57.22.51.51,0,0,1-.42-.14,1.34,1.34,0,0,1-.16-.72c-.08-.18-.17-.26-.28-.26a.48.48,0,0,0-.33.17,14.87,14.87,0,0,0-1.77,2.7,26.76,26.76,0,0,0-1.64,3.17,6.65,6.65,0,0,1-.53,1.23.45.45,0,0,1-.4.17.54.54,0,0,1-.38-.1.29.29,0,0,1-.12-.24,1.42,1.42,0,0,1,.1-.45c.28-.69.74-2,1.36-3.8l.68-2.11c.05-.18.08-.3.1-.35l.06-.14C111,133.28,110.91,133.2,110.78,133.1Z" fill="#231f20" fill-rule="evenodd"/><path d="M116.46,136.76a5.12,5.12,0,0,0-.33,1.8,1.67,1.67,0,0,0,.32,1.06.65.65,0,0,0,.56.27.92.92,0,0,0,.38-.08,2.63,2.63,0,0,0,.63-.44,5,5,0,0,0,.54-.66,3.72,3.72,0,0,0,.47-.91h.13l.27,0A4.69,4.69,0,0,1,118,140a2.28,2.28,0,0,1-1.51.65,1.08,1.08,0,0,1-.88-.47,2.68,2.68,0,0,1-.49-1.71,5.25,5.25,0,0,1,.15-1.13,5.58,5.58,0,0,1,.33-1.1,9.72,9.72,0,0,1,.65-1.29l.76-1.1c.49-.53.77-.82.82-.87a3.19,3.19,0,0,1,.7-.45,1.79,1.79,0,0,1,.72-.15,1.1,1.1,0,0,1,.84.41,1.44,1.44,0,0,1,.37,1,2.64,2.64,0,0,1-.89,1.84l-.81.53c-.1,0-.34.13-.74.25S117.08,136.63,116.46,136.76Zm.16-.51a2.74,2.74,0,0,0,1-.24,4.78,4.78,0,0,0,1-.54,2.39,2.39,0,0,0,.54-.53,3.06,3.06,0,0,0,.46-.79,2.2,2.2,0,0,0,.16-.84.65.65,0,0,0-.17-.47.49.49,0,0,0-.37-.18,1.06,1.06,0,0,0-.63.3,6.31,6.31,0,0,0-1.28,1.77A9.51,9.51,0,0,0,116.62,136.25Z" fill="#231f20" fill-rule="evenodd"/><path d="M123.61,133.15h-.87l-.64,0H122a1.29,1.29,0,0,1,.17-.5c1,0,1.52,0,1.7-.07.13-.31.23-.56.32-.75a15.09,15.09,0,0,0,.6-1.52c.07-.19.14-.36.21-.52l.52,0a2.32,2.32,0,0,1,.46,0l0,.16a15.83,15.83,0,0,1-.88,2.16,4.19,4.19,0,0,0-.16.46l.32,0h.2l.33,0,.92,0a1.14,1.14,0,0,1-.11.52c-.25,0-.59,0-1,0h-.39a1.69,1.69,0,0,0-.57.1L123,137.16c-.18.36-.48,1.06-.92,2.1a.22.22,0,0,0,.06.13l.13,0a1.09,1.09,0,0,0,.66-.34,12.06,12.06,0,0,0,1.62-1.71,1.21,1.21,0,0,1,.28.21,20.47,20.47,0,0,1-1.36,1.57,7.59,7.59,0,0,1-1,.79,8,8,0,0,1-.73.46,1.22,1.22,0,0,1-.46.09.49.49,0,0,1-.35-.11.38.38,0,0,1-.12-.3,4.93,4.93,0,0,1,.47-1.33l.42-.91,1.45-3.49C123.34,133.89,123.49,133.49,123.61,133.15Z" fill="#231f20" fill-rule="evenodd"/><path d="M129.18,128.67a.84.84,0,0,1,.27-.61.82.82,0,0,1,.61-.27.78.78,0,0,1,.57.23.75.75,0,0,1,.24.54,1,1,0,0,1-.3.71.83.83,0,0,1-.64.19.69.69,0,0,1-.53-.22A.74.74,0,0,1,129.18,128.67Zm-.57,4.43a1.14,1.14,0,0,0-.31,0,4.17,4.17,0,0,0-.68.42,5.74,5.74,0,0,0-.83.81l-.57.13a6.09,6.09,0,0,1,1.69-1.61,3,3,0,0,1,1.45-.59.45.45,0,0,1,.34.12.36.36,0,0,1,.11.29,4.34,4.34,0,0,1-.55,1.6l-.32.71q-.6,1.29-1.26,2.43c-.15.25-.31.54-.48.88a3.68,3.68,0,0,1-.25.46,1.86,1.86,0,0,0-.3.77.21.21,0,0,0,0,.13.17.17,0,0,0,.14,0,.85.85,0,0,0,.32-.11,4.76,4.76,0,0,0,.89-.65,5.37,5.37,0,0,0,.9-1.05h.43a7.81,7.81,0,0,1-.88,1.21,4.62,4.62,0,0,1-1.32,1.1,2.16,2.16,0,0,1-1,.31.75.75,0,0,1-.49-.14.43.43,0,0,1-.15-.35,8,8,0,0,1,1.11-2.85l1.58-3a5.19,5.19,0,0,0,.34-.72.85.85,0,0,0,.06-.23A.54.54,0,0,0,128.61,133.1Z" fill="#231f20" fill-rule="evenodd"/><path d="M132.82,133.1a3.94,3.94,0,0,0-.61.55c-.05.06-.35.45-.89,1.18l-.4,0a6,6,0,0,1,.91-1.31,4.86,4.86,0,0,1,1.15-1.07,1.48,1.48,0,0,1,.7-.22.64.64,0,0,1,.33.19.4.4,0,0,1,.1.28,1.86,1.86,0,0,1,0,.33c-.08.36-.22.87-.43,1.54s-.4,1.19-.56,1.58l-.51,1.21,0,.17c.09-.16.27-.51.55-1.05a19.61,19.61,0,0,1,2.31-3.74,1.69,1.69,0,0,1,1.22-.51,1.07,1.07,0,0,1,.73.32.86.86,0,0,1,.26.65,1.16,1.16,0,0,1-.29.78.7.7,0,0,1-.56.22.54.54,0,0,1-.43-.14,1.47,1.47,0,0,1-.15-.72c-.08-.18-.18-.26-.28-.26a.48.48,0,0,0-.33.17,14.16,14.16,0,0,0-1.78,2.7,26.2,26.2,0,0,0-1.63,3.17,8.43,8.43,0,0,1-.53,1.23.47.47,0,0,1-.41.17.58.58,0,0,1-.38-.1.3.3,0,0,1-.11-.24,1.19,1.19,0,0,1,.1-.45c.28-.69.73-2,1.35-3.8l.69-2.11a2.49,2.49,0,0,1,.1-.35l.06-.14C133,133.28,133,133.2,132.82,133.1Z" fill="#231f20" fill-rule="evenodd"/><path d="M138.49,136.76a5.34,5.34,0,0,0-.32,1.8,1.67,1.67,0,0,0,.31,1.06.68.68,0,0,0,.56.27.93.93,0,0,0,.39-.08,2.38,2.38,0,0,0,.62-.44,4.35,4.35,0,0,0,.55-.66,3.38,3.38,0,0,0,.46-.91h.14l.27,0A4.72,4.72,0,0,1,140,140a2.24,2.24,0,0,1-1.5.65,1.1,1.1,0,0,1-.89-.47,2.74,2.74,0,0,1-.48-1.71,5.86,5.86,0,0,1,.14-1.13,7.36,7.36,0,0,1,.33-1.1,11.13,11.13,0,0,1,.66-1.29l.76-1.1c.49-.53.76-.82.82-.87a3.38,3.38,0,0,1,.69-.45,1.86,1.86,0,0,1,.72-.15,1.12,1.12,0,0,1,.85.41,1.44,1.44,0,0,1,.36,1,2.22,2.22,0,0,1-.28,1.07,2.37,2.37,0,0,1-.6.77l-.82.53c-.09,0-.34.13-.73.25S139.12,136.63,138.49,136.76Zm.17-.51a2.74,2.74,0,0,0,1-.24,5.06,5.06,0,0,0,1-.54,2.61,2.61,0,0,0,.54-.53,3.06,3.06,0,0,0,.46-.79,2.41,2.41,0,0,0,.16-.84.7.7,0,0,0-.17-.47.5.5,0,0,0-.37-.18,1.06,1.06,0,0,0-.63.3,6.31,6.31,0,0,0-1.28,1.77A8.66,8.66,0,0,0,138.66,136.25Z" fill="#231f20" fill-rule="evenodd"/><path d="M146.05,133.24l-.14,0a1.06,1.06,0,0,0-.55.29,6.09,6.09,0,0,0-1.18,1.14,2.54,2.54,0,0,1-.2.24l-.38-.05a5,5,0,0,1,.61-.82,11.75,11.75,0,0,1,1-.93,4.93,4.93,0,0,1,1-.63,1.21,1.21,0,0,1,.49-.11.57.57,0,0,1,.36.13.4.4,0,0,1,.14.28,12.1,12.1,0,0,1-1.15,2.59c-.22.43-.36.73-.42.89q.54-.57,1.38-1.56a17.32,17.32,0,0,1,1.61-1.61,2.71,2.71,0,0,1,.9-.53,2.6,2.6,0,0,1,.82-.19.65.65,0,0,1,.46.18.42.42,0,0,1,.13.34,7.59,7.59,0,0,1-1.13,2.93l-.45.87-.06.15,1-1.18.62-.69.46-.47a7,7,0,0,1,1.72-1.55,3,3,0,0,1,1.4-.54.51.51,0,0,1,.38.18.64.64,0,0,1,.17.46,1.45,1.45,0,0,1,0,.37,6.4,6.4,0,0,1-.31.88l-.86,1.57c-.32.58-.57,1-.74,1.29l-.49.78a5,5,0,0,1-.55.82,1.52,1.52,0,0,0-.57.91s0,.07.07.1a1.31,1.31,0,0,0,.37-.19,12.72,12.72,0,0,0,1.57-1.25l.3.07a4.73,4.73,0,0,1-1.54,1.51,3.59,3.59,0,0,1-1.92.71.46.46,0,0,1-.35-.16.58.58,0,0,1,0-.21l.32-.54L152,137a28.86,28.86,0,0,0,1.57-2.72,5,5,0,0,0,.38-1,.24.24,0,0,0-.07-.18.22.22,0,0,0-.17-.07.76.76,0,0,0-.35.12,5.81,5.81,0,0,0-1.33,1.11q-1.49,1.59-2.28,2.52a20,20,0,0,0-2.13,3.11,2.23,2.23,0,0,1-.46.63l-.43,0a1.9,1.9,0,0,1-.52-.06,1.89,1.89,0,0,1,.28-.58c.31-.51.82-1.39,1.51-2.66s1.15-2.14,1.37-2.59a6.58,6.58,0,0,0,.41-1,.78.78,0,0,0,0-.22.4.4,0,0,0-.1-.28.17.17,0,0,0-.14-.08,1.09,1.09,0,0,0-.46.17,5.56,5.56,0,0,0-1.27,1.11c-.94,1-1.47,1.57-1.59,1.72a27.5,27.5,0,0,0-1.8,2.5l-.38.65c-.23.4-.39.67-.46.82a2,2,0,0,1-.39.44l-.43,0a.78.78,0,0,1-.26,0l0-.14a.8.8,0,0,1,.15-.39l1.62-3.08,1.76-3.43A.57.57,0,0,0,146.05,133.24Z" fill="#231f20" fill-rule="evenodd"/><path d="M156.92,136.76a5.34,5.34,0,0,0-.32,1.8,1.62,1.62,0,0,0,.32,1.06.65.65,0,0,0,.56.27.92.92,0,0,0,.38-.08,2.63,2.63,0,0,0,.63-.44,5,5,0,0,0,.54-.66,3.72,3.72,0,0,0,.47-.91h.13l.27,0a4.64,4.64,0,0,1-1.46,2.15,2.24,2.24,0,0,1-1.5.65,1.11,1.11,0,0,1-.89-.47,2.74,2.74,0,0,1-.48-1.71,5.25,5.25,0,0,1,.15-1.13,5.58,5.58,0,0,1,.33-1.1,9.72,9.72,0,0,1,.65-1.29l.76-1.1c.49-.53.77-.82.82-.87a3.38,3.38,0,0,1,.69-.45,1.87,1.87,0,0,1,.73-.15,1.1,1.1,0,0,1,.84.41,1.44,1.44,0,0,1,.37,1,2.64,2.64,0,0,1-.89,1.84l-.82.53a7.25,7.25,0,0,1-.73.25C158.07,136.51,157.55,136.63,156.92,136.76Zm.17-.51a2.74,2.74,0,0,0,1-.24,4.78,4.78,0,0,0,1-.54,2.39,2.39,0,0,0,.54-.53,3.06,3.06,0,0,0,.46-.79,2.2,2.2,0,0,0,.16-.84.65.65,0,0,0-.17-.47.49.49,0,0,0-.37-.18,1.06,1.06,0,0,0-.63.3,6.31,6.31,0,0,0-1.28,1.77A8.66,8.66,0,0,0,157.09,136.25Z" fill="#231f20" fill-rule="evenodd"/><path d="M164,133.49a.19.19,0,0,0-.05-.1.14.14,0,0,0-.09,0c-.34,0-.86.54-1.58,1.62h-.36a7.72,7.72,0,0,1,.68-1,5.81,5.81,0,0,1,1-1,4.79,4.79,0,0,1,1-.63.87.87,0,0,1,.29-.07H165a.55.55,0,0,1,.17.36,1,1,0,0,1,0,.24,3.08,3.08,0,0,1-.11.36c-.19.56-.34,1-.43,1.19l-.56,1.44c-.13.34-.26.69-.38,1.06l.13-.18a27.29,27.29,0,0,1,2-2.56,8.28,8.28,0,0,1,1.74-1.63,1.77,1.77,0,0,1,.94-.31.68.68,0,0,1,.52.19.61.61,0,0,1,.19.47,1.32,1.32,0,0,1,0,.34,7.52,7.52,0,0,1-.31,1c-.16.45-.57,1.41-1.25,2.9l-1,2.26,0,.13a.43.43,0,0,0,.07.17c.37-.08.92-.66,1.66-1.75h.4a10.78,10.78,0,0,1-1,1.42,4.37,4.37,0,0,1-1.16,1,1.41,1.41,0,0,1-.74.21.53.53,0,0,1-.36-.1.29.29,0,0,1-.12-.22,4.36,4.36,0,0,1,.51-1.6l1.42-3.12.56-1.3a4,4,0,0,0,.22-.6,1.24,1.24,0,0,0,0-.33.32.32,0,0,0-.07-.22.21.21,0,0,0-.18-.07.69.69,0,0,0-.36.13,6.72,6.72,0,0,0-1.6,1.48,25.65,25.65,0,0,0-1.66,2.17,27.79,27.79,0,0,0-1.81,3.34,1,1,0,0,1-.28.41l-.32,0a2.91,2.91,0,0,1-.39-.05.51.51,0,0,1,0-.14,1.84,1.84,0,0,1,.1-.35c.14-.42.5-1.32,1.06-2.69l.22-.53Z" fill="#231f20" fill-rule="evenodd"/><path d="M172.65,133.15h-.87l-.64,0H171a1.48,1.48,0,0,1,.17-.5c1,0,1.53,0,1.7-.07q.19-.47.33-.75c.19-.43.39-.93.6-1.52a3.52,3.52,0,0,1,.21-.52l.51,0a2.32,2.32,0,0,1,.46,0l0,.16a16.48,16.48,0,0,1-.87,2.16,4.28,4.28,0,0,0-.17.46l.33,0h.2l.32,0,.92,0a1.15,1.15,0,0,1-.1.52c-.26,0-.59,0-1,0h-.4a1.69,1.69,0,0,0-.57.1l-1.61,3.85c-.17.36-.48,1.06-.91,2.1a.22.22,0,0,0,.06.13l.13,0a1.1,1.1,0,0,0,.65-.34,11.52,11.52,0,0,0,1.62-1.71,1.27,1.27,0,0,1,.29.21,19.9,19.9,0,0,1-1.37,1.57,7,7,0,0,1-1,.79,5.82,5.82,0,0,1-.73.46,1.2,1.2,0,0,1-.45.09.53.53,0,0,1-.36-.11.41.41,0,0,1-.11-.3,4.93,4.93,0,0,1,.47-1.33l.41-.91,1.45-3.49C172.39,133.89,172.54,133.49,172.65,133.15Z" fill="#231f20" fill-rule="evenodd"/><path d="M176.3,145.06a8.79,8.79,0,0,1,.95-.16l.43-.05.3-.06a.48.48,0,0,0,.19-.13,2.59,2.59,0,0,0,.27-.54l1-2.55a10.15,10.15,0,0,0,.39-1.11c.08-.25.17-.5.26-.74a4.41,4.41,0,0,0,.17-.47l.09-.33.92-2.54c0-.1.28-.82.74-2.16.13-.4.26-.81.37-1.21a9.39,9.39,0,0,0-1.22.27l-.31.09a1.78,1.78,0,0,1-.45.15.64.64,0,0,1-.24-.07l0-.11a.27.27,0,0,1,.15-.24,8.77,8.77,0,0,1,2.29-.69,16.53,16.53,0,0,0,.57-1.67,2.35,2.35,0,0,1,.33-.82l.25,0,.41,0a.47.47,0,0,1,.17.29l0,.14s-.06.19-.13.45-.1.34-.18.56c-.18.44-.28.73-.33.88l.58,0,.47,0h0a2.42,2.42,0,0,1,1.09.28,2.52,2.52,0,0,1,1.15,1.05,3.19,3.19,0,0,1,.37,1.54,4.35,4.35,0,0,1-.26,1.4,6.27,6.27,0,0,1-.78,1.52,5.52,5.52,0,0,1-1.19,1.3,3.93,3.93,0,0,1-1.19.7,6,6,0,0,1-1.54.42,2.93,2.93,0,0,1-.62-.08,5.54,5.54,0,0,1-.75-.22,36.24,36.24,0,0,0-1.31,3.39c-.12.34-.22.6-.29.76a1.17,1.17,0,0,0-.11.39v.09l.11.09a2.81,2.81,0,0,0,.64.09c.25,0,.47,0,.65.07a.4.4,0,0,0,.13.07l.05.16a.18.18,0,0,1-.05.11l-.59,0h-.46l-1.8-.06a3.64,3.64,0,0,0-.75.06l-.59,0h-.36v-.06A.55.55,0,0,1,176.3,145.06Zm8.17-6.11a6.35,6.35,0,0,0,1.3-2,5.33,5.33,0,0,0,.39-1.83,4,4,0,0,0-.14-1,1,1,0,0,0-.28-.49,2.06,2.06,0,0,0-.59-.45,3.22,3.22,0,0,0-1.21-.2l-.54,0c-.43,1.35-.79,2.4-1.08,3.14l-.82,2.35a2.91,2.91,0,0,0-.13.55,1.39,1.39,0,0,0,0,.3.59.59,0,0,0,.18.48,1.33,1.33,0,0,0,.82.22,2.38,2.38,0,0,0,.91-.18A7.78,7.78,0,0,0,184.47,139Z" fill="#231f20" fill-rule="evenodd"/><path d="M191.88,127.63l0-.28c.8-.07,1.41-.1,1.82-.1h.43v.12l-.31.95s-.25.63-.71,1.82l-1.33,3.45c-.24.65-.63,1.65-1.18,3l-.33.85a7.35,7.35,0,0,1-.54,1.25,1.79,1.79,0,0,0-.33.8l0,.15a1.57,1.57,0,0,0,.8-.44,6.08,6.08,0,0,0,1.27-1.49,1.23,1.23,0,0,1,.29,0h.11a5.3,5.3,0,0,1-.8,1.17,8.71,8.71,0,0,1-.93.89,5.15,5.15,0,0,1-1.08.66,1.58,1.58,0,0,1-.66.15.33.33,0,0,1-.25-.09.29.29,0,0,1-.09-.22,24.59,24.59,0,0,1,1.57-4.06c.33-.72.66-1.56,1-2.49.6-1.64,1.07-2.8,1.4-3.5a11.34,11.34,0,0,0,.72-1.87,1.15,1.15,0,0,0,0-.14.34.34,0,0,0-.14-.26A2.26,2.26,0,0,0,191.88,127.63Z" fill="#231f20" fill-rule="evenodd"/><path d="M199.27,133.17a2.07,2.07,0,0,0,.13-.25,1,1,0,0,1,.24-.38l.42,0a.76.76,0,0,1,.33.08l0,.12a.41.41,0,0,1,0,.18s-.06.16-.13.37l-.07.2-.66,1.75c-.27.79-.52,1.42-.73,1.89a14.59,14.59,0,0,0-.53,1.44,5,5,0,0,1-.42,1l0,.1s0,.09.1.15a3.29,3.29,0,0,0,.7-.53c.48-.49.77-.8.86-.92l.19-.24.21.21a11.71,11.71,0,0,1-.89,1.05,4.71,4.71,0,0,1-1.12.93,1.51,1.51,0,0,1-.72.21.48.48,0,0,1-.33-.1.33.33,0,0,1-.1-.25,2.24,2.24,0,0,1,.1-.51c.16-.43.27-.72.34-.85s.15-.35.26-.64.2-.49.41-.92a4.33,4.33,0,0,0-.48.55,14.48,14.48,0,0,1-1.87,1.89,6.46,6.46,0,0,1-1.17.66,3,3,0,0,1-.81.17,1.31,1.31,0,0,1-.52-.08,1,1,0,0,1-.4-.4,1.52,1.52,0,0,1-.11-.65,4.28,4.28,0,0,1,.28-1.39,7.34,7.34,0,0,1,1-1.94,9,9,0,0,1,1.67-1.73,7.12,7.12,0,0,1,1.51-.94,4.17,4.17,0,0,1,1.59-.39,1.93,1.93,0,0,1,.42,0A1.66,1.66,0,0,1,199.27,133.17Zm-4.79,6.47a1.82,1.82,0,0,0,.43-.16l.79-.55c.82-.8,1.28-1.27,1.39-1.39a8.53,8.53,0,0,0,.8-1,9.84,9.84,0,0,0,.51-.93l.26-.68a6.91,6.91,0,0,0,.14-.69.77.77,0,0,0-.23-.52.7.7,0,0,0-.5-.15,1.54,1.54,0,0,0-.67.13,4.44,4.44,0,0,0-1.16.75,7.86,7.86,0,0,0-1.37,1.59,10.69,10.69,0,0,0-.93,1.62,3.94,3.94,0,0,0-.37,1.34.84.84,0,0,0,.15.55.51.51,0,0,0,.39.17Z" fill="#231f20" fill-rule="evenodd"/><path d="M203.4,133.49a.14.14,0,0,0-.06-.1.11.11,0,0,0-.08,0c-.34,0-.87.54-1.58,1.62h-.36a7.72,7.72,0,0,1,.68-1,5.81,5.81,0,0,1,1-1,4.79,4.79,0,0,1,1-.63.87.87,0,0,1,.29-.07h.14a.52.52,0,0,1,.18.36,1.94,1.94,0,0,1,0,.24,3.08,3.08,0,0,1-.11.36c-.2.56-.34,1-.43,1.19l-.56,1.44c-.14.34-.26.69-.39,1.06a1.79,1.79,0,0,0,.14-.18,29,29,0,0,1,2-2.56,8.27,8.27,0,0,1,1.75-1.63,1.77,1.77,0,0,1,.94-.31.68.68,0,0,1,.52.19.61.61,0,0,1,.19.47,1.32,1.32,0,0,1,0,.34,7.52,7.52,0,0,1-.31,1c-.15.45-.57,1.41-1.25,2.9l-1,2.26,0,.13a.32.32,0,0,0,.07.17c.37-.08.92-.66,1.66-1.75h.4a10.78,10.78,0,0,1-1,1.42,4.37,4.37,0,0,1-1.16,1,1.43,1.43,0,0,1-.74.21.53.53,0,0,1-.36-.1.29.29,0,0,1-.12-.22,4.36,4.36,0,0,1,.51-1.6l1.42-3.12.55-1.3a4.49,4.49,0,0,0,.23-.6,1.24,1.24,0,0,0,0-.33.32.32,0,0,0-.07-.22.21.21,0,0,0-.18-.07.69.69,0,0,0-.36.13,6.72,6.72,0,0,0-1.6,1.48,25.65,25.65,0,0,0-1.66,2.17,27.79,27.79,0,0,0-1.81,3.34,1,1,0,0,1-.28.41l-.32,0a2.91,2.91,0,0,1-.39-.05.51.51,0,0,1,0-.14,1.28,1.28,0,0,1,.1-.35c.14-.42.5-1.32,1.06-2.69l.22-.53Z" fill="#231f20" fill-rule="evenodd"/><path d="M209.56,138.63c.33,0,.59.25.8.75a1.33,1.33,0,0,0,.31.49.52.52,0,0,0,.36.12,1.15,1.15,0,0,0,.81-.39,1.27,1.27,0,0,0,.29-.91,4.8,4.8,0,0,0-.33-1.41,6.92,6.92,0,0,1-.47-2.15,3.38,3.38,0,0,1,.61-2,2.17,2.17,0,0,1,1.92-.88,1.33,1.33,0,0,1,.9.31,1,1,0,0,1,.33.74.73.73,0,0,1-.16.48.49.49,0,0,1-.37.18,1,1,0,0,1-.78-.42,2.33,2.33,0,0,0-.46-.48A.84.84,0,0,0,213,133a.69.69,0,0,0-.5.23.84.84,0,0,0-.21.57,7.84,7.84,0,0,0,.49,2.21,6.7,6.7,0,0,1,.46,2.21,2.07,2.07,0,0,1-.31,1,2.58,2.58,0,0,1-1,.88,2.75,2.75,0,0,1-1.34.36,1.86,1.86,0,0,1-1.23-.35,1.1,1.1,0,0,1-.41-.85.68.68,0,0,1,.17-.47A.57.57,0,0,1,209.56,138.63Z" fill="#231f20" fill-rule="evenodd"/><path d="M92.1,39.77c2.41-1.49,4.89-2.94,7.42-4.34C138.44,14,176.44,13,184.41,33.17c4,10.1-.27,23.58-10.38,37.23,7.4-11.1,10.38-22.19,7.35-31.26-6.9-20.55-42.09-22.86-78.63-5.11C99.07,35.82,95.51,37.74,92.1,39.77Z" fill="#d2232a"/><path d="M234,106.23A4.89,4.89,0,0,1,230.3,111H45l1.12-20.77L51.93,77l4.69-6.47H230A4.83,4.83,0,0,1,234,75.19ZM67.86,77.89v27.24h6.19V95.22a10.94,10.94,0,0,0,2.13.16c3.68,0,6.88-.94,9-2.9a8.69,8.69,0,0,0,2.5-6.56,7.89,7.89,0,0,0-2.91-6.35c-1.84-1.52-4.63-2.25-8.48-2.25A51,51,0,0,0,67.86,77.89ZM95.27,97.06l12.91,0a16.18,16.18,0,0,0,.2-2.5c0-4.95-2.46-10-8.93-10-6.92,0-10.12,5.61-10.12,10.69,0,6.31,3.9,10.24,10.7,10.24a19,19,0,0,0,7.25-1.27l-.82-4.22a16.4,16.4,0,0,1-5.54.86C98,100.91,95.48,99.69,95.27,97.06ZM157,82.48a3.32,3.32,0,1,0-3.44-3.32A3.26,3.26,0,0,0,157,82.48Zm-3.07,22.65h6.22v-20H153.9ZM112.11,91.49v13.64h6.22V93.58a4.57,4.57,0,0,1,.21-1.56,3.43,3.43,0,0,1,3.2-2.33c2.25,0,3.15,1.76,3.15,4.34v11.1h6.23V93.29c0-5.9-3.07-8.64-7.17-8.64a7.21,7.21,0,0,0-6.19,3.24l-.41-2.79H112C112,86.9,112.11,89,112.11,91.49Zm24,8.23-1.1,4.43a14.12,14.12,0,0,0,6.47,1.43c5.74,0,8.65-2.74,8.65-6.52,0-2.9-1.6-4.86-5.41-6.14-2.46-.85-3.24-1.34-3.24-2.33s.86-1.6,2.38-1.6a10.63,10.63,0,0,1,4.34,1.11l1.06-4.26a13,13,0,0,0-5.61-1.19c-5,0-8.15,2.83-8.15,6.6,0,2.33,1.56,4.62,5.73,6,2.3.78,2.91,1.27,2.91,2.34s-.78,1.64-2.66,1.64A12.16,12.16,0,0,1,136.07,99.72Zm38.27,5.86c5.37,0,10.57-3.36,10.57-10.65,0-6.06-4.1-10.28-10.2-10.28-6.48,0-10.74,4.13-10.74,10.61S168.48,105.58,174.34,105.58Zm38-5.86-1.11,4.43a14.17,14.17,0,0,0,6.48,1.43c5.73,0,8.64-2.74,8.64-6.52,0-2.9-1.6-4.86-5.41-6.14-2.46-.85-3.23-1.34-3.23-2.33S218.52,89,220,89a10.63,10.63,0,0,1,4.34,1.11l1.07-4.26a13.09,13.09,0,0,0-5.61-1.19c-5,0-8.15,2.83-8.15,6.6,0,2.33,1.55,4.62,5.73,6,2.29.78,2.91,1.27,2.91,2.34s-.78,1.64-2.66,1.64A12.09,12.09,0,0,1,212.3,99.72Zm-23.54-8.23v13.64H195V93.58a4.58,4.58,0,0,1,.2-1.56,3.43,3.43,0,0,1,3.19-2.33c2.26,0,3.16,1.76,3.16,4.34v11.1h6.23V93.29c0-5.9-3.07-8.64-7.17-8.64a7.21,7.21,0,0,0-6.19,3.24L194,85.1h-5.41C188.68,86.9,188.76,89,188.76,91.49ZM74.05,90.42V82.28a10.87,10.87,0,0,1,2.58-.21c3.15,0,4.88,1.51,4.88,4.05,0,2.79-2.05,4.47-5.38,4.47A9,9,0,0,1,74.05,90.42Zm28.56,2.38H95.23c.16-1.64,1.24-4,3.89-4C102,88.75,102.61,91.33,102.61,92.8Zm71.85,8.32c-2.66,0-4.1-2.58-4.1-6,0-3,1.15-6,4.1-6s4,3,4,6C178.44,98.7,176.92,101.12,174.46,101.12Z" fill="#2d2b7f"/><path d="M111.85,55.85H101.29l-1.82,4.26a6.93,6.93,0,0,0-.68,2.37,1.38,1.38,0,0,0,.59,1.1,5.21,5.21,0,0,0,2.56.61v.73H93.35v-.73a4.63,4.63,0,0,0,2.21-.79,11.9,11.9,0,0,0,2.26-3.91l9.59-22.42h.68l9.46,22.66a10.46,10.46,0,0,0,2.07,3.55,4.29,4.29,0,0,0,2.61.91v.73H111.49v-.73a4.08,4.08,0,0,0,2.2-.54,1.39,1.39,0,0,0,.57-1.13,8.35,8.35,0,0,0-.81-2.8Zm-.62-1.47-4.58-11-4.72,11Z" fill="#2d2b7f" fill-rule="evenodd"/><path d="M127.36,40.49v6h4.29v1.36l-4.29,0V59.84a4,4,0,0,0,.5,2.41,1.64,1.64,0,0,0,1.31.63,2.27,2.27,0,0,0,1.29-.43,2.71,2.71,0,0,0,1-1.22h.78a6.36,6.36,0,0,1-2,3,4.28,4.28,0,0,1-2.65,1,3.63,3.63,0,0,1-1.81-.51,3.23,3.23,0,0,1-1.31-1.47,8,8,0,0,1-.41-2.95V47.88h-2.92v-.64a7.76,7.76,0,0,0,2.27-1.48,11.77,11.77,0,0,0,2.06-2.48,24.39,24.39,0,0,0,1.3-2.79Z" fill="#2d2b7f" fill-rule="evenodd"/><path d="M137.71,36.38v24.4a6.58,6.58,0,0,0,.24,2.27,1.64,1.64,0,0,0,.77.85,4.42,4.42,0,0,0,1.93.29v.73h-9v-.73a4,4,0,0,0,1.74-.26,1.78,1.78,0,0,0,.72-.86,6.73,6.73,0,0,0,.26-2.29V44.06a32.2,32.2,0,0,0-.13-3.78,1.62,1.62,0,0,0-.47-1,1.11,1.11,0,0,0-.77-.26,3.57,3.57,0,0,0-1.33.32l-.33-.74,5.46-2.26Z" fill="#2d2b7f" fill-rule="evenodd"/><path d="M151.08,62.25a27.5,27.5,0,0,1-3.55,2.54,5.34,5.34,0,0,1-2.31.51A4.11,4.11,0,0,1,142.09,64a4.76,4.76,0,0,1-1.23-3.43,4.45,4.45,0,0,1,.6-2.34,8,8,0,0,1,2.85-2.56,44.52,44.52,0,0,1,6.77-2.93V52c0-1.82-.29-3.08-.87-3.76a3.14,3.14,0,0,0-2.53-1,2.82,2.82,0,0,0-2,.68,2,2,0,0,0-.76,1.56l0,1.16a2,2,0,0,1-.47,1.42A1.74,1.74,0,0,1,142,52a2,2,0,0,1-.47-1.42,4.16,4.16,0,0,1,1.77-3.19,7.65,7.65,0,0,1,5-1.44,8.63,8.63,0,0,1,4,.82,3.81,3.81,0,0,1,1.74,1.94,11.31,11.31,0,0,1,.36,3.53v6.23a27.56,27.56,0,0,0,.1,3.21,1.33,1.33,0,0,0,.33.79.81.81,0,0,0,.54.2,1.33,1.33,0,0,0,.57-.14,12.49,12.49,0,0,0,1.62-1.47v1.13q-2.25,3-4.31,3a1.94,1.94,0,0,1-1.57-.69A3.67,3.67,0,0,1,151.08,62.25Zm0-1.3V54a37.35,37.35,0,0,0-3.93,1.71,6.81,6.81,0,0,0-2.29,1.84,3.57,3.57,0,0,0-.69,2.1,3.39,3.39,0,0,0,.88,2.39,2.59,2.59,0,0,0,2,1Q148.58,63,151.08,61Z" fill="#2d2b7f" fill-rule="evenodd"/><path d="M168.77,46v6.25h-.67a8.05,8.05,0,0,0-1.94-4,4.41,4.41,0,0,0-3-1.06,3.34,3.34,0,0,0-2.27.74,2.14,2.14,0,0,0-.85,1.65,3.07,3.07,0,0,0,.62,1.92,6.82,6.82,0,0,0,2.53,1.73l2.92,1.43c2.72,1.33,4.07,3.08,4.07,5.24a5,5,0,0,1-1.89,4A6.61,6.61,0,0,1,164,65.47a15.51,15.51,0,0,1-3.86-.59,4,4,0,0,0-1.08-.2.79.79,0,0,0-.72.5h-.65V58.6h.65a7.45,7.45,0,0,0,2.15,4.24,5.15,5.15,0,0,0,3.55,1.43,3.21,3.21,0,0,0,2.26-.81,2.55,2.55,0,0,0,.87-2,3.12,3.12,0,0,0-1-2.32,17.24,17.24,0,0,0-3.89-2.38,11.21,11.21,0,0,1-3.81-2.61,4.56,4.56,0,0,1-.89-2.88,5.12,5.12,0,0,1,1.54-3.8,5.48,5.48,0,0,1,4-1.53,9.32,9.32,0,0,1,2.62.47,5.84,5.84,0,0,0,1.37.31.82.82,0,0,0,.5-.14,1.89,1.89,0,0,0,.41-.64Z" fill="#2d2b7f" fill-rule="evenodd"/><path d="M43.51,110.92C38.9,99.23,45.33,83,59.12,67.21c-10.36,13.4-14.91,27.18-11.09,38,7,19.62,39.08,22.37,73.49,7.07C85.1,130.19,51,130,43.51,110.92Z" fill="#d2232a"/></g></svg>