<svg xmlns="http://www.w3.org/2000/svg" viewBox="0 0 322.4 276.67"><title>Splash</title><g id="Atlas_Logo_100_" data-name="Atlas Logo 100%"><path d="M161.2,189V92.34c54.72,0,104.19-23.55,139.72-61.53l-3,10.06c-33.76,33-78.42,54-127.67,56.28v100L161.2,189Zm13.59,12.18V106.93c44.44-3,85.08-20.44,117.77-48l-2.72,8.56a208.1,208.1,0,0,1-106,43.62v98.17l-9.05-8.12Zm13.58,12.18V120.7a217,217,0,0,0,97-37.57l-2.15,7.43a220.92,220.92,0,0,1-85.77,33.89V221.5l-9.06-8.11ZM202,225.56V133.81a230.22,230.22,0,0,0,77-28.91l-2,6.89a235.09,235.09,0,0,1-66,25.31v96.58L202,225.56Zm13.58,12.18V146.36A242.74,242.74,0,0,0,273,125.25l-1.92,6.54a248,248,0,0,1-46.45,17.48v96.59l-9.06-8.12ZM47.89,119.63A239.13,239.13,0,0,0,102.68,141V241.8l-4.59,4.06V149.34a247.68,247.68,0,0,1-46.76-17.56l-3.44-12.15Zm-5.73-19.22a228,228,0,0,0,74.16,29.52v99.69l-4.55,4.06V138.25a235.55,235.55,0,0,1-65.7-24.87l-3.91-13ZM36,79.77A214.9,214.9,0,0,0,130,118v99.48l-4.55,4.05V126.63a223.22,223.22,0,0,1-85.32-33L36,79.77Zm-6.7-22.65A203.1,203.1,0,0,0,143.6,105.5v99.77l-4.55,4.06v-95A210.55,210.55,0,0,1,33.9,72.56L29.27,57.12ZM21.48,30.81c34.64,37,82.69,60.38,135.76,61.53V193.09l-4.55,4.06V101.5c-48.09-2.08-92-21.61-125.92-52.68l-5.29-18Z" fill="#2d2b7f" fill-rule="evenodd"/></g></svg>