<svg id="Atlas_Funds" data-name="Atlas Funds" xmlns="http://www.w3.org/2000/svg" viewBox="0 0 276 164"><title>Splash</title><path d="M39.48,129l1.92-7.85.33-1.49a6.2,6.2,0,0,0,.11-1,.78.78,0,0,0-.3-.7,2.28,2.28,0,0,0-1.14-.2l1.35-.41.87,0,.9,0,1.4-.07a2.88,2.88,0,0,1-1.16.65,4.15,4.15,0,0,0-1.28,2c-.28.8-.55,1.74-.82,2.81l-2.28,8.81h-.7L33,119.79l-1.84,7.36a14.25,14.25,0,0,0-.55,2.79.85.85,0,0,0,.3.76,2.9,2.9,0,0,0,1.35.22l-1.34.4-1.09,0-1.08,0-1.22.08c.78-.49,1.26-.64,1.58-.92a3.09,3.09,0,0,0,.79-1.53l2.56-9.12.14-.78a1.07,1.07,0,0,0-.52-.91,2.35,2.35,0,0,0-1.36-.37l.92-.45H32.9l.92,0Zm11.11-1.47a11.24,11.24,0,0,1-2,3,2.87,2.87,0,0,1-2,1,1.67,1.67,0,0,1-1.21-.48,1.73,1.73,0,0,1-.46-1.24A5.4,5.4,0,0,1,45,129a5.78,5.78,0,0,1,.23-.91l1.38-4.34.19-.81c-.76-.61-1.1-.38-1.48.09a11.35,11.35,0,0,0-1.27,2.19,4.31,4.31,0,0,1,1.11-2.63,2.26,2.26,0,0,1,1.64-.72,1.27,1.27,0,0,1,1,.36,1.5,1.5,0,0,1,.34,1.07,4.15,4.15,0,0,1-.08.73l-.34,1.14-1.13,3.38-.26.94a2.73,2.73,0,0,0-.1.69c.31.78.48.85.7.85.7,0,1.45-.62,2.25-1.85A22.77,22.77,0,0,0,51.41,124l.57-1.9h1.51l-1.16,3.88a20.06,20.06,0,0,0-.58,2.38,11.06,11.06,0,0,0-.21,1.83c.19.71.29.78.44.78.3,0,.62-.25,1-.74A11.07,11.07,0,0,0,54.07,128a4.48,4.48,0,0,1-1,2.82,2.15,2.15,0,0,1-1.64.88,1,1,0,0,1-.88-.43,2.08,2.08,0,0,1-.31-1.24,7.81,7.81,0,0,1,.09-1.08C50.38,128.49,50.47,128,50.59,127.51Zm8-1.64a13,13,0,0,1,1.68-3.12,2.13,2.13,0,0,1,1.64-.87.91.91,0,0,1,1,1c-.33.73-.5.81-.7.81-.61-.26-.67-.41-.67-.6-.62-.5-1-.07-1.52.79a23.24,23.24,0,0,0-1.5,3.64l-1.25,3.84H55.69l.54-1.6a30.63,30.63,0,0,0,1-3.5,13.65,13.65,0,0,0,.34-2.79,1.7,1.7,0,0,0-.11-.69c-.6-.23-.89,0-1.23.46a11,11,0,0,0-1.11,2,4.55,4.55,0,0,1,1-2.62,1.88,1.88,0,0,1,1.4-.77,1.1,1.1,0,0,1,.94.47,2.54,2.54,0,0,1,.32,1.4l-.06,1ZM65.69,119h1.5l-1,3.47H67.8L66,123l-1.62,5.49-.27,1.09a4.07,4.07,0,0,0-.09.72c.88.64,1.2.42,1.52,0a11.07,11.07,0,0,0,1.12-2.16,4.28,4.28,0,0,1-1,2.73,2.14,2.14,0,0,1-1.64.78,1.45,1.45,0,0,1-1.07-.39,1.39,1.39,0,0,1-.4-1.06,4.63,4.63,0,0,1,.07-.67l.23-.87L64.53,123H63l1.65-.5Zm8.85,8.52a11.73,11.73,0,0,1-2,3,2.91,2.91,0,0,1-2,1,1.64,1.64,0,0,1-1.2-.48,1.74,1.74,0,0,1-.47-1.24A5.4,5.4,0,0,1,69,129a7.17,7.17,0,0,1,.24-.91l1.38-4.34.18-.81c-.75-.61-1.1-.38-1.47.09A10.85,10.85,0,0,0,68,125.23a4.31,4.31,0,0,1,1.1-2.63,2.26,2.26,0,0,1,1.64-.72,1.29,1.29,0,0,1,1,.36,1.54,1.54,0,0,1,.33,1.07A3.38,3.38,0,0,1,72,124l-.33,1.14-1.14,3.38-.26.94a3.19,3.19,0,0,0-.09.69c.3.78.47.85.69.85.71,0,1.46-.62,2.25-1.85A22.34,22.34,0,0,0,75.35,124l.58-1.9h1.5l-1.15,3.88a20.15,20.15,0,0,0-.59,2.38,12,12,0,0,0-.2,1.83c.18.71.29.78.44.78s.62-.25,1-.74A11.07,11.07,0,0,0,78,128a4.42,4.42,0,0,1-1,2.82,2.15,2.15,0,0,1-1.64.88,1,1,0,0,1-.88-.43,2.16,2.16,0,0,1-.3-1.24,6.51,6.51,0,0,1,.09-1.08A13.67,13.67,0,0,1,74.54,127.51Zm8-1.64a13.4,13.4,0,0,1,1.67-3.12,2.13,2.13,0,0,1,1.64-.87.93.93,0,0,1,1,1c-.34.73-.5.81-.7.81-.62-.26-.68-.41-.68-.6-.62-.5-1-.07-1.51.79a21.45,21.45,0,0,0-1.5,3.64l-1.26,3.84H79.63l.55-1.6a28.58,28.58,0,0,0,1-3.5,13.74,13.74,0,0,0,.35-2.79,1.52,1.52,0,0,0-.12-.69c-.59-.23-.89,0-1.23.46a11.67,11.67,0,0,0-1.11,2,4.62,4.62,0,0,1,1-2.62,1.85,1.85,0,0,1,1.39-.77,1.07,1.07,0,0,1,.94.47,2.54,2.54,0,0,1,.32,1.4l-.06,1Zm7.06.66L89,128.12l-.59,1.67a3,3,0,0,0-.17.77c.72.46,1.07.25,1.43-.2a11,11,0,0,0,1.25-2.1,4.34,4.34,0,0,1-1.1,2.56,2.16,2.16,0,0,1-1.55.77,1.21,1.21,0,0,1-.94-.38,1.53,1.53,0,0,1-.35-1.05,4.59,4.59,0,0,1,.18-1.19,16.52,16.52,0,0,1,.58-1.71l.78-2c.22-.58.39-1.06.5-1.43a3.24,3.24,0,0,0,.16-.86c-.65-.49-1-.27-1.33.2a9.08,9.08,0,0,0-1.11,1.9,3.79,3.79,0,0,1,1-2.43,1.88,1.88,0,0,1,1.39-.77,1.19,1.19,0,0,1,1,.42,1.7,1.7,0,0,1,.35,1.11,4.79,4.79,0,0,1-.19,1.21A19.81,19.81,0,0,1,89.56,126.53Zm.92-9.72c.8.42.88.63.88.88-.43.8-.65.88-.9.88-.8-.42-.88-.63-.88-.88C90,116.9,90.23,116.81,90.48,116.81ZM95.33,126a11.33,11.33,0,0,1,2-3,2.92,2.92,0,0,1,2-1.06,1.48,1.48,0,0,1,1.21.53,2.14,2.14,0,0,1,.45,1.44,3.75,3.75,0,0,1-.07.73l-.2.81-1.38,4.3-.19.87c.74.53,1.1.31,1.47-.14a11.17,11.17,0,0,0,1.27-2.2,4.5,4.5,0,0,1-1.12,2.67,2.25,2.25,0,0,1-1.64.74,1.2,1.2,0,0,1-1-.38,1.62,1.62,0,0,1-.34-1.11,4,4,0,0,1,.1-.79,9.08,9.08,0,0,1,.32-1.09l1.12-3.33a5.78,5.78,0,0,0,.28-.91,4.15,4.15,0,0,0,.09-.72c-.31-.77-.47-.84-.69-.84-.71,0-1.47.63-2.27,1.88a22.45,22.45,0,0,0-2.26,5.22L94,131.34H92.46l1.13-3.75c.26-.9.47-1.75.63-2.56a11.25,11.25,0,0,0,.22-1.88c-.73-.6-1.06-.37-1.41.09a13,13,0,0,0-1.18,2.3,4.42,4.42,0,0,1,1-2.81,2.14,2.14,0,0,1,1.65-.85,1,1,0,0,1,.87.42,2.13,2.13,0,0,1,.3,1.23,7.41,7.41,0,0,1-.08,1Zm9.91,2.54a2.51,2.51,0,0,1-1.39-2.39,4.32,4.32,0,0,1,1.14-3,3.63,3.63,0,0,1,2.77-1.23,2.92,2.92,0,0,1,1.24.25,2.64,2.64,0,0,1,1,.74,4.8,4.8,0,0,1,1-.64,1.79,1.79,0,0,1,.75-.18,1.05,1.05,0,0,1,1.11,1.13c-.3.7-.47.77-.68.77a7.27,7.27,0,0,1-.68-1.06l-1.26.37.21,1.24a4.6,4.6,0,0,1-.93,2.85,3.62,3.62,0,0,1-2.35,1.47,6.2,6.2,0,0,1-1.12.11,6.16,6.16,0,0,0-1,.09,1.74,1.74,0,0,0-.76.36c-.27.8-.14,1,.12,1.18a3,3,0,0,0,1.16.4l1.86.34a4.45,4.45,0,0,1,2.22.85,2.18,2.18,0,0,1,.62,1.68,2.84,2.84,0,0,1-1.14,2.4,5.09,5.09,0,0,1-3.17.86,5.62,5.62,0,0,1-3.11-.78,2.28,2.28,0,0,1-1.2-2,1.79,1.79,0,0,1,.44-1.24,1.46,1.46,0,0,1,1.13-.47c-.09.85-.33,1.3-.33,1.8a1.89,1.89,0,0,0,.86,1.63,4.16,4.16,0,0,0,2.37.6,3.89,3.89,0,0,0,2.28-.57,1.77,1.77,0,0,0,.83-1.54,1.46,1.46,0,0,0-.37-1.06,2.2,2.2,0,0,0-1.18-.53l-2.45-.46a4.6,4.6,0,0,1-1.84-.68,1.4,1.4,0,0,1-.57-1.17,1.73,1.73,0,0,1,.63-1.35A3.83,3.83,0,0,1,105.24,128.52Zm2.5-6.16a1.57,1.57,0,0,0-.85.26,2.16,2.16,0,0,0-.67.73,7.71,7.71,0,0,0-.74,1.73,6.57,6.57,0,0,0-.27,1.77,1.91,1.91,0,0,0,.35,1.19,1.12,1.12,0,0,0,.92.45,2.1,2.1,0,0,0,1.77-1.31A6.4,6.4,0,0,0,109,124a1.93,1.93,0,0,0-.31-1.21A1.11,1.11,0,0,0,107.74,122.36Zm14.7,8.35a18.75,18.75,0,0,0,1.33-3,8.48,8.48,0,0,0,.45-2.48,4.72,4.72,0,0,0-.1-1l-.47-.82a1.6,1.6,0,0,1-.52-1c1-.57,1.26-.4,1.43,0a4.11,4.11,0,0,1,.24,1.62,14.09,14.09,0,0,1-1,5.05,20.06,20.06,0,0,1-2.87,5.08,10.69,10.69,0,0,1-2.1,2.14,3.31,3.31,0,0,1-1.83.79c-.8-.29-.87-.46-.87-.68.43-.72.69-.78,1-.78a3.57,3.57,0,0,0,3.14-1.27,4.77,4.77,0,0,0,1-3.11,18,18,0,0,0-.3-3.15,17.49,17.49,0,0,0-.78-3,10.69,10.69,0,0,0-.68-1.62c-.71-.37-.87-.18-1,.21a13.71,13.71,0,0,0-.18,2.28,4.41,4.41,0,0,1,0-3.16,1.39,1.39,0,0,1,1.28-.89c.72,0,1.34.81,1.86,2.44A23.65,23.65,0,0,1,122.44,130.71Zm9.62-6.46a2.47,2.47,0,0,0-.36-1.44,1.14,1.14,0,0,0-1-.51,1.68,1.68,0,0,0-1.19.55,5.94,5.94,0,0,0-1.1,1.68,15,15,0,0,0-.86,2.55,9.89,9.89,0,0,0-.33,2.28,2.12,2.12,0,0,0,.4,1.36,1.31,1.31,0,0,0,1.09.49,1.74,1.74,0,0,0,1.33-.62,5.93,5.93,0,0,0,1.1-2,16,16,0,0,0,.68-2.32A10.45,10.45,0,0,0,132.06,124.25Zm-1.3-2.37a2.33,2.33,0,0,1,1.94.94,3.83,3.83,0,0,1,.74,2.47,7.57,7.57,0,0,1-.4,2.41,8.71,8.71,0,0,1-1.21,2.21,4.52,4.52,0,0,1-1.46,1.28,3.8,3.8,0,0,1-1.77.44,2.55,2.55,0,0,1-2-.82,3.28,3.28,0,0,1-.73-2.27,7.64,7.64,0,0,1,.39-2.37,8.09,8.09,0,0,1,1.14-2.2,5.85,5.85,0,0,1,1.61-1.54A3.39,3.39,0,0,1,130.76,121.88Zm10.3,5.63a11.48,11.48,0,0,1-2,3,2.91,2.91,0,0,1-2,1,1.64,1.64,0,0,1-1.2-.48,1.74,1.74,0,0,1-.47-1.24,4.44,4.44,0,0,1,.08-.86,4.89,4.89,0,0,1,.24-.91l1.37-4.34.2-.81c-.76-.61-1.11-.38-1.49.09a11.41,11.41,0,0,0-1.26,2.19,4.31,4.31,0,0,1,1.1-2.63,2.27,2.27,0,0,1,1.65-.72,1.28,1.28,0,0,1,1,.36,1.54,1.54,0,0,1,.33,1.07,4.15,4.15,0,0,1-.08.73l-.34,1.14-1.13,3.38-.26.94a3.19,3.19,0,0,0-.09.69c.3.78.47.85.69.85.7,0,1.46-.62,2.25-1.85a22.34,22.34,0,0,0,2.24-5.24l.58-1.9H144l-1.16,3.88c-.24.81-.43,1.6-.58,2.38a11.06,11.06,0,0,0-.21,1.83c.19.71.3.78.45.78s.62-.25,1-.74a11.63,11.63,0,0,0,1.12-2.23,4.42,4.42,0,0,1-1,2.82,2.15,2.15,0,0,1-1.64.88,1,1,0,0,1-.88-.43,2.16,2.16,0,0,1-.31-1.24,9.76,9.76,0,0,1,.09-1.08C140.85,128.49,140.94,128,141.06,127.51Zm8-1.64a12.3,12.3,0,0,1,1.68-3.12,2.12,2.12,0,0,1,1.63-.87,1,1,0,0,1,.71.27.93.93,0,0,1,.27.71c-.34.73-.51.81-.71.81-.61-.26-.67-.41-.67-.6-.62-.5-1-.07-1.51.79a22.2,22.2,0,0,0-1.51,3.64l-1.26,3.84h-1.5l.55-1.6a28.58,28.58,0,0,0,1-3.5,13.74,13.74,0,0,0,.35-2.79,1.52,1.52,0,0,0-.12-.69c-.59-.23-.89,0-1.23.46a11,11,0,0,0-1.11,2,4.62,4.62,0,0,1,1-2.62,1.88,1.88,0,0,1,1.4-.77,1.08,1.08,0,0,1,.94.47,2.54,2.54,0,0,1,.32,1.4l-.06,1Zm12.36.66-.58,1.59-.59,1.67a2.88,2.88,0,0,0-.16.77c.71.46,1.06.25,1.42-.2a10.53,10.53,0,0,0,1.25-2.1,4.28,4.28,0,0,1-1.1,2.56,2.13,2.13,0,0,1-1.55.77,1.21,1.21,0,0,1-.94-.38,1.53,1.53,0,0,1-.34-1.05A5,5,0,0,1,159,129a14.76,14.76,0,0,1,.59-1.71l.77-2c.23-.58.39-1.06.5-1.43A3.34,3.34,0,0,0,161,123c-.66-.49-1-.27-1.34.2a9.08,9.08,0,0,0-1.11,1.9,3.84,3.84,0,0,1,1-2.43,1.9,1.9,0,0,1,1.39-.77,1.18,1.18,0,0,1,.95.42,1.7,1.7,0,0,1,.35,1.11,4.79,4.79,0,0,1-.19,1.21A17.36,17.36,0,0,1,161.39,126.53Zm.92-9.72c.8.42.88.63.88.88-.43.8-.64.88-.9.88-.79-.42-.88-.63-.88-.88C161.85,116.9,162.06,116.81,162.31,116.81Zm4.85,9.17a11.33,11.33,0,0,1,2-3,2.94,2.94,0,0,1,2-1.06,1.45,1.45,0,0,1,1.2.53,2.14,2.14,0,0,1,.45,1.44,3.75,3.75,0,0,1-.07.73l-.19.81-1.39,4.3-.19.87c.75.53,1.11.31,1.47-.14a10.69,10.69,0,0,0,1.27-2.2,4.44,4.44,0,0,1-1.12,2.67,2.25,2.25,0,0,1-1.64.74,1.21,1.21,0,0,1-1-.38,1.62,1.62,0,0,1-.34-1.11,4,4,0,0,1,.1-.79c.07-.29.17-.66.32-1.09l1.13-3.33a6.93,6.93,0,0,0,.27-.91,3.36,3.36,0,0,0,.09-.72c-.3-.77-.47-.84-.69-.84-.71,0-1.46.63-2.27,1.88a22.89,22.89,0,0,0-2.26,5.22l-.56,1.78H164.3l1.12-3.75c.26-.9.48-1.75.63-2.56a11.49,11.49,0,0,0,.23-1.88c-.74-.6-1.07-.37-1.41.09a12.23,12.23,0,0,0-1.19,2.3,4.54,4.54,0,0,1,1-2.81,2.17,2.17,0,0,1,1.65-.85,1,1,0,0,1,.88.42,2.13,2.13,0,0,1,.3,1.23,7.41,7.41,0,0,1-.08,1Zm11.09-1.88c-.79.07-1.09.13-1.42.13a2.07,2.07,0,0,1-.77-.17c-.58-.17-.66-.13-.72-.07a5.78,5.78,0,0,1-.15.68c-.47-1-.36-1.39-.13-1.65a1.1,1.1,0,0,1,.88-.39,1.91,1.91,0,0,1,1,.4,1.9,1.9,0,0,0,.92.4.94.94,0,0,0,.7-.25,1.42,1.42,0,0,0,.36-.76c.67-.37.7-.29.7-.19a2.35,2.35,0,0,1-.43,1l-.37.68a11.57,11.57,0,0,0-.91,2.52,11.07,11.07,0,0,0-.34,2.55,2.59,2.59,0,0,0,.37,1.5A1.22,1.22,0,0,0,179,131a2.06,2.06,0,0,0,1.08-.33,3.6,3.6,0,0,0,1-.92,7.55,7.55,0,0,0,1.1-2.26,9.07,9.07,0,0,0,.4-2.68,9.71,9.71,0,0,0-.07-1.12l-.08-.8a1.28,1.28,0,0,1,.18-.74c.75-.27.94-.17,1,0a3.63,3.63,0,0,1,.15,1.33,9.35,9.35,0,0,1-.32,2.47,11.13,11.13,0,0,1-1,2.42,7.85,7.85,0,0,1-1.93,2.41,3.63,3.63,0,0,1-2.24.82,2.32,2.32,0,0,1-1.69-.59,2.2,2.2,0,0,1-.61-1.65,9.63,9.63,0,0,1,1.4-3.81Zm8.13,3.72-.24,1.15a5.45,5.45,0,0,0-.08.92,1.38,1.38,0,0,0,.26,1,1.16,1.16,0,0,0,.88.29,2.3,2.3,0,0,0,1.43-.66,9,9,0,0,0,1.63-1.92,3.73,3.73,0,0,1-1.44,2.39,3.27,3.27,0,0,1-2,.71,2.15,2.15,0,0,1-1.66-.66,2.64,2.64,0,0,1-.6-1.83,6.57,6.57,0,0,1,.37-2.11,8.48,8.48,0,0,1,1-2.1,9.46,9.46,0,0,1,2.06-2.27,3.38,3.38,0,0,1,2-.8,1.55,1.55,0,0,1,1.13.42,1.47,1.47,0,0,1,.43,1.11,3.17,3.17,0,0,1-1.29,2.39A12.09,12.09,0,0,1,186.38,127.82Zm.12-.48a7.79,7.79,0,0,0,2.81-1.93,3.49,3.49,0,0,0,1.14-2.21,1.06,1.06,0,0,0-.19-.68c-1.1-.24-1.66.21-2.24,1.11A13.56,13.56,0,0,0,186.5,127.34Zm8.7-2.07.84,1.09a6.23,6.23,0,0,1,.79,1.29,3.05,3.05,0,0,1,.25,1.21,2.52,2.52,0,0,1-.88,2,3.5,3.5,0,0,1-2.34.76,3,3,0,0,1-1.72-.44,1.3,1.3,0,0,1-.65-1.13c.32-.71.47-.79.65-.79.53.34.58.51.58.73-.06.82.06,1,.31,1.07a2.56,2.56,0,0,0,1,.16,2,2,0,0,0,1.38-.45,1.51,1.51,0,0,0,.51-1.2,2.24,2.24,0,0,0-.21-.93,8.49,8.49,0,0,0-.94-1.41l-.82-1.06a3,3,0,0,1-.49-.88,2.6,2.6,0,0,1-.18-.93,2.32,2.32,0,0,1,.79-1.77,2.81,2.81,0,0,1,2-.72,2.47,2.47,0,0,1,1.37.36,1.05,1.05,0,0,1,.55.87c-.75.63-.88.58-1,.48l-.1-.82c-.44-.44-.65-.49-.92-.49a1.66,1.66,0,0,0-1.13.38,1.3,1.3,0,0,0-.43,1A4.12,4.12,0,0,0,195.2,125.27Zm6.65-6.28h1.5l-1,3.47H204l-1.79.5-1.61,5.49-.27,1.09a3.44,3.44,0,0,0-.1.72c.88.64,1.2.42,1.52,0a10.54,10.54,0,0,0,1.12-2.16,4.22,4.22,0,0,1-1,2.73,2.15,2.15,0,0,1-1.63.78,1.46,1.46,0,0,1-1.08-.39,1.43,1.43,0,0,1-.39-1.06,3.55,3.55,0,0,1,.07-.67l.22-.87,1.67-5.66h-1.51l1.65-.5Zm10.29,6.53a11.55,11.55,0,0,1,1.84-2.76,2.53,2.53,0,0,1,1.78-.88,1.14,1.14,0,0,1,.93.42,1.77,1.77,0,0,1,.35,1.15,5.33,5.33,0,0,1-.14,1.08,11.64,11.64,0,0,1-.38,1.41l-1.26,3.88-.14.78a1,1,0,0,0,1.41-.32,14.55,14.55,0,0,0,1.29-2.2,4.69,4.69,0,0,1-1.13,2.69,2.22,2.22,0,0,1-1.66.8,1.11,1.11,0,0,1-.87-.39,1.44,1.44,0,0,1-.34-1l.33-1.54,1.22-3.56.38-1.25c.1-.87.05-1,0-1.15-.92-.15-1.56.36-2.32,1.39a12.85,12.85,0,0,0-1.83,3.73l-1.1,3.54h-1.4l1.81-6.14.35-1.32a3.72,3.72,0,0,0,.12-.77c-1-.65-1.57-.17-2.23.8a15.31,15.31,0,0,0-1.75,3.73l-1.24,3.7h-1.4l1.15-4.1c.29-1,.51-1.89.65-2.57a8.57,8.57,0,0,0,.21-1.58c-.75-.52-1.05-.28-1.39.2a12.08,12.08,0,0,0-1.14,2.21,4.55,4.55,0,0,1,1-2.79,2,2,0,0,1,1.55-.83,1,1,0,0,1,.87.41,2.2,2.2,0,0,1,.29,1.24l-.07.81-.25,1.49a11,11,0,0,1,1.86-2.94,2.69,2.69,0,0,1,1.92-1,1,1,0,0,1,.86.4,1.68,1.68,0,0,1,.31,1.09,5,5,0,0,1-.1.91Zm8.36,2.3-.25,1.15a6.73,6.73,0,0,0-.08.92,1.44,1.44,0,0,0,.27,1,1.16,1.16,0,0,0,.88.29,2.27,2.27,0,0,0,1.43-.66,9,9,0,0,0,1.63-1.92,3.73,3.73,0,0,1-1.44,2.39,3.27,3.27,0,0,1-2,.71,2.12,2.12,0,0,1-1.65-.66,2.64,2.64,0,0,1-.6-1.83,6.57,6.57,0,0,1,.37-2.11,8.48,8.48,0,0,1,1-2.1,9.46,9.46,0,0,1,2.06-2.27,3.38,3.38,0,0,1,2-.8,1.55,1.55,0,0,1,1.13.42,1.51,1.51,0,0,1,.43,1.11,3.15,3.15,0,0,1-1.3,2.39A11.92,11.92,0,0,1,220.5,127.82Zm.11-.48a7.74,7.74,0,0,0,2.82-1.93,3.49,3.49,0,0,0,1.14-2.21,1.12,1.12,0,0,0-.19-.68c-1.1-.24-1.66.21-2.24,1.11A13.87,13.87,0,0,0,220.61,127.34Zm9.23-1.36a11.58,11.58,0,0,1,2-3,2.94,2.94,0,0,1,2-1.06,1.48,1.48,0,0,1,1.21.53,2.19,2.19,0,0,1,.44,1.44,3.75,3.75,0,0,1-.07.73l-.19.81-1.39,4.3-.19.87c.75.53,1.11.31,1.47-.14a10.69,10.69,0,0,0,1.27-2.2,4.5,4.5,0,0,1-1.11,2.67,2.27,2.27,0,0,1-1.65.74,1.21,1.21,0,0,1-1-.38,1.62,1.62,0,0,1-.34-1.11,4,4,0,0,1,.1-.79,9.39,9.39,0,0,1,.33-1.09l1.12-3.33a6.93,6.93,0,0,0,.27-.91,3.36,3.36,0,0,0,.09-.72c-.31-.77-.47-.84-.69-.84-.71,0-1.46.63-2.26,1.88a22,22,0,0,0-2.27,5.22l-.56,1.78H227l1.12-3.75a24.37,24.37,0,0,0,.63-2.56,11.49,11.49,0,0,0,.23-1.88c-.74-.6-1.07-.37-1.41.09a12.23,12.23,0,0,0-1.19,2.3,4.54,4.54,0,0,1,1-2.81,2.17,2.17,0,0,1,1.65-.85,1,1,0,0,1,.88.42,2.13,2.13,0,0,1,.3,1.23,6.11,6.11,0,0,1-.09,1Zm10.69-7H242l-1,3.47h1.63l-1.78.5-1.62,5.49-.27,1.09a4.07,4.07,0,0,0-.09.72c.88.64,1.2.42,1.52,0a11.66,11.66,0,0,0,1.12-2.16,4.28,4.28,0,0,1-1,2.73,2.14,2.14,0,0,1-1.64.78,1.44,1.44,0,0,1-1.07-.39,1.39,1.39,0,0,1-.4-1.06,4.63,4.63,0,0,1,.07-.67l.23-.87,1.66-5.66h-1.5l1.65-.5Zm5.17,6.28.84,1.09a5.83,5.83,0,0,1,.79,1.29,3.05,3.05,0,0,1,.25,1.21,2.5,2.5,0,0,1-.89,2,3.47,3.47,0,0,1-2.34.76,3,3,0,0,1-1.71-.44,1.3,1.3,0,0,1-.65-1.13c.32-.71.47-.79.65-.79.53.34.58.51.58.73-.06.82.07,1,.32,1.07a2.48,2.48,0,0,0,1,.16,2,2,0,0,0,1.38-.45,1.51,1.51,0,0,0,.51-1.2,2.24,2.24,0,0,0-.21-.93,8.49,8.49,0,0,0-.94-1.41l-.82-1.06a3,3,0,0,1-.49-.88,2.6,2.6,0,0,1-.18-.93,2.32,2.32,0,0,1,.79-1.77,2.81,2.81,0,0,1,2-.72,2.47,2.47,0,0,1,1.37.36,1.05,1.05,0,0,1,.55.87c-.75.63-.88.58-1,.48l-.11-.82c-.43-.44-.65-.49-.92-.49a1.65,1.65,0,0,0-1.12.38,1.27,1.27,0,0,0-.43,1A4.12,4.12,0,0,0,245.7,125.27Zm-213-20.68a6.5,6.5,0,0,0,2.63-.6,3.19,3.19,0,0,0,1.52-2,16.55,16.55,0,0,0,.35-3.88V76.3H29.71V72.2H37.2V67a37.56,37.56,0,0,1,.36-5.26,18.83,18.83,0,0,1,1.65-5.35A14.53,14.53,0,0,1,43.54,51a17,17,0,0,1,5.88-2.9,23.47,23.47,0,0,1,6.33-.89,17.42,17.42,0,0,1,8.08,1.56,9.18,9.18,0,0,1,4.06,3.57A7.93,7.93,0,0,1,69,56a5,5,0,0,1-1.78,4,5.66,5.66,0,0,1-3.79,1.52,4.51,4.51,0,0,1-4-1.83,15.17,15.17,0,0,1-2-4.73q-1.08-3.66-4.24-3.66-3,0-3.75,2.27a24.28,24.28,0,0,0-.71,6.88V72.2h27V96.77q0,7.58,5.84,7.58c2.23,0,9-.45,9.23-7V82.68a15.6,15.6,0,0,0-.35-4,2.64,2.64,0,0,0-1.7-1.77,12,12,0,0,0-4.59-.63V72.2h18.15V99a9,9,0,0,0,.4,3.12,3,3,0,0,0,1.83,1.61,17.38,17.38,0,0,0,4.27.82h4.23a10.7,10.7,0,0,0,3-.47,2.9,2.9,0,0,0,1.83-1.82,14.62,14.62,0,0,0,.45-4.19V83.7c0-2.08-.4-3.43-1.2-4.06s-2.59-1-5.35-1V74.56l17.34-3.83a31.06,31.06,0,0,1,.4,4.81l0,1v.93a29.37,29.37,0,0,1,5.84-4.86,13.94,13.94,0,0,1,7.58-1.91,16.4,16.4,0,0,1,6.87,1.38,10.64,10.64,0,0,1,4.82,4.19,12.61,12.61,0,0,1,1.73,6.78v15c0,2.49.34,4.2,1,5.12s1.94,1.25,4.05,1.36h5.38a21.28,21.28,0,0,1-3.45-4.52A21,21,0,0,1,161.8,83a18.53,18.53,0,0,1,3.61-6.2,17.24,17.24,0,0,1,6.16-4.46,20.54,20.54,0,0,1,8.34-1.6,18.23,18.23,0,0,1,5.88.84,14.37,14.37,0,0,1,3.93,2,25.25,25.25,0,0,1,3,2.59V61.5a13.59,13.59,0,0,0-.48-4.29,2.62,2.62,0,0,0-1.88-1.65,21.49,21.49,0,0,0-4.41-.44V51l18.29-3.84V97.12a24.82,24.82,0,0,0,.26,4.46,2.61,2.61,0,0,0,1.65,1.83,13.76,13.76,0,0,0,4.06.64l-.29-7.51h3.75a10.85,10.85,0,0,0,4.5,5.4q3.53,2.36,10.22,2.36a32.2,32.2,0,0,0,3.65-.22,9.49,9.49,0,0,0,3.75-1.38,3.75,3.75,0,0,0,1.82-3.44,3,3,0,0,0-1.87-2.9,39.09,39.09,0,0,0-6.91-2.23c-4.1-1-7.46-2-10.08-2.94a18.54,18.54,0,0,1-6.65-4.06,9,9,0,0,1-2.72-6.77A9.49,9.49,0,0,1,214.18,72q4.86-3.08,12.71-3.08a31.13,31.13,0,0,1,7.85.8,32.49,32.49,0,0,1,4.95,1.74l1.07-2.27h3.57V79.55h-3.66a6.77,6.77,0,0,0-2.23-3.34,11.77,11.77,0,0,0-4.63-2.32,24,24,0,0,0-6.65-.85,29.36,29.36,0,0,0-6.24.67c-2.06.45-3.08,1.51-3.08,3.17a2.52,2.52,0,0,0,.57,1.69,5.79,5.79,0,0,0,2.1,1.25,49.92,49.92,0,0,0,5.18,1.52l4.41,1.11A47.26,47.26,0,0,1,242,87q4.66,2.68,4.67,9.37c0,2.56-.93,6.21-2.47,8l1.29.24v3.94H30l-.29-3.91Zm-2.7,0,1.72,0,1,0Zm23.16,0H65.77a9,9,0,0,1-.87-2.29,30.37,30.37,0,0,1-.67-6.47V82.68a16.8,16.8,0,0,0-.31-3.84A2.8,2.8,0,0,0,62.27,77c-.89-.45-3.65-.67-5.7-.67H48.71V98.11A20.4,20.4,0,0,0,49,102,2.88,2.88,0,0,0,50.36,104,6.71,6.71,0,0,0,53.16,104.59Zm81.19,0h6a6.36,6.36,0,0,0,2.74-.64,3.07,3.07,0,0,0,1.43-2,26.57,26.57,0,0,0,.26-4.42V84.86a13.4,13.4,0,0,0-1.11-6c-.75-1.48-2.26-2.22-4.55-2.22a7.74,7.74,0,0,0-7,3.61,15,15,0,0,0-2.28,8.25v10c0,2.35.34,4,1,4.82S132.63,104.48,134.35,104.59ZM192.7,98.9V81.48c-.21-2.15-3.9-6.44-10.61-5.81a8.82,8.82,0,0,0-7.18,4.14c-1.3,2-2,5.32-2,10s.92,8.34,2.77,10.75a8.88,8.88,0,0,0,6.95,3.61C185.48,104.35,191.63,104.11,192.7,98.9ZM97.79,47.45,92.25,34.26,86.77,47.45ZM77.11,59.75v-.86a3.85,3.85,0,0,0,2.76-1.41A37.3,37.3,0,0,0,83.05,51L93,27.49H94l11.93,27.17a11.77,11.77,0,0,0,1.9,3.36,4.68,4.68,0,0,0,2.41.87v.86H98v-.86a11.55,11.55,0,0,0,2.72-.45c.41-.18.61-.63.61-1.33a5.7,5.7,0,0,0-.24-1.24,13.09,13.09,0,0,0-.65-1.87l-2-4.61H85.93q-1.87,4.7-2.24,5.75a5.37,5.37,0,0,0-.36,1.64,1.72,1.72,0,0,0,1,1.69,8.27,8.27,0,0,0,2.29.42v.86ZM123.2,38.18v1.69h-4.77l-.05,13.47a9.07,9.07,0,0,0,.3,2.69,2.17,2.17,0,0,0,2.21,1.62,2.57,2.57,0,0,0,1.45-.4A7.49,7.49,0,0,0,123.76,56l.1,1.22a7.61,7.61,0,0,1-2.58,2.31,5.87,5.87,0,0,1-2.62.68,3.68,3.68,0,0,1-3.74-2.46,10.13,10.13,0,0,1-.54-3.69V39.87h-2.55c-.23-.49-.21-.6-.14-.68l.68-.61a18.62,18.62,0,0,0,2.31-2.15q.73-.84,3.37-4.4l.42,6.15Zm2.11,20.92a5.54,5.54,0,0,0,2.94-.87,3.4,3.4,0,0,0,.78-2.62V32.76a6,6,0,0,0-.26-2.13,1.87,1.87,0,0,0-1.89-1,4,4,0,0,0-.73.08l-1,.21v-.78c2.11-.56,4.64-1.31,7.61-2.24a1,1,0,0,1,.23.75V55.71c0,1.35.23,2.24.7,2.64a5.59,5.59,0,0,0,2.9.75l-11.32.65Zm26.06-12.31a21.71,21.71,0,0,0-4.44,2q-3.37,2.09-3.37,4.72a3.61,3.61,0,0,0,1.4,3.14,3.4,3.4,0,0,0,2,.65,5.46,5.46,0,0,0,2.94-.86,2.55,2.55,0,0,0,1.43-2.2Zm-8.59,2.64a51.67,51.67,0,0,1,8.59-3.8v-2a8.08,8.08,0,0,0-.47-3.33c-.52-1-1.63-1.56-3.29-1.56a4.56,4.56,0,0,0-2.27.6,1.94,1.94,0,0,0-1.08,1.74,6.4,6.4,0,0,0,.12.95l.11.85a2,2,0,0,1-.86,1.82,2.21,2.21,0,0,1-1.17.3,2,2,0,0,1-1.61-.67,2.4,2.4,0,0,1-.57-1.55c0-1.09.67-2.23,2-3.41a8.68,8.68,0,0,1,5.94-1.8q4.53,0,6.15,2.94a10.18,10.18,0,0,1,.87,4.71V54.6a6.54,6.54,0,0,0,.18,1.88,1.23,1.23,0,0,0,1.27.91,2.15,2.15,0,0,0,.89-.16,9.34,9.34,0,0,0,1.21-.8v1.22a7.22,7.22,0,0,1-1.61,1.49,4.69,4.69,0,0,1-2.67.89,2.63,2.63,0,0,1-2.31-1,4.72,4.72,0,0,1-.78-2.46,21.82,21.82,0,0,1-3,2.29,8,8,0,0,1-4.05,1.26,4.89,4.89,0,0,1-3.49-1.4,4.79,4.79,0,0,1-1.46-3.6C139.4,52.84,140.52,51,142.78,49.43Zm18.61,3h.77a12.22,12.22,0,0,0,1.45,4.1,5.3,5.3,0,0,0,4.79,2.62,3.86,3.86,0,0,0,2.77-1,3.34,3.34,0,0,0,1-2.53,3.45,3.45,0,0,0-.59-1.89,6,6,0,0,0-2.06-1.78l-2.62-1.5a14.94,14.94,0,0,1-4.24-3.11,5.46,5.46,0,0,1-1.35-3.69,5.53,5.53,0,0,1,1.87-4.31,6.79,6.79,0,0,1,4.71-1.68,8.83,8.83,0,0,1,2.71.47,14.19,14.19,0,0,0,1.69.46c.73-.2.84-.32.93-.49l.73,6.53h-.73A10.54,10.54,0,0,0,172,41.09a4.63,4.63,0,0,0-4.18-2.34,3.31,3.31,0,0,0-3.51,3.37c0,1.43,1.07,2.71,3.23,3.83l3.09,1.66q5,2.72,5,6.32a5.65,5.65,0,0,1-2.08,4.51,8.08,8.08,0,0,1-5.41,1.76,12.68,12.68,0,0,1-3.18-.47,14.6,14.6,0,0,0-2.11-.47c-.63.34-.73.49-.82.68Z" fill="#2d2b7f"/></svg>