<svg id="Layer_1" data-name="Layer 1" xmlns="http://www.w3.org/2000/svg" viewBox="0 0 150 150"><title>Guest Navigation</title><path id="Contact_US" data-name="Contact US" d="M138.49,10.21H29.72c-6.34,0-11.51,4.61-11.51,10.27V31a8.9,8.9,0,0,0-1,.52L7.73,37.56A15.31,15.31,0,0,0,1,46.79v0c-3.25,13.23,0,35.72,33.72,67.71,12,11.37,23.48,19.78,34.15,25,8.84,4.33,17.2,6.53,24.85,6.53a36.1,36.1,0,0,0,10.44-1.5h0a15.33,15.33,0,0,0,8.85-7.22l5.55-9.83a8.38,8.38,0,0,0-2.85-11.22L92.14,101.46a8.43,8.43,0,0,0-11.22,2.14l-6.51,8.85,0,0a1.23,1.23,0,0,1-1.57.37c-.43-.23-.87-.45-1.33-.68-3.8-1.94-8.49-4.34-17.32-12.34h84.32c6.35,0,11.51-4.61,11.51-10.27V20.48C150,14.82,144.84,10.21,138.49,10.21Zm4,11.5V88.33L105.16,55ZM31.12,16.94h106L84.35,64.08Zm57.23,90.55,23.59,14.82a1.28,1.28,0,0,1,.43,1.7l-5.55,9.85,0,0a8.26,8.26,0,0,1-4.74,3.88c-6.18,1.87-13.34,1.52-21.29-1-12.37-4-26.22-13.19-41.17-27.36-3.82-3.62-7.36-7.24-10.52-10.75A133.81,133.81,0,0,1,19.46,86.7a77.65,77.65,0,0,1-9.38-17c-3-7.8-3.72-14.93-2.19-21.19a8.23,8.23,0,0,1,3.63-5l9.55-6.08a1.29,1.29,0,0,1,1.73.33L38.86,60.59a1.27,1.27,0,0,1-.23,1.71l-8.48,7A8.35,8.35,0,0,0,28.23,80c.19.31.37.62.55.94l.15.26c.6,1,1.22,2.09,2,3.29,1,1.63,2.13,3.19,3.36,4.78s2.6,3.22,4.18,5,3.27,3.5,5.17,5.38c.85.84,1.77,1.73,2.73,2.64,11.52,10.93,17.29,13.87,21.92,16.24l.3.15,1,.5a8.35,8.35,0,0,0,10.6-2.49l6.51-8.85A1.28,1.28,0,0,1,88.35,107.49ZM36,79.19c-.31-.53-.61-1-.9-1.55l-.73-1.25a1.23,1.23,0,0,1,.29-1.6l8.5-7a8.44,8.44,0,0,0,1.53-11.32L28.61,33.73a8.34,8.34,0,0,0-2.85-2.53V21.68L63.23,54.86ZM68.59,59.6,81.7,71.21a4.11,4.11,0,0,0,5.34,0L99.83,59.78l37.3,33.32h-90a94.31,94.31,0,0,1-7.12-8Z" fill="#222"/></svg>