<svg id="Layer_1" data-name="Layer 1" xmlns="http://www.w3.org/2000/svg" viewBox="0 0 352.84 278.96"><title>Navigation Home Btton ICON</title><path d="M130.55,71.71q7.59-4.71,15.57-9.12C227.79,17.51,307.56,15.4,324.3,57.86c8.35,21.2-.59,49.51-21.79,78.14,15.54-23.29,21.78-46.59,15.41-65.61-14.45-43.16-88.33-48-165-10.74-7.72,3.75-15.18,7.79-22.34,12.06Z" fill="#fff"/><path d="M167.4,176.35V96.18c45.37,0,86.39-19.53,115.85-51l-2.48,8.34c-28,27.39-65,44.75-105.86,46.66v82.92l-7.51-6.73Zm11.27,10.1V108.28a168.72,168.72,0,0,0,97.65-39.76l-2.26,7.1a172.41,172.41,0,0,1-87.88,36.16v81.4l-7.51-6.73Zm11.26,10.09V119.69a179.92,179.92,0,0,0,80.41-31.15l-1.78,6.16a183.18,183.18,0,0,1-71.12,28.11v80.47l-7.51-6.74Zm11.27,10.1V130.57a191,191,0,0,0,63.86-24l-1.65,5.71a194.78,194.78,0,0,1-54.7,21v80.08l-7.51-6.73Zm11.26,10.1V141a201.56,201.56,0,0,0,47.62-17.5l-1.59,5.42A206,206,0,0,1,220,143.38v80.09l-7.51-6.73Zm-139-97.94a198.24,198.24,0,0,0,45.43,17.74V220.1l-3.81,3.37v-80A206.27,206.27,0,0,1,76.3,128.88L73.45,118.8ZM68.7,102.87a189.11,189.11,0,0,0,61.49,24.47V210l-3.77,3.36V134.24a194.6,194.6,0,0,1-54.48-20.62L68.7,102.87ZM63.56,85.76a178.27,178.27,0,0,0,77.94,31.67v82.48l-3.77,3.37V124.61A185.1,185.1,0,0,1,67,97.28L63.56,85.76ZM58,67a168.33,168.33,0,0,0,94.79,40.11v82.73L149,193.18V114.41A174.5,174.5,0,0,1,61.85,79.78L58,67ZM51.55,45.16c28.72,30.7,68.56,50.07,112.57,51v83.54l-3.77,3.36V103.77C120.48,102.05,84.09,85.85,55.94,60.1L51.55,45.16Z" fill="#fff" fill-rule="evenodd"/><path d="M28.55,221.09c-9.68-24.56,3.85-58.66,32.78-91.76C39.57,157.41,30,186.36,38.07,209c14.6,41.2,82,47,154.23,14.87-76.44,37.64-148,37.15-163.75-2.81Z" fill="#fff"/></svg>