<svg id="Layer_1" data-name="Layer 1" xmlns="http://www.w3.org/2000/svg" viewBox="0 0 150 150"><title>Guest Navigation</title><g id="NAV"><path d="M17.77,115.67a2.79,2.79,0,0,1,2.79-2.79H31.12a2.8,2.8,0,0,1,2.79,2.79v12.17h6.25V115.67a9.06,9.06,0,0,0-9-9H20.56a9.06,9.06,0,0,0-9,9v12.17h6.25Z" fill="#000"/><path d="M73.25,127.84V89.14a9,9,0,0,0-9-9H53.66a9,9,0,0,0-9,9v38.7h6.25V89.14a2.79,2.79,0,0,1,2.79-2.79H64.21A2.79,2.79,0,0,1,67,89.14v38.7Z" fill="#000"/><path d="M106.35,127.84V102.41a9.06,9.06,0,0,0-9-9H86.75a9.06,9.06,0,0,0-9,9v25.43H84V102.41a2.8,2.8,0,0,1,2.79-2.8H97.3a2.81,2.81,0,0,1,2.8,2.8v25.43Z" fill="#000"/><path d="M119.85,54.58a9,9,0,0,0-9,9v64.22h6.25V63.62a2.79,2.79,0,0,1,2.79-2.79H130.4a2.79,2.79,0,0,1,2.79,2.79v64.22h6.25V63.62a9.06,9.06,0,0,0-9-9Z" fill="#000"/><rect y="131.64" width="150" height="6.25" fill="#000"/><polygon points="57.04 51.51 84.82 72.56 127.55 32.71 127.55 45.09 133.8 45.09 133.8 21.92 110.63 21.92 110.63 28.16 123.27 28.16 84.4 64.4 56.99 43.62 11.63 79.07 15.47 84 57.04 51.51" fill="#000"/></g></svg>