<svg id="Layer_1" data-name="Layer 1" xmlns="http://www.w3.org/2000/svg" viewBox="0 0 150 150"><title>Guest Navigation</title><g id="News"><path d="M146.79,34.42h-9.63V19A3.21,3.21,0,0,0,134,15.74h-9.64V3.19A3.21,3.21,0,0,0,121.11,0H3.19A3.21,3.21,0,0,0,0,3.19V134A16.07,16.07,0,0,0,16,150H134A16.07,16.07,0,0,0,150,134V37.63A3.21,3.21,0,0,0,146.79,34.42ZM121.12,143.58H16A9.64,9.64,0,0,1,6.4,134V6.4H117.9V134A16.09,16.09,0,0,0,121.12,143.58ZM134,134.24a3.21,3.21,0,0,0,3.21-3.21V40.84h6.42V134a9.64,9.64,0,0,1-19.27,0V22.16h6.43V131A3.21,3.21,0,0,0,134,134.24Z" fill="#222"/><path d="M70,58.77H101a3.21,3.21,0,1,0,0-6.42H70a3.21,3.21,0,1,0,0,6.42Z" fill="#222"/><path d="M70,44.76H101a3.21,3.21,0,1,0,0-6.42H70a3.21,3.21,0,1,0,0,6.42Z" fill="#222"/><path d="M70,72.78H101a3.21,3.21,0,1,0,0-6.42H70a3.21,3.21,0,1,0,0,6.42Z" fill="#222"/><path d="M70,86.79H101a3.21,3.21,0,1,0,0-6.42H70a3.21,3.21,0,1,0,0,6.42Z" fill="#222"/><path d="M70,100.8H101a3.21,3.21,0,1,0,0-6.42H70a3.21,3.21,0,1,0,0,6.42Z" fill="#222"/><path d="M70,114.81H101a3.21,3.21,0,1,0,0-6.42H70a3.21,3.21,0,1,0,0,6.42Z" fill="#222"/><path d="M107.09,124.32H17.2a3.21,3.21,0,1,0,0,6.42h89.89a3.21,3.21,0,0,0,0-6.42Z" fill="#222"/><path d="M107.09,19.42H17.2a3.21,3.21,0,0,0,0,6.42h89.89a3.21,3.21,0,0,0,0-6.42Z" fill="#222"/><path d="M63.26,40.26H15.41v74H63.26ZM58,109H20.65V45.5H58Z" fill="#222"/></g></svg>