<svg id="Layer_1" data-name="Layer 1" xmlns="http://www.w3.org/2000/svg" viewBox="0 0 150 150"><title>Guest Navigation</title><g id="Returns"><path d="M146.64,86.76l-10.16,6.13a68.57,68.57,0,0,0,1.62-9h0a68.54,68.54,0,0,0,.24-13,1.94,1.94,0,0,0,0-.24c0-.2,0-.4,0-.6a68.6,68.6,0,0,0-5-20.41l-.09-.22c-.05-.12-.1-.23-.14-.35l0-.1a68.38,68.38,0,0,0-6.73-12.26A69.34,69.34,0,0,0,83.59,8.29h0l-.68-.15-.13,0L82.37,8l-.2,0a69,69,0,0,0-19.72-.86l-.24,0h-.14A68.59,68.59,0,0,0,42.88,12l-.2.09c-.12.05-.24.09-.36.15l-.11,0-.66.29h0A69.46,69.46,0,0,0,5.46,49.11a69.24,69.24,0,0,0-4,12.65v0c-.05.23-.09.46-.14.69l0,.12c0,.13-.05.26-.07.39s0,.13,0,.2A68.53,68.53,0,0,0,.35,82.93c0,.06,0,.13,0,.19l0,.19a68.39,68.39,0,0,0,4.84,19.16,1.67,1.67,0,0,0,.08.2l.15.36a1.17,1.17,0,0,0,0,.11l.28.66h0a69.44,69.44,0,0,0,36.53,36.08,68.48,68.48,0,0,0,12.63,4l.07,0,.64.13.13,0,.46.08.12,0a68.51,68.51,0,0,0,12.84,1.21A69.34,69.34,0,0,0,83.3,143.9L82,137.54a63,63,0,0,1-12.7,1.31h0A62.88,62.88,0,0,1,9.35,94.73a59.63,59.63,0,0,1-1.53-6Q7.34,86.47,7,84.16H7l0-.3A62.81,62.81,0,0,1,50.62,16.14c2-.6,3.93-1.11,6-1.53,1.53-.32,3.08-.58,4.62-.78h0l.3,0a62.81,62.81,0,0,1,67.71,43.63q.9,2.92,1.53,5.95c.34,1.64.61,3.28.82,4.93h0c0,.32.08.63.11,1a63.25,63.25,0,0,1-1.34,21.44l-4.2-10.09-6,2.49,9.06,21.78L150,92.32Z" fill="#222"/><polygon points="43.13 66.14 43.13 90.57 34.34 90.57 34.34 96.03 100.73 96.03 100.73 90.57 91.93 90.57 91.93 42.74 81.78 42.74 81.78 90.57 72.61 90.57 72.61 55.74 62.46 55.74 62.46 90.57 53.28 90.57 53.28 66.14 43.13 66.14" fill="#222"/><path d="M111.36,101.53c-5.9,0-12.16,2.62-12.16,7.48v5.88a1.27,1.27,0,1,0,2.44,0v-1.26c2.24,1.77,5.92,2.86,9.72,2.86s7.47-1.09,9.71-2.86v1.26c0,1.39-2.66,3.61-7.63,4.17a1.54,1.54,0,0,0-1.12,1.73,1.41,1.41,0,0,0,1.22,1.47h.11a14.8,14.8,0,0,0,7.42-2.77v1.29c0,1.21-1.95,3-5.56,3.81a1.63,1.63,0,0,0-1,1.85,1.37,1.37,0,0,0,1.21,1.32.75.75,0,0,0,.22,0,12.91,12.91,0,0,0,5.12-2.33v1.25c0,1.21-1.95,3-5.56,3.81a1.63,1.63,0,0,0-1,1.85,1.38,1.38,0,0,0,1.21,1.33.73.73,0,0,0,.22,0,13,13,0,0,0,5.12-2.33v1.26c0,1.2-1.95,3-5.56,3.8a1.63,1.63,0,0,0-1,1.85,1.38,1.38,0,0,0,1.21,1.33.73.73,0,0,0,.22,0,13,13,0,0,0,5.12-2.33v1.26c0,1.39-2.66,3.61-7.63,4.17a1.53,1.53,0,0,0-1.12,1.72,1.4,1.4,0,0,0,1.22,1.47h.11c4.91-.56,9.86-3.05,9.86-7.36V109C123.51,104.15,117.25,101.53,111.36,101.53Zm0,11.76c-5.93,0-9.72-2.54-9.72-4.28s3.79-4.28,9.72-4.28,9.71,2.53,9.71,4.28S117.28,113.29,111.36,113.29Z" fill="#222"/><path d="M112.58,126.65c0-4.86-6.27-7.48-12.16-7.48s-12.16,2.62-12.16,7.48v11.77c0,4.86,6.27,7.48,12.16,7.48s12.16-2.62,12.16-7.48Zm-2.45,11.77c0,1.74-3.78,4.28-9.71,4.28s-9.71-2.54-9.71-4.28v-1.26c2.23,1.77,5.92,2.86,9.71,2.86s7.48-1.09,9.71-2.86Zm0-5.88c0,1.74-3.78,4.28-9.71,4.28s-9.71-2.54-9.71-4.28v-1.26c2.23,1.77,5.92,2.86,9.71,2.86s7.48-1.09,9.71-2.86Zm-9.71-1.6c-5.93,0-9.71-2.54-9.71-4.29s3.78-4.28,9.71-4.28,9.71,2.54,9.71,4.28S106.35,130.94,100.42,130.94Z" fill="#222"/></g></svg>