<svg id="OBJECTS" xmlns="http://www.w3.org/2000/svg" viewBox="0 0 95.5695 100"><defs><style>.cls-1{opacity:0.5;}.cls-2{fill:#d9d9d6;}.cls-3{fill:#2d2b7f;}.cls-4{fill:#fff;}</style></defs><title>Login</title><g class="cls-1"><path class="cls-2" d="M13.2708,92.6284a.297.297,0,0,1-.2968-.2968V7.6683a.2968.2968,0,1,1,.5935,0V92.3316A.2969.2969,0,0,1,13.2708,92.6284Z"/><path class="cls-2" d="M27.0765,92.6284a.2969.2969,0,0,1-.2967-.2968V7.6683a.2968.2968,0,1,1,.5935,0V92.3316A.2969.2969,0,0,1,27.0765,92.6284Z"/><path class="cls-2" d="M40.8825,92.6284a.2969.2969,0,0,1-.2968-.2968V7.6683a.2968.2968,0,1,1,.5936,0V92.3316A.297.297,0,0,1,40.8825,92.6284Z"/><path class="cls-2" d="M54.6877,92.6284a.297.297,0,0,1-.2968-.2968V7.6683a.2968.2968,0,0,1,.5936,0V92.3316A.297.297,0,0,1,54.6877,92.6284Z"/><path class="cls-2" d="M68.4935,92.6284a.297.297,0,0,1-.2968-.2968V7.6683a.2968.2968,0,1,1,.5936,0V92.3316A.297.297,0,0,1,68.4935,92.6284Z"/><path class="cls-2" d="M82.2988,92.6284a.297.297,0,0,1-.2968-.2968V7.6683a.2968.2968,0,0,1,.5936,0V92.3316A.297.297,0,0,1,82.2988,92.6284Z"/><path class="cls-2" d="M86.5445,15.7827H9.0251a.2968.2968,0,0,1,0-.5936H86.5445a.2968.2968,0,0,1,0,.5936Z"/><path class="cls-2" d="M86.5445,29.5886H9.0251a.2969.2969,0,0,1,0-.5937H86.5445a.2969.2969,0,0,1,0,.5937Z"/><path class="cls-2" d="M86.5445,43.3944H9.0251a.2968.2968,0,1,1,0-.5936H86.5445a.2968.2968,0,0,1,0,.5936Z"/><path class="cls-2" d="M86.5445,57.2H9.0251a.2968.2968,0,1,1,0-.5936H86.5445a.2968.2968,0,0,1,0,.5936Z"/><path class="cls-2" d="M86.5445,71.0049H9.0251a.2968.2968,0,1,1,0-.5935H86.5445a.2968.2968,0,0,1,0,.5935Z"/><path class="cls-2" d="M86.5445,84.8107H9.0251a.2968.2968,0,1,1,0-.5936H86.5445a.2968.2968,0,0,1,0,.5936Z"/></g><polygon class="cls-3" points="0 12.658 2.268 12.658 2.268 2.268 12.658 2.268 12.658 0 0 0 0 12.658"/><polygon class="cls-3" points="82.911 0 82.911 2.268 93.302 2.268 93.302 12.658 95.57 12.658 95.57 0 82.911 0"/><polygon class="cls-3" points="93.302 97.732 82.911 97.732 82.911 100 95.57 100 95.57 87.342 93.302 87.342 93.302 97.732"/><polygon class="cls-3" points="2.268 87.342 0 87.342 0 100 12.658 100 12.658 97.732 2.268 97.732 2.268 87.342"/><path class="cls-3" d="M63.8362,20.7588A19.0879,19.0879,0,0,0,59.5974,16c-3.3572-2.7031-8.75-4.61-12.38-2.7456-3.63-1.8649-9.0232.0425-12.38,2.7456a19.09,19.09,0,0,0-4.2387,4.7593A23.7768,23.7768,0,0,0,26.91,32.7414c-.04,2.198,4.2764,12.2826,5.1794,13.2184,1.6289,1.6879,3.96,4.0628,6.33,4.5337l.0969.0191,8.7007-7.3244,8.7008,7.3244.0969-.0191c2.37-.4709,4.7008-2.8458,6.33-4.5337.9031-.9358,5.2193-11.02,5.1795-13.2184A23.78,23.78,0,0,0,63.8362,20.7588Z"/><path class="cls-4" d="M55.9773,55.45l-8.2411-3.5-8.2412,3.5s1.0161,12.531-3.0481,15.4662c0,0,2.9352,9.37,11.2893,9.37s11.2892-9.37,11.2892-9.37C54.9612,67.9807,55.9773,55.45,55.9773,55.45Z"/><path class="cls-4" d="M44.1235,70.1c4.0052-2.9365,8.4473-4.6491,11.8416-8.2077a48.9766,48.9766,0,0,1,.0122-6.4426l-8.2411-3.5-8.2412,3.5s1.0161,12.531-3.048,15.4662a11.9894,11.9894,0,0,0,4.5481,4.7768A6.6,6.6,0,0,1,44.1235,70.1Z"/><path class="cls-3" d="M33.6394,42.205s-1.7477-1.66-2.8358-.8325a2.0153,2.0153,0,0,0-.4763,2.3646c1.383,3.5,1.75,6.1059,3.0432,6.6414,1.0347.4285,2.5084-.9594,2.5084-.9594Z"/><path class="cls-3" d="M34.5326,47.8576c-.1976-5.1022-3.2252-5.1022-3.2252-5.1022a5.4431,5.4431,0,0,1,1.1367,2.8362,10.22,10.22,0,0,1,.1693,1.8158C32.3594,49.6545,34.608,49.8043,34.5326,47.8576Z"/><path class="cls-3" d="M61.8333,42.205s1.7477-1.66,2.8358-.8325a2.0152,2.0152,0,0,1,.4762,2.3646c-1.3829,3.5-1.75,6.1059-3.043,6.6414-1.0349.4285-2.5085-.9594-2.5085-.9594Z"/><path class="cls-3" d="M60.94,47.8576c.1976-5.1022,3.2252-5.1022,3.2252-5.1022a5.4413,5.4413,0,0,0-1.1366,2.8362,10.1921,10.1921,0,0,0-.1694,1.8158C63.1132,49.6545,60.8648,49.8043,60.94,47.8576Z"/><path class="cls-4" d="M47.7362,19.0983s-9.1443-1.2418-16.3694,4.177c0,0,.6773,23.03,2.9352,28.6747S44.9138,64.7068,47.7362,64.7068,58.9125,57.5946,61.17,51.95s2.9352-28.6747,2.9352-28.6747C56.8805,17.8565,47.7362,19.0983,47.7362,19.0983Z"/><path class="cls-3" d="M47.7362,16.1456C25.7553,16.03,29.65,32.1763,29.65,32.1763c11.54-.2948,16.2016-5.59,18.0862-10.0134,1.8845,4.4231,6.5465,9.7186,18.0863,10.0134C65.8225,32.1763,69.717,16.03,47.7362,16.1456Z"/><path class="cls-3" d="M76.087,71.4239c-4.177-3.6126-18.1192-1.75-18.1192-1.75a9.84,9.84,0,0,1-2.2417,4.4831,10.687,10.687,0,0,1-15.98,0,9.839,9.839,0,0,1-2.2417-4.4831s-13.9422-1.8628-18.1192,1.75-6.83,10.4426-7.1123,15.9178H83.1992C82.9169,81.8665,80.264,75.0365,76.087,71.4239Z"/><path class="cls-3" d="M64.2667,31.2792l-1.6136-1.0326c-.1384,2.4967-.462,6.7866-.7024,9.5831a41.8651,41.8651,0,0,1-3.2629,12.12c-.0555.1388-.13.2816-.193.422-.5434.3779-1.0915.7484-1.6416,1.1068a27.949,27.949,0,0,0-18.234,0q-.75-.4883-1.4923-1.0028c-.0805-.1754-.1714-.353-.2406-.526a41.8619,41.8619,0,0,1-3.2629-12.12c-.24-2.7965-.564-7.0864-.7025-9.5831l-1.6135,1.0326a119.0288,119.0288,0,0,0,2.374,18.6463c-.0189-.015-.0391-.03-.058-.0453.4128,4.4332.9831,11.4044,1.7541,13.3319,2.077,5.1927,9.7623,8.8961,12.3587,8.8961s10.2816-3.7034,12.3587-8.8961c.7514-1.8786,1.3118-8.5414,1.722-12.9829C62.9724,45.854,63.919,37.5474,64.2667,31.2792ZM41.3879,55.1768c2.2733-1.3329,6.3483-1.4458,6.3483-1.4458s4.075.1129,6.3482,1.4458c-2.601,1.485-4.9585,2.4977-6.3482,2.4977S43.989,56.6618,41.3879,55.1768Z"/></svg>