<svg id="OBJECTS" xmlns="http://www.w3.org/2000/svg" viewBox="0 0 91.7877 91.7881"><defs><style>.cls-1{fill:#2f2f7e;}</style></defs><title>Login</title><path class="cls-1" d="M63.0888,46.7338a6.6418,6.6418,0,0,0-.1146-1.2087,6.3727,6.3727,0,0,0-5.6179-5.4023c0-1.55-.0054-3.0777,0-4.6056a15.1454,15.1454,0,0,0-.9085-5.2714,10.2188,10.2188,0,0,0-6.2373-6.6028,13.2714,13.2714,0,0,0-6.5073-.54,9.9438,9.9438,0,0,0-5.1923,2.2783,11.6893,11.6893,0,0,0-3.7489,6.742,22.1237,22.1237,0,0,0-.3738,3.5251c-.0627,1.4925-.0163,2.99-.0163,4.4611a13.2914,13.2914,0,0,0-1.4379.3656,5.9492,5.9492,0,0,0-1.3315.663,6.6749,6.6749,0,0,0-2.9,5.817q-.004,7.5387.0055,15.0775a9.29,9.29,0,0,0,.1473,1.6261,6.1754,6.1754,0,0,0,5.8662,5.17q11.1648.0206,22.3324.0028a5.2756,5.2756,0,0,0,2.8048-.7749,6.5111,6.5111,0,0,0,3.2223-5.8253C63.1216,57.0665,63.097,51.8988,63.0888,46.7338ZM49.6075,55.0256a5.3836,5.3836,0,0,1-.914.6466.6982.6982,0,0,0-.4011.7449c.0164,2.0136.0082,4.0245.0082,6.0353V63.02h-4.933v-.51c0-2.0572-.0055-4.1172.0082-6.1744a.6323.6323,0,0,0-.3493-.633,7.8064,7.8064,0,0,1-1.0941-.7913,4.6406,4.6406,0,0,1-.603-6.8866,5.5725,5.5725,0,0,1,5.5224-2.0163,5.4229,5.4229,0,0,1,4.4037,3.6152A4.5451,4.5451,0,0,1,49.6075,55.0256Zm2.0109-14.8891H40.1971a1.3422,1.3422,0,0,1-.0409-.232c.0027-1.9972-.0519-3.9971.0327-5.9916a5.1654,5.1654,0,0,1,2.2046-4.2919,5.9743,5.9743,0,0,1,3.9808-.9031,7.5812,7.5812,0,0,1,2.1773.4775,4.74,4.74,0,0,1,2.9331,3.9835,20.3655,20.3655,0,0,1,.1283,2.7994C51.632,37.3507,51.6184,38.72,51.6184,40.1365Z"/><path class="cls-1" d="M0,43.831c.0892-.9442.168-1.89.2691-2.8326a44.9292,44.9292,0,0,1,8.32-21.8122,45.8745,45.8745,0,0,1,59.462-13.45c.0925.0508.1869.0981.3122.1636L72.63,0c2.554,6.7139,5.082,13.36,7.6382,20.08L60.2358,17.14l4.692-6.4987A40.0488,40.0488,0,1,0,83.0363,30.6229l5.3312-2.1984c.5193,1.531,1.0682,3.0026,1.5188,4.5038A44.5,44.5,0,0,1,91.654,49.2554,45.0094,45.0094,0,0,1,81.0653,75.3383a45.7606,45.7606,0,0,1-39.1337,16.268,44.7617,44.7617,0,0,1-24.1651-9.4708A45.0065,45.0065,0,0,1,.8487,54.5706c-.3942-2.0131-.5194-4.0787-.77-6.12C.0579,48.2835.0264,48.1177,0,47.9513Z"/><path class="cls-1" d="M63.0888,46.7338a6.6418,6.6418,0,0,0-.1146-1.2087,6.3727,6.3727,0,0,0-5.6179-5.4023c0-1.55-.0054-3.0777,0-4.6056a15.1454,15.1454,0,0,0-.9085-5.2714,10.2188,10.2188,0,0,0-6.2373-6.6028,13.2714,13.2714,0,0,0-6.5073-.54,9.9438,9.9438,0,0,0-5.1923,2.2783,11.6893,11.6893,0,0,0-3.7489,6.742,22.1237,22.1237,0,0,0-.3738,3.5251c-.0627,1.4925-.0163,2.99-.0163,4.4611a13.2914,13.2914,0,0,0-1.4379.3656,5.9492,5.9492,0,0,0-1.3315.663,6.6749,6.6749,0,0,0-2.9,5.817q-.004,7.5387.0055,15.0775a9.29,9.29,0,0,0,.1473,1.6261,6.1754,6.1754,0,0,0,5.8662,5.17q11.1648.0206,22.3324.0028a5.2756,5.2756,0,0,0,2.8048-.7749,6.5111,6.5111,0,0,0,3.2223-5.8253C63.1216,57.0665,63.097,51.8988,63.0888,46.7338ZM49.6075,55.0256a5.3836,5.3836,0,0,1-.914.6466.6982.6982,0,0,0-.4011.7449c.0164,2.0136.0082,4.0245.0082,6.0353V63.02h-4.933v-.51c0-2.0572-.0055-4.1172.0082-6.1744a.6323.6323,0,0,0-.3493-.633,7.8064,7.8064,0,0,1-1.0941-.7913,4.6406,4.6406,0,0,1-.603-6.8866,5.5725,5.5725,0,0,1,5.5224-2.0163,5.4229,5.4229,0,0,1,4.4037,3.6152A4.5451,4.5451,0,0,1,49.6075,55.0256Zm2.0109-14.8891H40.1971a1.3422,1.3422,0,0,1-.0409-.232c.0027-1.9972-.0519-3.9971.0327-5.9916a5.1654,5.1654,0,0,1,2.2046-4.2919,5.9743,5.9743,0,0,1,3.9808-.9031,7.5812,7.5812,0,0,1,2.1773.4775,4.74,4.74,0,0,1,2.9331,3.9835,20.3655,20.3655,0,0,1,.1283,2.7994C51.632,37.3507,51.6184,38.72,51.6184,40.1365Z"/></svg>