<svg id="OBJECTS" xmlns="http://www.w3.org/2000/svg" viewBox="0 0 51.439 62.3806"><defs><style>.cls-1{fill:#2d2b7f;}</style></defs><title>Login</title><path class="cls-1" d="M46.3719,10.01V25.9252H38.6943V10.01a1.9675,1.9675,0,0,0-1.9195-2.0019H14.6638A1.9671,1.9671,0,0,0,12.7447,10.01V25.9252H5.0672V10.01A9.8384,9.8384,0,0,1,14.6638,0h22.111A9.8137,9.8137,0,0,1,46.3719,10.01Z"/><path class="cls-1" d="M46.8325,28.1875H4.6065A4.6874,4.6874,0,0,0,0,32.952V57.616a4.6875,4.6875,0,0,0,4.6065,4.7646h42.226A4.6875,4.6875,0,0,0,51.439,57.616V32.952A4.6874,4.6874,0,0,0,46.8325,28.1875ZM27.7446,49.6229v7.0714c0,1.2085-4.1522,1.2085-4.1522,0V49.6229a7.5534,7.5534,0,0,1-5.2265-7.2663A7.4644,7.4644,0,0,1,25.6685,34.74a7.4647,7.4647,0,0,1,7.3027,7.6167A7.5546,7.5546,0,0,1,27.7446,49.6229Z"/></svg>