<svg xmlns="http://www.w3.org/2000/svg" xmlns:xlink="http://www.w3.org/1999/xlink" viewBox="0 0 95.5695 100"><defs><style>.cls-1{fill:url(#radial-gradient);}.cls-2{fill:url(#radial-gradient-2);}.cls-3{fill:url(#radial-gradient-4);}.cls-4{fill:url(#radial-gradient-5);}.cls-5{fill:url(#radial-gradient-6);}.cls-6{fill:url(#radial-gradient-11);}.cls-7{fill:url(#radial-gradient-12);}.cls-8{fill:url(#radial-gradient-14);}.cls-9{fill:url(#radial-gradient-15);}.cls-10{fill:url(#radial-gradient-16);}.cls-11{isolation:isolate;}.cls-12{opacity:0.5;}.cls-13{fill:#d9d9d6;}.cls-14{mask:url(#mask);}.cls-15{fill:#2d2b7f;}.cls-16{mix-blend-mode:screen;}</style><radialGradient id="radial-gradient" cx="47.9303" cy="52.9188" r="38.0529" gradientUnits="userSpaceOnUse"><stop offset="0" stop-color="#fff"/><stop offset="1" stop-color="#fff"/></radialGradient><radialGradient id="radial-gradient-2" cx="47.9303" cy="52.9186" r="38.0527" xlink:href="#radial-gradient"/><radialGradient id="radial-gradient-4" cx="47.9304" cy="52.9186" r="38.0527" xlink:href="#radial-gradient"/><radialGradient id="radial-gradient-5" cx="47.9303" cy="52.9184" r="38.0528" xlink:href="#radial-gradient"/><radialGradient id="radial-gradient-6" cx="47.9303" cy="52.9186" r="38.0526" xlink:href="#radial-gradient"/><radialGradient id="radial-gradient-11" cx="47.9303" cy="52.9188" r="38.0529" gradientUnits="userSpaceOnUse"><stop offset="0" stop-color="#fff"/><stop offset="1"/></radialGradient><radialGradient id="radial-gradient-12" cx="47.9303" cy="52.9186" r="38.0527" xlink:href="#radial-gradient-11"/><radialGradient id="radial-gradient-14" cx="47.9304" cy="52.9186" r="38.0527" xlink:href="#radial-gradient-11"/><radialGradient id="radial-gradient-15" cx="47.9303" cy="52.9184" r="38.0528" xlink:href="#radial-gradient-11"/><radialGradient id="radial-gradient-16" cx="47.9303" cy="52.9186" r="38.0526" xlink:href="#radial-gradient-11"/><mask id="mask" x="19.1143" y="12.4462" width="57.341" height="75.1075" maskUnits="userSpaceOnUse"><path class="cls-1" d="M26.8538,29.6523A1.1869,1.1869,0,0,1,25.8167,27.89c3.5612-6.4287,10.5747-13.7955,19.5785-15.1913a22.3477,22.3477,0,0,1,16.1761,3.7981,1.1867,1.1867,0,1,1-1.3889,1.9246,20.2047,20.2047,0,0,0-14.4238-3.3762C37.603,16.31,31.1823,23.1041,27.8932,29.04A1.1844,1.1844,0,0,1,26.8538,29.6523Z"/><path class="cls-2" d="M47.7417,87.5537a25.9492,25.9492,0,0,1-4.3667-.3768A28.2719,28.2719,0,0,1,22.0766,70.4055c-4.4583-10.75-3.8618-24.9277,1.6371-38.8971a1.1873,1.1873,0,1,1,2.21.87C20.6477,45.78,20.0454,59.309,24.27,69.4965A25.8844,25.8844,0,0,0,43.7743,84.8374a21.9394,21.9394,0,0,0,18.7025-5.4259c7.504-6.6073,12.0453-18.1593,11.5706-29.4284C73.11,27.737,63.2953,21.53,63.1963,21.4694a1.187,1.187,0,0,1,1.215-2.0394c.4491.2656,11.0111,6.7859,12.0081,30.4533.5044,11.9579-4.3528,24.2472-12.3734,31.31A24.294,24.294,0,0,1,47.7417,87.5537Z"/><path class="cls-2" d="M31.4809,75.8047a1.1821,1.1821,0,0,1-.8794-.39c-8.1429-8.9642-7.2159-22.1011-5.81-31.2021,2.0312-13.15,11.2814-27.1248,24.4211-27.1248h.0012c12.5984,0,18.652,13.2969,18.9035,13.8627a1.1875,1.1875,0,0,1-2.17.9657c-.0556-.1252-5.6913-12.4539-16.7333-12.4539C37.8238,19.4613,29.045,32.23,27.1379,44.5745c-1.3315,8.6212-2.2387,21.0311,5.2213,29.2454a1.187,1.187,0,0,1-.8783,1.9848Z"/><path class="cls-3" d="M68.4569,66.8264a1.1874,1.1874,0,0,1-1.1153-1.5941,43.2118,43.2118,0,0,0,.0863-29.564,1.1874,1.1874,0,0,1,2.1756-.9519,44.7975,44.7975,0,0,1-.0313,31.33A1.188,1.188,0,0,1,68.4569,66.8264Z"/><path class="cls-4" d="M46.8374,83.3615A18.7724,18.7724,0,0,1,33.5464,78.04a1.1869,1.1869,0,1,1,1.6207-1.7344c4.6527,4.3441,10.0692,5.6252,17.0475,4.031,9.6193-2.1992,13.22-11.1775,13.2551-11.268a1.1873,1.1873,0,0,1,2.215.8557c-.1605.4174-4.0625,10.24-14.9415,12.7265A26.5094,26.5094,0,0,1,46.8374,83.3615Z"/><path class="cls-5" d="M47.0334,78.8352a15.3649,15.3649,0,0,1-7.2061-1.8259C31.732,72.7474,27.2782,61.9872,28.7442,50.2311a1.1871,1.1871,0,0,1,2.3559.2946c-1.5525,12.45,3.82,21.2165,9.8331,24.3816,5.3123,2.7987,11.3609,1.7355,16.5948-2.9089,8.7956-7.806,10.1208-23.577,6.32-34.3141-1.568-4.43-5.4148-11.9171-13.5583-12.2869C36.2511,24.7482,31.5755,46.4666,31.53,46.6858a1.1873,1.1873,0,1,1-2.3257-.48c.2023-.9775,5.1338-23.911,21.1928-23.1806,6.9626.3165,12.6812,5.37,15.6886,13.8661,4.0631,11.479,2.5622,28.4128-6.9823,36.8832C55.3305,77.1229,51.1578,78.8352,47.0334,78.8352Z"/><path class="cls-2" d="M47.4548,74.7287a1.187,1.187,0,0,1-.0678-2.372C48.0322,72.315,62.3024,71.1474,61.68,50.86c-.2562-8.36-2.2723-14.2152-5.9927-17.4023a10.1343,10.1343,0,0,0-7.6856-2.4289c-7.65.9484-11.3729,11.5358-12.3671,17.6423-.72,4.4276-2.2126,19.1783,8.8264,23.0971a1.1871,1.1871,0,1,1-.7942,2.2375C30.8949,69.4722,32.4965,53.176,33.2919,48.29,34.6576,39.8954,39.2534,29.72,47.71,28.6725a12.5526,12.5526,0,0,1,9.5226,2.982c4.2485,3.6393,6.5435,10.0772,6.8211,19.1331.6951,22.6832-16.357,23.93-16.5292,23.9389C47.5012,74.7275,47.478,74.7287,47.4548,74.7287Z"/><path class="cls-2" d="M46.9986,70.017a1.1873,1.1873,0,0,1-.0591-2.3731c.41-.0221,9.9173-.7131,9.9173-14.3462,0-7.4-1.6649-12.9294-4.6875-15.57a5.988,5.988,0,0,0-4.8431-1.556c-2.0708.2794-7.2445,5.5164-8.0113,13.0906a1.1874,1.1874,0,0,1-2.3628-.2389c.855-8.438,6.6183-14.74,10.0552-15.2052a8.434,8.434,0,0,1,6.7244,2.1205c2.5089,2.1924,5.4994,6.9841,5.4994,17.3593,0,15.9611-12.0539,16.7123-12.1757,16.7182C47.0362,70.017,47.0177,70.017,46.9986,70.017Z"/><path class="cls-2" d="M43.5738,69.0768a1.1813,1.1813,0,0,1-.5282-.1241c-7.6629-3.8178-6.3481-15.3119-6.2884-15.8a1.1874,1.1874,0,0,1,2.3571.2887c-.0122.1019-1.1681,10.3173,4.99,13.3849a1.1874,1.1874,0,0,1-.53,2.25Z"/><path class="cls-2" d="M49.5614,65.5651a1.1868,1.1868,0,0,1-.6556-2.1774c2.4282-1.6057,3.6485-5.5684,3.9807-8.7416.4324-4.1262-.4394-10.0669-2.6011-12.4668a2.5218,2.5218,0,0,0-1.9026-.9681c-2.2914,0-5.0189,6.1238-5.67,10.0947-.7558,4.6131.469,9.3678,2.0683,10.5376a1.1141,1.1141,0,0,0,1.2974.066c1.375-.699,2.3941-3.0642,2.7251-6.3267.3895-3.8282-.2741-7.1626-.8567-8.1979-2.16,2.6909-1.9009,8.8216-.9195,10.9561a1.1869,1.1869,0,1,1-2.1563.9924C43.6185,56.6112,43.1987,49.1691,46.296,45.66a2.0743,2.0743,0,0,1,2.2834-.7605c1.9355.6528,2.4886,4.372,2.6462,6.5308.3409,4.6815-.52,10.7891-4.07,12.5966A3.4658,3.4658,0,0,1,43.38,63.76c-2.8584-2.0892-3.7755-8.169-3.01-12.8391.3931-2.3975,3.0538-12.0841,8.013-12.0841A4.89,4.89,0,0,1,52.05,40.59c3.0649,3.4028,3.5884,10.5793,3.1982,14.3044-.2417,2.3083-1.2161,7.951-5.0335,10.4738A1.1787,1.1787,0,0,1,49.5614,65.5651Z"/></mask></defs><title>Login</title><g class="cls-11"><g id="OBJECTS"><g class="cls-12"><path class="cls-13" d="M13.2708,92.6284a.297.297,0,0,1-.2968-.2968V7.6683a.2968.2968,0,1,1,.5935,0V92.3316A.2969.2969,0,0,1,13.2708,92.6284Z"/><path class="cls-13" d="M27.0765,92.6284a.2969.2969,0,0,1-.2967-.2968V7.6683a.2968.2968,0,1,1,.5935,0V92.3316A.2969.2969,0,0,1,27.0765,92.6284Z"/><path class="cls-13" d="M40.8825,92.6284a.2969.2969,0,0,1-.2968-.2968V7.6683a.2968.2968,0,1,1,.5936,0V92.3316A.297.297,0,0,1,40.8825,92.6284Z"/><path class="cls-13" d="M54.6877,92.6284a.297.297,0,0,1-.2968-.2968V7.6683a.2968.2968,0,0,1,.5936,0V92.3316A.297.297,0,0,1,54.6877,92.6284Z"/><path class="cls-13" d="M68.4935,92.6284a.297.297,0,0,1-.2968-.2968V7.6683a.2968.2968,0,1,1,.5936,0V92.3316A.297.297,0,0,1,68.4935,92.6284Z"/><path class="cls-13" d="M82.2988,92.6284a.297.297,0,0,1-.2968-.2968V7.6683a.2968.2968,0,0,1,.5936,0V92.3316A.297.297,0,0,1,82.2988,92.6284Z"/><path class="cls-13" d="M86.5445,15.7827H9.0251a.2968.2968,0,0,1,0-.5936H86.5445a.2968.2968,0,0,1,0,.5936Z"/><path class="cls-13" d="M86.5445,29.5886H9.0251a.2969.2969,0,0,1,0-.5937H86.5445a.2969.2969,0,0,1,0,.5937Z"/><path class="cls-13" d="M86.5445,43.3944H9.0251a.2968.2968,0,1,1,0-.5936H86.5445a.2968.2968,0,0,1,0,.5936Z"/><path class="cls-13" d="M86.5445,57.2H9.0251a.2968.2968,0,1,1,0-.5936H86.5445a.2968.2968,0,0,1,0,.5936Z"/><path class="cls-13" d="M86.5445,71.0049H9.0251a.2968.2968,0,1,1,0-.5935H86.5445a.2968.2968,0,0,1,0,.5935Z"/><path class="cls-13" d="M86.5445,84.8107H9.0251a.2968.2968,0,1,1,0-.5936H86.5445a.2968.2968,0,0,1,0,.5936Z"/></g><g class="cls-14"><path class="cls-15" d="M26.8538,29.6523A1.1869,1.1869,0,0,1,25.8167,27.89c3.5612-6.4287,10.5747-13.7955,19.5785-15.1913a22.3477,22.3477,0,0,1,16.1761,3.7981,1.1867,1.1867,0,1,1-1.3889,1.9246,20.2047,20.2047,0,0,0-14.4238-3.3762C37.603,16.31,31.1823,23.1041,27.8932,29.04A1.1844,1.1844,0,0,1,26.8538,29.6523Z"/><path class="cls-15" d="M47.7417,87.5537a25.9492,25.9492,0,0,1-4.3667-.3768A28.2719,28.2719,0,0,1,22.0766,70.4055c-4.4583-10.75-3.8618-24.9277,1.6371-38.8971a1.1873,1.1873,0,1,1,2.21.87C20.6477,45.78,20.0454,59.309,24.27,69.4965A25.8844,25.8844,0,0,0,43.7743,84.8374a21.9394,21.9394,0,0,0,18.7025-5.4259c7.504-6.6073,12.0453-18.1593,11.5706-29.4284C73.11,27.737,63.2953,21.53,63.1963,21.4694a1.187,1.187,0,0,1,1.215-2.0394c.4491.2656,11.0111,6.7859,12.0081,30.4533.5044,11.9579-4.3528,24.2472-12.3734,31.31A24.294,24.294,0,0,1,47.7417,87.5537Z"/><path class="cls-15" d="M31.4809,75.8047a1.1821,1.1821,0,0,1-.8794-.39c-8.1429-8.9642-7.2159-22.1011-5.81-31.2021,2.0312-13.15,11.2814-27.1248,24.4211-27.1248h.0012c12.5984,0,18.652,13.2969,18.9035,13.8627a1.1875,1.1875,0,0,1-2.17.9657c-.0556-.1252-5.6913-12.4539-16.7333-12.4539C37.8238,19.4613,29.045,32.23,27.1379,44.5745c-1.3315,8.6212-2.2387,21.0311,5.2213,29.2454a1.187,1.187,0,0,1-.8783,1.9848Z"/><path class="cls-15" d="M68.4569,66.8264a1.1874,1.1874,0,0,1-1.1153-1.5941,43.2118,43.2118,0,0,0,.0863-29.564,1.1874,1.1874,0,0,1,2.1756-.9519,44.7975,44.7975,0,0,1-.0313,31.33A1.188,1.188,0,0,1,68.4569,66.8264Z"/><path class="cls-15" d="M46.8374,83.3615A18.7724,18.7724,0,0,1,33.5464,78.04a1.1869,1.1869,0,1,1,1.6207-1.7344c4.6527,4.3441,10.0692,5.6252,17.0475,4.031,9.6193-2.1992,13.22-11.1775,13.2551-11.268a1.1873,1.1873,0,0,1,2.215.8557c-.1605.4174-4.0625,10.24-14.9415,12.7265A26.5094,26.5094,0,0,1,46.8374,83.3615Z"/><path class="cls-15" d="M47.0334,78.8352a15.3649,15.3649,0,0,1-7.2061-1.8259C31.732,72.7474,27.2782,61.9872,28.7442,50.2311a1.1871,1.1871,0,0,1,2.3559.2946c-1.5525,12.45,3.82,21.2165,9.8331,24.3816,5.3123,2.7987,11.3609,1.7355,16.5948-2.9089,8.7956-7.806,10.1208-23.577,6.32-34.3141-1.568-4.43-5.4148-11.9171-13.5583-12.2869C36.2511,24.7482,31.5755,46.4666,31.53,46.6858a1.1873,1.1873,0,1,1-2.3257-.48c.2023-.9775,5.1338-23.911,21.1928-23.1806,6.9626.3165,12.6812,5.37,15.6886,13.8661,4.0631,11.479,2.5622,28.4128-6.9823,36.8832C55.3305,77.1229,51.1578,78.8352,47.0334,78.8352Z"/><path class="cls-15" d="M47.4548,74.7287a1.187,1.187,0,0,1-.0678-2.372C48.0322,72.315,62.3024,71.1474,61.68,50.86c-.2562-8.36-2.2723-14.2152-5.9927-17.4023a10.1343,10.1343,0,0,0-7.6856-2.4289c-7.65.9484-11.3729,11.5358-12.3671,17.6423-.72,4.4276-2.2126,19.1783,8.8264,23.0971a1.1871,1.1871,0,1,1-.7942,2.2375C30.8949,69.4722,32.4965,53.176,33.2919,48.29,34.6576,39.8954,39.2534,29.72,47.71,28.6725a12.5526,12.5526,0,0,1,9.5226,2.982c4.2485,3.6393,6.5435,10.0772,6.8211,19.1331.6951,22.6832-16.357,23.93-16.5292,23.9389C47.5012,74.7275,47.478,74.7287,47.4548,74.7287Z"/><path class="cls-15" d="M46.9986,70.017a1.1873,1.1873,0,0,1-.0591-2.3731c.41-.0221,9.9173-.7131,9.9173-14.3462,0-7.4-1.6649-12.9294-4.6875-15.57a5.988,5.988,0,0,0-4.8431-1.556c-2.0708.2794-7.2445,5.5164-8.0113,13.0906a1.1874,1.1874,0,0,1-2.3628-.2389c.855-8.438,6.6183-14.74,10.0552-15.2052a8.434,8.434,0,0,1,6.7244,2.1205c2.5089,2.1924,5.4994,6.9841,5.4994,17.3593,0,15.9611-12.0539,16.7123-12.1757,16.7182C47.0362,70.017,47.0177,70.017,46.9986,70.017Z"/><path class="cls-15" d="M43.5738,69.0768a1.1813,1.1813,0,0,1-.5282-.1241c-7.6629-3.8178-6.3481-15.3119-6.2884-15.8a1.1874,1.1874,0,0,1,2.3571.2887c-.0122.1019-1.1681,10.3173,4.99,13.3849a1.1874,1.1874,0,0,1-.53,2.25Z"/><path class="cls-15" d="M49.5614,65.5651a1.1868,1.1868,0,0,1-.6556-2.1774c2.4282-1.6057,3.6485-5.5684,3.9807-8.7416.4324-4.1262-.4394-10.0669-2.6011-12.4668a2.5218,2.5218,0,0,0-1.9026-.9681c-2.2914,0-5.0189,6.1238-5.67,10.0947-.7558,4.6131.469,9.3678,2.0683,10.5376a1.1141,1.1141,0,0,0,1.2974.066c1.375-.699,2.3941-3.0642,2.7251-6.3267.3895-3.8282-.2741-7.1626-.8567-8.1979-2.16,2.6909-1.9009,8.8216-.9195,10.9561a1.1869,1.1869,0,1,1-2.1563.9924C43.6185,56.6112,43.1987,49.1691,46.296,45.66a2.0743,2.0743,0,0,1,2.2834-.7605c1.9355.6528,2.4886,4.372,2.6462,6.5308.3409,4.6815-.52,10.7891-4.07,12.5966A3.4658,3.4658,0,0,1,43.38,63.76c-2.8584-2.0892-3.7755-8.169-3.01-12.8391.3931-2.3975,3.0538-12.0841,8.013-12.0841A4.89,4.89,0,0,1,52.05,40.59c3.0649,3.4028,3.5884,10.5793,3.1982,14.3044-.2417,2.3083-1.2161,7.951-5.0335,10.4738A1.1787,1.1787,0,0,1,49.5614,65.5651Z"/></g><g class="cls-14"><g class="cls-16"><path class="cls-15" d="M26.8538,29.6523A1.1869,1.1869,0,0,1,25.8167,27.89c3.5612-6.4287,10.5747-13.7955,19.5785-15.1913a22.3477,22.3477,0,0,1,16.1761,3.7981,1.1867,1.1867,0,1,1-1.3889,1.9246,20.2047,20.2047,0,0,0-14.4238-3.3762C37.603,16.31,31.1823,23.1041,27.8932,29.04A1.1844,1.1844,0,0,1,26.8538,29.6523Z"/><path class="cls-15" d="M47.7417,87.5537a25.9492,25.9492,0,0,1-4.3667-.3768A28.2719,28.2719,0,0,1,22.0766,70.4055c-4.4583-10.75-3.8618-24.9277,1.6371-38.8971a1.1873,1.1873,0,1,1,2.21.87C20.6477,45.78,20.0454,59.309,24.27,69.4965A25.8844,25.8844,0,0,0,43.7743,84.8374a21.9394,21.9394,0,0,0,18.7025-5.4259c7.504-6.6073,12.0453-18.1593,11.5706-29.4284C73.11,27.737,63.2953,21.53,63.1963,21.4694a1.187,1.187,0,0,1,1.215-2.0394c.4491.2656,11.0111,6.7859,12.0081,30.4533.5044,11.9579-4.3528,24.2472-12.3734,31.31A24.294,24.294,0,0,1,47.7417,87.5537Z"/><path class="cls-15" d="M31.4809,75.8047a1.1821,1.1821,0,0,1-.8794-.39c-8.1429-8.9642-7.2159-22.1011-5.81-31.2021,2.0312-13.15,11.2814-27.1248,24.4211-27.1248h.0012c12.5984,0,18.652,13.2969,18.9035,13.8627a1.1875,1.1875,0,0,1-2.17.9657c-.0556-.1252-5.6913-12.4539-16.7333-12.4539C37.8238,19.4613,29.045,32.23,27.1379,44.5745c-1.3315,8.6212-2.2387,21.0311,5.2213,29.2454a1.187,1.187,0,0,1-.8783,1.9848Z"/><path class="cls-15" d="M68.4569,66.8264a1.1874,1.1874,0,0,1-1.1153-1.5941,43.2118,43.2118,0,0,0,.0863-29.564,1.1874,1.1874,0,0,1,2.1756-.9519,44.7975,44.7975,0,0,1-.0313,31.33A1.188,1.188,0,0,1,68.4569,66.8264Z"/><path class="cls-15" d="M46.8374,83.3615A18.7724,18.7724,0,0,1,33.5464,78.04a1.1869,1.1869,0,1,1,1.6207-1.7344c4.6527,4.3441,10.0692,5.6252,17.0475,4.031,9.6193-2.1992,13.22-11.1775,13.2551-11.268a1.1873,1.1873,0,0,1,2.215.8557c-.1605.4174-4.0625,10.24-14.9415,12.7265A26.5094,26.5094,0,0,1,46.8374,83.3615Z"/><path class="cls-15" d="M47.0334,78.8352a15.3649,15.3649,0,0,1-7.2061-1.8259C31.732,72.7474,27.2782,61.9872,28.7442,50.2311a1.1871,1.1871,0,0,1,2.3559.2946c-1.5525,12.45,3.82,21.2165,9.8331,24.3816,5.3123,2.7987,11.3609,1.7355,16.5948-2.9089,8.7956-7.806,10.1208-23.577,6.32-34.3141-1.568-4.43-5.4148-11.9171-13.5583-12.2869C36.2511,24.7482,31.5755,46.4666,31.53,46.6858a1.1873,1.1873,0,1,1-2.3257-.48c.2023-.9775,5.1338-23.911,21.1928-23.1806,6.9626.3165,12.6812,5.37,15.6886,13.8661,4.0631,11.479,2.5622,28.4128-6.9823,36.8832C55.3305,77.1229,51.1578,78.8352,47.0334,78.8352Z"/><path class="cls-15" d="M47.4548,74.7287a1.187,1.187,0,0,1-.0678-2.372C48.0322,72.315,62.3024,71.1474,61.68,50.86c-.2562-8.36-2.2723-14.2152-5.9927-17.4023a10.1343,10.1343,0,0,0-7.6856-2.4289c-7.65.9484-11.3729,11.5358-12.3671,17.6423-.72,4.4276-2.2126,19.1783,8.8264,23.0971a1.1871,1.1871,0,1,1-.7942,2.2375C30.8949,69.4722,32.4965,53.176,33.2919,48.29,34.6576,39.8954,39.2534,29.72,47.71,28.6725a12.5526,12.5526,0,0,1,9.5226,2.982c4.2485,3.6393,6.5435,10.0772,6.8211,19.1331.6951,22.6832-16.357,23.93-16.5292,23.9389C47.5012,74.7275,47.478,74.7287,47.4548,74.7287Z"/><path class="cls-15" d="M46.9986,70.017a1.1873,1.1873,0,0,1-.0591-2.3731c.41-.0221,9.9173-.7131,9.9173-14.3462,0-7.4-1.6649-12.9294-4.6875-15.57a5.988,5.988,0,0,0-4.8431-1.556c-2.0708.2794-7.2445,5.5164-8.0113,13.0906a1.1874,1.1874,0,0,1-2.3628-.2389c.855-8.438,6.6183-14.74,10.0552-15.2052a8.434,8.434,0,0,1,6.7244,2.1205c2.5089,2.1924,5.4994,6.9841,5.4994,17.3593,0,15.9611-12.0539,16.7123-12.1757,16.7182C47.0362,70.017,47.0177,70.017,46.9986,70.017Z"/><path class="cls-15" d="M43.5738,69.0768a1.1813,1.1813,0,0,1-.5282-.1241c-7.6629-3.8178-6.3481-15.3119-6.2884-15.8a1.1874,1.1874,0,0,1,2.3571.2887c-.0122.1019-1.1681,10.3173,4.99,13.3849a1.1874,1.1874,0,0,1-.53,2.25Z"/><path class="cls-15" d="M49.5614,65.5651a1.1868,1.1868,0,0,1-.6556-2.1774c2.4282-1.6057,3.6485-5.5684,3.9807-8.7416.4324-4.1262-.4394-10.0669-2.6011-12.4668a2.5218,2.5218,0,0,0-1.9026-.9681c-2.2914,0-5.0189,6.1238-5.67,10.0947-.7558,4.6131.469,9.3678,2.0683,10.5376a1.1141,1.1141,0,0,0,1.2974.066c1.375-.699,2.3941-3.0642,2.7251-6.3267.3895-3.8282-.2741-7.1626-.8567-8.1979-2.16,2.6909-1.9009,8.8216-.9195,10.9561a1.1869,1.1869,0,1,1-2.1563.9924C43.6185,56.6112,43.1987,49.1691,46.296,45.66a2.0743,2.0743,0,0,1,2.2834-.7605c1.9355.6528,2.4886,4.372,2.6462,6.5308.3409,4.6815-.52,10.7891-4.07,12.5966A3.4658,3.4658,0,0,1,43.38,63.76c-2.8584-2.0892-3.7755-8.169-3.01-12.8391.3931-2.3975,3.0538-12.0841,8.013-12.0841A4.89,4.89,0,0,1,52.05,40.59c3.0649,3.4028,3.5884,10.5793,3.1982,14.3044-.2417,2.3083-1.2161,7.951-5.0335,10.4738A1.1787,1.1787,0,0,1,49.5614,65.5651Z"/></g></g><polygon class="cls-15" points="0 12.658 2.268 12.658 2.268 2.268 12.658 2.268 12.658 0 0 0 0 12.658"/><polygon class="cls-15" points="82.911 0 82.911 2.268 93.302 2.268 93.302 12.658 95.57 12.658 95.57 0 82.911 0"/><polygon class="cls-15" points="93.302 97.732 82.911 97.732 82.911 100 95.57 100 95.57 87.342 93.302 87.342 93.302 97.732"/><polygon class="cls-15" points="2.268 87.342 0 87.342 0 100 12.658 100 12.658 97.732 2.268 97.732 2.268 87.342"/></g></g></svg>