<svg id="Layer_1" data-name="Layer 1" xmlns="http://www.w3.org/2000/svg" viewBox="0 0 300 200"><title>0</title><path d="M135.8446,102.3042c-2.5609,1.6873-5.0974,3.4132-7.694,5.0436a2.0841,2.0841,0,0,0-1.1289,2.7625q8.2461,25.6283,16.4279,51.2771a2.5181,2.5181,0,0,0,1.1393,1.3861q4.6293-18.9909,9.2585-37.982l.52-.0176q4.62,19.0176,9.24,38.0353l.533.028c.238-.582.5172-1.1508.7079-1.7478,5.37-16.813,10.7014-33.6383,16.1383-50.43.5472-1.69.2807-2.5873-1.1965-3.4934a55.3711,55.3711,0,0,1-7.2727-5.2813q12.2611,2.373,24.5224,4.7464c4.1305.8,8.28,1.5166,12.3862,2.4238,5.0391,1.1131,8.1034,4.222,9.25,9.3263q5.1831,23.0721,10.5378,46.1055c.4235,1.82.1929,2.7289-1.7327,3.3023-3.5272,1.05-6.974,2.3681-10.4617,3.5528a46.9027,46.9027,0,0,0-12.2991,5.8421c-6.6254,4.6629-14.5283,6.4025-22.3775,7.9276-14.6661,2.85-29.4777,3.0677-44.2911,1.7543-9.9731-.8843-19.8528-2.6248-29.0884-6.7445-2.9214-1.3032-5.5332-3.2924-8.3131-4.9227a20.504,20.504,0,0,0-3.3855-1.7025c-5.5906-2.0025-11.1925-3.9765-16.8267-5.8518-1.4417-.48-1.8906-1.1352-1.55-2.6187,3.6476-15.8769,7.2048-31.7746,10.9045-47.6392a10.5679,10.5679,0,0,1,8.6889-8.2311c10.7394-2.23,21.524-4.2433,32.2911-6.34,1.6141-.3144,3.2318-.61,4.8479-.9146Z" fill="#000"/><path d="M153.9377,104.92c-3.3965.0478-6.2983-1.358-9.001-3.1952-8.6081-5.8517-14.2819-14.0639-18.71-23.29a21.38,21.38,0,0,0-2.7923-4.2759c-2.82-3.422-4.6774-7.1991-4.4852-11.71a4.9043,4.9043,0,0,1,1.1833-3.2459c1.4884-1.28,1.5135-2.7577,1.58-4.4308.3119-7.8059,1.577-15.4,5.4726-22.3263C132.33,23.3,140.3145,18.6721,150.6677,17.94c6.7047-.474,13.2359.1538,19.2834,3.4168,8.2035,4.4263,12.5977,11.7077,14.6648,20.4242,1.0829,4.5666,1.2786,9.3413,1.92,14.0158.1159.8448.1855,1.9725.7308,2.4346,2.5641,2.1729,2.6008,5.0263,1.6849,7.6533a54.4131,54.4131,0,0,1-4.3027,8.3111c-.7932,1.4195-1.9517,2.6508-2.64,4.1108C177.9452,86.93,172.7,94.65,165.047,100.5,161.7932,102.9878,158.2505,104.9785,153.9377,104.92Z" fill="#000"/><path d="M202.3842,101.4319l9.505-2.2657c-2.5036-3.3828-4.9495-6.503-7.1856-9.7667-1.8563-2.7094-3.5746-5.5282-5.1532-8.4084-1.5633-2.8522-3.1216-5.7843-.2442-8.8948.499-.54.2414-1.7408.42-2.6188.79-3.8794,1.1246-7.9384,2.5231-11.5887,2.87-7.4924,8.7984-11.12,16.76-11.561,14.5837-.8081,20.7663,8.6676,22.22,20.0376.333,2.6038.2588,5.1754,1.725,7.7213,1.4584,2.5324-.339,5.191-1.7341,7.53-1.2225,2.05-2.4265,4.1163-3.7666,6.0886-2.5625,3.7712-5.216,7.4808-7.9551,11.3921a14.3206,14.3206,0,0,0,1.6359.5431c8.13,1.8589,16.2534,3.7442,24.4,5.5245,3.878.8475,6.1477,3.0006,7.0021,6.9576,2.0594,9.5376,4.2734,19.0425,6.5042,28.542.3933,1.6744,0,2.5389-1.6762,2.9729-1.452.376-2.8555.9407-4.2763,1.434a46.1636,46.1636,0,0,0-10.3736,4.7438c-5.4425,3.5485-11.8773,4.5116-18.2072,5.5271-1.7232.2764-1.7784-1.0051-2.02-2.0485-1.3881-5.9976-2.73-12.0059-4.1012-18.0074-1.3379-5.8548-2.7022-11.7036-4.0374-17.5591-1.969-8.6347-7.0446-13.3635-15.778-14.7315-2.0661-.3236-4.1131-.7683-6.1689-1.1574Z" fill="#000"/><path d="M79.2292,98.9141c-.719-.791-1.26-1.3-1.7-1.8846-2.118-2.8153-4.2892-5.5959-6.2838-8.497-1.603-2.3316-3.0579-4.7747-4.4375-7.247-1.6147-2.8936-3.2437-5.6557-.5726-9.1092,1.0186-1.317.551-3.77.7915-5.7011.8023-6.4431,2.7309-12.392,8.1771-16.4747,12.6147-9.4563,29.9263-2.0212,32.6469,13.9812.3136,1.8446.3052,3.7455.6464,5.5833a13.3943,13.3943,0,0,0,1.27,3.6768c1.4238,2.7414.55,5.3422-.9732,7.4207-4.2423,5.79-6.5941,12.8868-12.2442,17.6918-.0961.0818-.1021.2694-.2744.765l10.175,2.509c-3.2077.6655-5.7719,1.1825-8.3293,1.7308-7.7721,1.6662-12.5291,6.2994-14.255,14.1332-2.63,11.94-5.3994,23.85-8.1162,35.7709-.2674,1.1735-.4587,2.5278-2.2118,2.064-5.2832-1.3979-10.96-2.042-15.7284-4.4629a126.4031,126.4031,0,0,0-17.525-7.457c-1.6915-.56-1.3568-1.6705-1.078-2.8817,2.1368-9.2838,4.4307-18.536,6.3227-27.8694.9348-4.6115,3.5294-6.7286,7.92-7.6413,8.0845-1.6808,16.1126-3.6327,24.1613-5.4841A15.039,15.039,0,0,0,79.2292,98.9141Z" fill="#000"/><path d="M154.0816,122.2027l-8.154-11.8461c5.4918-3.6067,10.8232-3.6765,16.3934.0051Z" fill="#000"/></svg>