<svg id="Layer_1" data-name="Layer 1" xmlns="http://www.w3.org/2000/svg" viewBox="0 0 300 200"><title>0</title><path d="M140.2773,188.4728h-1.56a8.3539,8.3539,0,0,1-4.1891-2.5925q-8.2157-8.1387-16.4915-16.2167c-.2221-.2181-.4511-.4291-.6982-.6636-.2585.2438-.4707.4371-.6754.6381q-8.2508,8.1031-16.5015,16.2065c-2.6939,2.6418-5.89,2.6382-8.5654.0116-5.4192-5.32-10.815-10.6643-16.2737-15.9436a7.2124,7.2124,0,0,1-2.3188-5.5373q.0469-48.0791.0218-96.1581c0-9.587-.0405-19.1742.0211-28.7607A21.17,21.17,0,0,1,87.24,19.8248c1.6249-.5516,3.3523-.8013,5.0325-1.19H202.147c.5888.1119,1.1754.2378,1.7668.3334a21.3261,21.3261,0,0,1,2.8933,41.388,1.2257,1.2257,0,0,0-1.0154,1.4354q.0283,52.0722.0318,104.1443a6.7961,6.7961,0,0,1-2.1543,5.17q-7.5481,7.3371-15.0206,14.7518a8.5024,8.5024,0,0,1-4.1787,2.615h-1.56a8.7321,8.7321,0,0,1-4.171-2.6284q-8.1849-8.11-16.4346-16.1555c-.2365-.2321-.4833-.4538-.7413-.6953-5.7031,5.5983-11.3416,11.1076-16.9446,16.6527A9.16,9.16,0,0,1,140.2773,188.4728Zm44.47-12.11c.145-.1222.2595-.2066.36-.3053,3.4207-3.3593,6.85-6.71,10.2418-10.0982a1.8721,1.8721,0,0,0,.4259-1.2191q.0287-51.6432.0157-103.2863c0-.3058-.0288-.6116-.048-.9956h-1.28q-50.04,0-100.08-.0008c-.4619,0-.9247.0045-1.3858-.0191a5.9071,5.9071,0,0,1-.9321-11.6657c.9838-.1974,2.0075-.1862,3.0045-.3291a10.08,10.08,0,0,0,8.3519-12.28,10.5388,10.5388,0,0,0-11.6-7.6231,10.0116,10.0116,0,0,0-8.74,10.2816q-.01,62.301.0189,124.6021a1.9759,1.9759,0,0,0,.5382,1.2511c2.1722,2.1978,4.3879,4.3527,6.593,6.5179,1.52,1.4926,3.045,2.98,4.7768,4.6742a7.7659,7.7659,0,0,1,.7451-1.03q8.3032-8.1774,16.6275-16.3334c2.856-2.7977,6.0556-2.7761,8.9148.0343q8.3421,8.2,16.6771,16.4067a21.3331,21.3331,0,0,1,1.4164,1.7425,10.9723,10.9723,0,0,1,.7012-.9075q8.7729-8.6265,17.5545-17.2443c2.8648-2.8131,6.0655-2.8249,8.9127-.0289q6.12,6.01,12.2377,12.0236C180.7694,172.47,182.7482,174.4051,184.747,176.3631Zm-74.45-147.3086a1.9377,1.9377,0,0,0,.08.382c2.0231,3.7346,2.3743,7.8046,2.3027,11.9311a9.6154,9.6154,0,0,1-4.9941,8.8141c-.0544.0308-.0814.11-.2029.283.7695,0,1.4266-.0035,2.0836.0005,22.2892.1369,44.5783.3239,66.8678.3863,8.2222.023,16.4482.521,24.67-.1152a12.6534,12.6534,0,0,0,9.9935-5.8519,7.686,7.686,0,0,0,1.3531-5.4272A12.7131,12.7131,0,0,0,200.37,28.921c-8.0267.0093-16.0534.0549-24.08.0664q-29.365.0421-58.73.0667C115.1673,29.0567,112.7743,29.0545,110.2969,29.0545Z" fill="#000"/><path d="M138.1064,115.1518q-16.9749,0-33.95.0005a2.186,2.186,0,0,0-2.434,1.6385,5.598,5.598,0,0,0-.0657,4.06,2.2825,2.2825,0,0,0,2.58,1.8085q8.2708.0022,16.5418.0006,25.5923,0,51.1845,0a2.3409,2.3409,0,0,0,2.6674-1.9236,5.5539,5.5539,0,0,0-.03-3.7323,2.3055,2.3055,0,0,0-2.631-1.8521Q155.038,115.1514,138.1064,115.1518Zm.0985-34.6908q-17.0186,0-34.0371.0008a2.1752,2.1752,0,0,0-2.44,1.6265,5.49,5.49,0,0,0,.1772,4.61,2.1082,2.1082,0,0,0,2.062,1.282q34.167-.0208,68.3339,0a2.0894,2.0894,0,0,0,2.0167-1.2161,5.3271,5.3271,0,0,0,.3374-4.2774c-.6166-1.8613-1.4046-2.0445-2.7594-2.0412Q155.05,80.4865,138.2049,80.461ZM138.11,105.3q16.9749,0,33.95,0a2.2427,2.2427,0,0,0,2.4932-1.6874,5.4274,5.4274,0,0,0,.1256-3.7317c-.5942-1.7982-1.3206-2.1093-2.8044-2.1063q-21.4351.0431-42.87.0171-12.428,0-24.8561.0011a2.19,2.19,0,0,0-2.4311,1.6436,5.6144,5.6144,0,0,0-.056,4.0617,2.2841,2.2841,0,0,0,2.5861,1.802Q121.1783,105.3006,138.11,105.3Z" fill="#000"/><path d="M138.1064,115.1518q16.9316,0,33.8631,0a2.3055,2.3055,0,0,1,2.631,1.8521,5.5539,5.5539,0,0,1,.03,3.7323,2.3409,2.3409,0,0,1-2.6674,1.9236q-25.5923.0011-51.1845,0-8.2709,0-16.5418-.0006a2.2825,2.2825,0,0,1-2.58-1.8085,5.598,5.598,0,0,1,.0657-4.06,2.186,2.186,0,0,1,2.434-1.6385Q121.1315,115.151,138.1064,115.1518Z" fill="#000"/><path d="M138.2049,80.461q16.8453,0,33.69-.0155c1.3548-.0033,2.1428.18,2.7594,2.0412a5.3271,5.3271,0,0,1-.3374,4.2774,2.0894,2.0894,0,0,1-2.0167,1.2161q-34.167-.0208-68.3339,0a2.1082,2.1082,0,0,1-2.062-1.282,5.49,5.49,0,0,1-.1772-4.61,2.1752,2.1752,0,0,1,2.44-1.6265Q121.1864,80.46,138.2049,80.461Z" fill="#000"/><path d="M138.11,105.3q-16.9315,0-33.8632,0a2.2841,2.2841,0,0,1-2.5861-1.802,5.6144,5.6144,0,0,1,.056-4.0617,2.19,2.19,0,0,1,2.4311-1.6436q12.4281-.0029,24.8561-.0011,21.4351,0,42.87-.0171c1.4838-.003,2.21.3081,2.8044,2.1063a5.4274,5.4274,0,0,1-.1256,3.7317A2.2427,2.2427,0,0,1,172.06,105.3Q155.0847,105.3007,138.11,105.3Z" fill="#000"/></svg>