<svg id="Layer_1" data-name="Layer 1" xmlns="http://www.w3.org/2000/svg" viewBox="0 0 300 200"><title>0</title><path d="M161.0872,82.3084c3.734-6.9383,7.4679-13.8765,11.2429-20.8912a22.9081,22.9081,0,0,1,7.9663,5.02,30.7944,30.7944,0,0,1,7.6577,12.41c1.9178,5.4813,3.0039,15.2439,2.2185,19.9955H117.98c-1.2455-14.5828,3.3913-28.9718,17.0566-37.2078.1983-.1195.4042-.2265.6967-.39l11.3287,21.0512.2223-.04q.345-4.0341.69-8.0683c.1433-1.6681.3243-3.3341.4158-5.005a5.3172,5.3172,0,0,0-.2433-1.8262c-.4493-1.4484-1.0012-2.8647-1.4676-4.3082a3.0348,3.0348,0,0,1-.2625-1.5834c.75-2.6116,2.499-5.6021,5.8891-5.5654,1.2086.0131,2.4183-.0254,3.6262.0082a5.0265,5.0265,0,0,1,4.3725,2.4859,7.8033,7.8033,0,0,1,1.0181,1.83,12.6,12.6,0,0,1,.27,2.4606,1.0123,1.0123,0,0,1-.138.4426,17.5228,17.5228,0,0,0-1.3678,10.2176c.4723,2.9346.5307,5.9356.7727,8.9072Z" fill="#000"/><path d="M83.015,102.9611h6.0066v1.63q0,6.4283.0013,12.8566c.0031,2.085.9041,2.9814,2.987,3.01,2.299.0313,4.6164-.1065,6.8931.1358a9.2688,9.2688,0,0,1,7.92,6.0745c.8456,2.0074,1.6488,4.0329,2.51,6.0338a9.7356,9.7356,0,0,1-1.9515,10.723c-1.3808,1.43-2.8187,2.8037-4.21,4.2236-1.3478,1.3758-1.3519,2.7122.0045,4.0753q4.9074,4.9317,9.8474,9.831a2.5212,2.5212,0,0,0,3.9908-.0088c1.3354-1.31,2.642-2.65,3.9766-3.9608a9.7569,9.7569,0,0,1,11.5044-1.9976c1.7344.789,3.5074,1.5008,5.2916,2.1714a9.7161,9.7161,0,0,1,6.4613,9.01c.0391,2.0251-.0031,4.0517.015,6.0774a2.4982,2.4982,0,0,0,2.7309,2.7871q7.0776.0338,14.1553-.0008a2.4931,2.4931,0,0,0,2.7433-2.7737c.0189-1.9478-.012-3.8961.0089-5.8439a9.73,9.73,0,0,1,6.5672-9.29c1.8205-.6829,3.6151-1.4428,5.39-2.2377a9.7664,9.7664,0,0,1,11.13,1.925c1.4271,1.3835,2.8067,2.8158,4.2287,4.2046a2.4844,2.4844,0,0,0,3.823.0275q5.032-4.9724,10.0112-9.9978a2.5043,2.5043,0,0,0,.02-3.9052c-1.3554-1.4-2.76-2.7526-4.127-4.1409a9.7379,9.7379,0,0,1-1.9768-11.2066c.7793-1.7385,1.5116-3.5017,2.1775-5.2864a9.8178,9.8178,0,0,1,9.3745-6.6459c1.91-.0267,3.8216.01,5.7322-.0093,1.9392-.0191,2.875-.95,2.8794-2.8781.0112-4.8293.0037-9.6586.0037-14.5853h5.89c.0572.0612.106.0889.106.1167.0067,5.2954.2421,10.6041-.0589,15.8822-.2489,4.3653-4.0007,7.4339-8.42,7.5126-1.9492.0348-3.9-.0033-5.8492.0078a3.8369,3.8369,0,0,0-3.9925,2.7811q-1.0787,2.7728-2.2722,5.5a3.7415,3.7415,0,0,0,.7656,4.5969c1.3615,1.394,2.7649,2.7472,4.1287,4.1391a8.53,8.53,0,0,1-.0377,12.3479q-5.0217,5.0655-10.0923,10.0824a8.5448,8.5448,0,0,1-12.2749.0551c-1.373-1.3272-2.7043-2.6973-4.0608-4.0417a3.76,3.76,0,0,0-4.7686-.8875c-1.8551.8076-3.7309,1.5694-5.6121,2.3149a3.6992,3.6992,0,0,0-2.6165,3.7336c-.0209,1.9867.008,3.9739-.0089,5.9607a8.4837,8.4837,0,0,1-8.3909,8.58q-7.4855.1131-14.9738.0021a8.49,8.49,0,0,1-8.4016-8.5706c-.0181-1.9478.0078-3.896-.0066-5.8439a3.729,3.729,0,0,0-2.72-3.8923c-1.8838-.7391-3.7517-1.5207-5.61-2.3226a3.6994,3.6994,0,0,0-4.5809.8338c-1.3883,1.3675-2.7417,2.7708-4.1417,4.126a8.5484,8.5484,0,0,1-12.2753-.04q-5.07-5.0166-10.0923-10.0823a8.54,8.54,0,0,1,.0285-12.4327c1.3426-1.3581,2.7142-2.6878,4.0476-4.0548a3.7444,3.7444,0,0,0,.7781-4.5966q-1.2123-2.7813-2.32-5.6077a3.7717,3.7717,0,0,0-3.8232-2.677c-1.91-.02-3.8216.0111-5.7322-.0073a8.5332,8.5332,0,0,1-8.7888-8.7856c-.0162-4.5192-.0053-9.0385-.0017-13.5578C82.9574,103.7834,82.9927,103.4045,83.015,102.9611Z" fill="#000"/><path d="M154.1009,12.3111a19.6372,19.6372,0,1,1-19.6772,19.567A19.5935,19.5935,0,0,1,154.1009,12.3111Z" fill="#000"/><path d="M120.6421,69.17c-6.3391,9.14-8.3341,19.0381-7.6471,29.6638-10.0562,0-19.9344,0-29.813,0-.0485-.06-.1388-.12-.1386-.18.0169-4.5144-.2415-9.0516.1217-13.5385A19.1571,19.1571,0,0,1,102.0174,67.27c4.3895-.1343,8.8017.0354,13.1846.3393C116.9681,67.7322,118.6835,68.5842,120.6421,69.17Z" fill="#000"/><path d="M225.1291,98.8749H195.2072c.4884-10.5929-1.082-20.7193-7.09-30.0418,1.7886-.4792,3.417-1.2379,5.071-1.2985,5.0134-.1837,10.1036-.6261,15.042-.0032,9.5914,1.21,16.3139,8.83,16.8587,18.5009C225.3271,90.2559,225.1291,94.5041,225.1291,98.8749Z" fill="#000"/><path d="M199.4781,63.6314A16.6139,16.6139,0,1,1,216.07,46.9572,16.5472,16.5472,0,0,1,199.4781,63.6314Z" fill="#000"/><path d="M108.7947,63.6311a16.6138,16.6138,0,1,1,16.5432-16.6978A16.59,16.59,0,0,1,108.7947,63.6311Z" fill="#000"/><path d="M189.5734,102.9426h5.9779c2.5684,10.5675.0306,27.8458-14.0568,39.8633A42.2427,42.2427,0,0,1,112.5156,102.98h6.03c-2.2872,12.951.8425,24.27,10.2,33.5589a34.634,34.634,0,0,0,25.6482,10.3254,35.0342,35.0342,0,0,0,27.9356-13.588C189.5013,124.4206,191.6826,114.2278,189.5734,102.9426Z" fill="#000"/></svg>