<svg id="Layer_1" data-name="Layer 1" xmlns="http://www.w3.org/2000/svg" viewBox="0 0 300 200"><title>0</title><path d="M86.7868,84.8222c2.3984,1.3554,5.3534,1.7258,8.0515,2.5508l.1454-.5029c3.6729.237,6.74-1.4292,9.8507-3.0435Q122.645,74.5851,140.4952,65.42c5.851-3.0089,10.1247-7.3607,10.1375-14.2375a45.7456,45.7456,0,0,0-1.9465-12.3193c-3.2532-11.5205-10.5072-19.6294-21.7116-24.08a15.2907,15.2907,0,0,0-13.7333.7492Q93.453,26.5243,73.6339,37.4612c-5.6,3.0945-7.8833,8.2383-7.49,14.1714C67.1122,66.2436,73.9225,77.5522,86.7868,84.8222ZM115.3875,31.08c.4512-5.6083,4.7865-8.9461,10.2529-7.8768,9.3366,1.8263,18.0914,12.9048,18.197,23.0267.0936,8.9689-6.4656,13.0524-14.248,8.5613a31.2581,31.2581,0,0,1-8.04-6.8279C117.5016,43.1745,114.8588,37.65,115.3875,31.08Z" fill="#000"/><path d="M112.5311,158.9741c-4.7914-12.6218-9.5434-25.2589-14.417-37.8489a8.822,8.822,0,0,1,.385-7.8072,12.3564,12.3564,0,0,0-1.1685-13.9621c-3.53-4.6193-8.2493-6.7262-14.05-5.4428a13.2772,13.2772,0,0,0-10.511,9.6556,12.6608,12.6608,0,0,0,.3,8.2152,9.29,9.29,0,0,1-.1545,6.8529q-10.6824,27.9791-21.3272,55.9725a16.3013,16.3013,0,0,0-.731,2.1587c-.5506,2.426.2418,3.7159,2.61,4.4746,1.3831.4431,2.7734.8874,4.1061,1.4581,2.0668.8853,2.8305.6839,3.6754-1.4528,1.4216-3.5954,2.74-7.2313,4.1033-10.85,3.6856-9.7861,7.3567-19.5777,11.0832-29.3481a13.1581,13.1581,0,0,1,1.5444-2.3729l.7359.1264a16.6079,16.6079,0,0,1,.6977,3.35c.0288,11.93-.0249,23.861-.0293,35.7916-.0012,3.4218,1.2284,4.5817,4.6424,4.4735,1.3292-.0421,2.6568-.15,3.9837-.247,2.1349-.1562,2.5134-.6195,2.5016-2.6778-.073-12.6908-.1454-25.3817-.1447-38.0727a15.9811,15.9811,0,0,1,.79-3.4951l.7528-.0739a17.946,17.946,0,0,1,1.545,2.6517q7.3816,19.5691,14.6954,39.1638c1.0864,2.8909,2.2336,3.4118,5.1177,2.44.9-.3032,1.7851-.6592,2.66-1.03,3.6716-1.5566,4.0439-2.37,2.6538-6.097C116.5881,169.6367,114.5555,164.3069,112.5311,158.9741Z" fill="#000"/><path d="M63.0929,95.7559c3.7288-2.2723,7.6082-4.2972,11.4216-6.4309.5423-.3034,1.0759-.6222,1.5958-.9236-2.3221-2.5921-4.6894-4.98-6.7629-7.6012-4.5437-5.7429-7.3685-12.3771-9.5526-19.3093-.209-.6633-.4168-1.3287-.6663-1.9773-.5758-1.4969-1.6549-1.92-3.0241-1.1459-4.9045,2.7741-9.8383,5.507-14.6119,8.4936a4.7353,4.7353,0,0,0-1.9238,3.4346c.07,10.0631,2.4661,20.3945,15.3943,25.9519A8.2584,8.2584,0,0,0,63.0929,95.7559Z" fill="#000"/><path d="M32.0181,82.0514c-.9881-2.7054-1.3714-2.8063-3.6812-1.1442a16.2531,16.2531,0,0,1-2.08,1.3323c-3.0517,1.5541-4.4133,3.7253-3.7714,7.3746.9957,5.66,3.5734,10.0871,8.5626,12.9951a6.8248,6.8248,0,0,0,7.3968-.0879c1.51-.912,3.0116-1.8384,4.727-2.8867A16.3271,16.3271,0,0,0,42.05,98.2355,42.158,42.158,0,0,1,32.0181,82.0514Z" fill="#000"/><path d="M187.4686,95.02a20.04,20.04,0,0,1,13.81,5.51l7.41-3.81a28.1015,28.1015,0,0,0-49.34,18.42,27.531,27.531,0,0,0,.79,6.59,28.1186,28.1186,0,0,0,55.1-11.03l-7.66,3.95c.01.16.01.32.01.49a20.1217,20.1217,0,0,1-40.05,2.77,19.4247,19.4247,0,0,1-.19-2.77A20.1481,20.1481,0,0,1,187.4686,95.02Z" fill="#000"/><path d="M236.0852,110.5236a47.9732,47.9732,0,0,0-1.8866-9.5934l-7.26,3.74a40.1887,40.1887,0,0,1,1.37,10.47,40.9,40.9,0,1,1-8.09-24.36l7.2-3.71a48.8627,48.8627,0,0,0-35.3324-20.53V45.35l-4.6176-7.4807L182.851,45.35V66.5247a48.917,48.917,0,0,0-43.998,43.9989H117.6774l-7.4807,4.6176,7.4807,4.6176h21.1757a48.917,48.917,0,0,0,43.9979,43.9969v21.1767l4.6176,7.4807,4.6176-7.4807V163.7557a48.9168,48.9168,0,0,0,43.9979-43.9969H257.26l7.4807-4.6176-7.4807-4.6176Z" fill="#000"/><path d="M187.4686,106.7872a8.354,8.354,0,1,0,8.3167,9.0913L250.99,87.438c2.8829-1.4852,7.4239,1.65,8.9054,4.5351h0L279.99,81.653l-11.1292-8.04,1.725-13.3239-20.0944,10.32c1.4343,2.7926.3355,9.2193-2.4554,10.6571l-54.541,28.0985A8.3229,8.3229,0,0,0,187.4686,106.7872Z" fill="#000"/></svg>