<svg id="Layer_1" data-name="Layer 1" xmlns="http://www.w3.org/2000/svg" viewBox="0 0 300 200"><title>0</title><path d="M183.7326,186.7606c-4.8889-.9216-9.89-1.4561-14.6448-2.84-12.4-3.61-22.2627-11.0709-30.2776-21.0862-.3413-.4265-.6459-.8845-.9437-1.3433-1.8626-2.8711-1.6853-3.8306,1.2713-5.531q20.8041-11.9652,41.64-23.8753c.4062-.2328.8152-.4619,1.2323-.6743,2.84-1.4464,3.3785-1.2144,4.0042,1.9971,1.3134,6.742,2.6291,13.4847,3.826,20.2479,1.6859,9.5272,3.2555,19.075,4.8945,28.6106.5933,3.4517.61,3.4641-2.5486,4.4946Z" fill="#000"/><path d="M73.619,66.2353c.2352-2.5747,1.5187-3.4929,4.1908-3.3631,4.836.2349,9.6917.0661,14.5391.0666,3.5467,0,3.8539.1681,3.9583,3.8227q.2748,9.6118.2557,19.2318-.0711,24.2764-.3,48.5522c-.035,3.6187-.1862,3.5947-3.8135,3.644-4.6874.0638-9.3768.1015-14.06.2872-1.905.0755-3.5456-.1795-4.77-1.763Z" fill="#000"/><path d="M125.3233,120.5063c-.0593-29.3007,21.7419-55.226,50.4623-59.9118a61.2345,61.2345,0,0,1,35.9176,4.8748c1.5078.685,1.847,1.6075,1.3326,2.9442a32.3269,32.3269,0,0,1-2.049,4.4614q-12.6318,22.0625-25.3646,44.0668a6.5246,6.5246,0,0,1-2.3523,2.1749q-23.8185,13.8015-47.6918,27.5081c-2.9416,1.6889-3.62,1.388-5.0373-1.7674A66.145,66.145,0,0,1,125.3233,120.5063Z" fill="#000"/><path d="M252.7552,120.1489c-.9205,5.2882-1.6987,10.607-2.8208,15.8521-.5709,2.6689-1.2991,2.8767-3.8659,1.9393Q222,129.1512,197.9521,120.3076c-2.6271-.9661-2.8945-1.558-1.537-3.9423,8.543-15.0053,17.1524-29.9728,25.6855-44.9837,1.14-2.0051,2.4234-1.84,4.0333-.7791a57.0159,57.0159,0,0,1,17.8579,19.271A66.7543,66.7543,0,0,1,252.7552,120.1489Z" fill="#000"/><path d="M120.3478,138.2473c-3.6045,0-7.3438.0487-11.081-.02-1.99-.0364-2.8578-1.1641-2.8543-3.1893q.05-29.4676.0292-58.9355.0008-18.9017-.01-37.8032c0-3.3585.5972-3.9464,3.9442-3.9468q7.6254-.0009,15.2509,0c2.8507.0009,3.4017.4459,3.4455,3.4.14,9.4651.2015,18.9314.2925,28.3973.0037.3913-.027.7849.0045,1.1737a34.3005,34.3005,0,0,1-4.807,21.32c-6.4646,10.8322-7.6923,23.1658-6.4958,35.6325C118.5029,128.8263,119.5247,133.32,120.3478,138.2473Z" fill="#000"/><path d="M193.8348,130.3809c.0252-2.4579.9731-3.15,3.551-2.2235q19.041,6.8422,38.0455,13.7865c2.8576,1.0412,5.64,2.2993,8.5261,3.2481,2.1633.7112,2.5781,2.0765,1.54,3.7519-2.9513,4.7635-5.6645,9.7593-9.2113,14.0517-7.7711,9.4049-17.8991,15.4335-29.5753,18.8756-2.73.8047-3.5711.435-4.1122-2.397-1.8744-9.8106-3.6579-19.6391-5.4166-29.4714C196.0139,143.4716,194.947,136.9221,193.8348,130.3809Z" fill="#000"/><path d="M194.8267,53.5388H171.91V51.1767c0-11.4167.0628-22.834-.05-34.25-.0243-2.4571.9791-3.4841,3.2176-3.5227,5.7021-.0984,11.4062-.21,17.1077-.1465,1.9709.0219,2.6844,1.4405,2.6767,3.369-.042,10.4776-.0294,20.9555-.0351,31.4333C194.8258,50,194.8267,51.9407,194.8267,53.5388Z" fill="#000"/><path d="M139.3386,69.21c0-7.8452.0077-15.2629-.006-22.6806-.003-1.6439.7358-2.4562,2.4055-2.4492,6.0135.0248,12.0272.0507,18.0407.0268,1.6049-.0063,2.0389,1.029,2.091,2.2585.1225,2.8883.1675,5.7833.1073,8.6728a1.9855,1.9855,0,0,1-1.0764,1.4407A72.9439,72.9439,0,0,0,139.3386,69.21Z" fill="#000"/></svg>