<svg id="Layer_1" data-name="Layer 1" xmlns="http://www.w3.org/2000/svg" viewBox="0 0 300 200"><title>0</title><path d="M160.903,14.1534c-22.5491,7.0654-39.4243,20.8717-49.3377,42.4453-9.9043,21.5541-10.1074,43.55-.2846,65.0961,10.7352,23.5467,29.0771,38.5045,54.4338,44.0009,25.2415,5.4715,47.8425-.8016,67.9382-16.941a2.6528,2.6528,0,0,1-.2459.704,92.3881,92.3881,0,0,1-14.7017,16.1266,84.6071,84.6071,0,0,1-15.3935,10.5363,66.7624,66.7624,0,0,1-12.8887,5.5563c-3.8854,1.1271-7.7571,2.3789-11.7178,3.1464a91.9294,91.9294,0,0,1-11.7345,1.3445,60.121,60.121,0,0,1-9.7735-.0847,133.7837,133.7837,0,0,1-13.57-2.0763,60.6275,60.6275,0,0,1-10.5953-3.07,130.4056,130.4056,0,0,1-13.6544-6.5277,78.455,78.455,0,0,1-19.8366-16.0128,84.7507,84.7507,0,0,1-13.642-19.6755,86.0586,86.0586,0,0,1-5.4853-13.5933,79.8712,79.8712,0,0,1-3.5575-27.9044,109.6963,109.6963,0,0,1,1.8174-15.4558A83.387,83.387,0,0,1,92.6892,50.0364,87.7992,87.7992,0,0,1,113.4721,29.32a77.9726,77.9726,0,0,1,19.4456-10.2247,107.3991,107.3991,0,0,1,14.4735-3.9967c3.9922-.79,8.0524-1.6185,12.1931-1.3839.4157.0235.831.0529,1.2466.08Z" fill="#000"/><path d="M227.5747,61.9278a4.5073,4.5073,0,0,0-3.12-4.6316,33.3537,33.3537,0,0,0-8.8475-2.1337c-.71-.0957-.8719-.3274-.8608-.9823.033-1.9608.1067-3.9326-.0332-5.8824a3.6205,3.6205,0,0,0-.9785-2.3544,10.7991,10.7991,0,0,0-3.51-1.9535c-5.8309-1.8872-11.9047-2.3066-17.9636-2.5972A135.3888,135.3888,0,0,0,164.9245,42.57a27.3843,27.3843,0,0,0-8.1081,2.2441,4.1625,4.1625,0,0,0-2.5568,4.1239c.07,3.7892.0184,7.5857.0257,11.3749a5.99,5.99,0,0,0,.092,1.0889,4.3319,4.3319,0,0,0,3.425,3.2705c2.7849.8167,5.6507,1.3612,8.4723,2.06.2943.0736.7468.3937.7505.6107.0515,2.6819.0331,5.3674.0331,8.1964a29.9829,29.9829,0,0,0-21.9515-3.5832,29.3975,29.3975,0,0,0-18.4308,12.3094,30.2739,30.2739,0,0,0,41.2505,42.733,15.0907,15.0907,0,0,0,6.6145,2.7959,102.0392,102.0392,0,0,0,17.6,1.8505,124.7235,124.7235,0,0,0,25.9172-1.4826,40.1425,40.1425,0,0,0,6.9309-2.016,3.8886,3.8886,0,0,0,2.5788-4.05Q227.49,93.012,227.5747,61.9278Zm-4.3889,3.1491a1.3036,1.3036,0,0,1,.2759,0c.0184.2354.0552.4782.0552.7247.0037,2.0969-.0625,4.1938.0294,6.2834.0442.99-.2979,1.4862-1.2029,1.6923-2.5457.5738-5.0657,1.3022-7.6372,1.6885a125.7724,125.7724,0,0,1-21.9773,1.008,82.0182,82.0182,0,0,1-18.74-2.1668c-2.7849-.7284-2.7739-.7726-2.7739-3.6016V67.38c3.1859.14,6.232.3127,9.2854.3936,2.5237.0662,5.051.0405,7.5747.0332,5.2533-.0221,10.5067.033,15.7527-.1178C210.3652,67.4975,216.873,66.9788,223.1858,65.0769ZM181.7109,105.47c13.814,1.0706,27.8376,1.3906,41.806-2.027,0,2.5457.0221,5.1025-.0294,7.6593a1.1277,1.1277,0,0,1-.6843.7836,70.23,70.23,0,0,1-6.8168,1.7106,123.9415,123.9415,0,0,1-23.7541,1.1919c-4.3079-.114-8.6047-.5849-12.88-.8939C180.1548,111.0289,180.909,108.34,181.7109,105.47Zm-1.0926-12.9089c14.237,1.2507,28.6028,1.5561,42.8986-1.8726,0,2.5642.0221,5.1761-.0368,7.7844-.0073.25-.4856.6254-.8056.71-2.2331.5886-4.4588,1.2619-6.7322,1.6408a125.5968,125.5968,0,0,1-23.4488,1.1993c-3.5427-.0736-7.078-.4231-10.4956-.64C181.5086,98.2708,181.0671,95.4344,180.6183,92.5613Zm42.8655-7.0634a1.2025,1.2025,0,0,1-.7247.8572,69.8422,69.8422,0,0,1-6.8168,1.6923,121.9959,121.9959,0,0,1-23.6511,1.1845c-4.2417-.1177-8.4723-.6437-12.7067-.9969a1.6428,1.6428,0,0,1-1.4347-.997,29.4631,29.4631,0,0,0-6.471-8.2773,3.4656,3.4656,0,0,1-.5408-.9307,129.4789,129.4789,0,0,0,52.3789-.0074C223.5169,80.4469,223.5427,82.9743,223.4838,85.4979ZM161.2273,61.5342c-2.8-.7358-2.7886-.7726-2.7886-3.5942V52.488a129.2952,129.2952,0,0,0,52.3017-.0148c0,2.4281.0184,5.0143-.0294,7.5968-.0037.2465-.3863.618-.6622.699a49.838,49.838,0,0,1-5.636,1.523,128.52,128.52,0,0,1-27.8265,1.2471A73.5085,73.5085,0,0,1,161.2273,61.5342ZM151.5042,127.62a26.1288,26.1288,0,1,1,26.149-26.0312A26.0165,26.0165,0,0,1,151.5042,127.62Zm70.74-2.6965c-3.0056.6438-5.9928,1.4237-9.0278,1.8394a125.8231,125.8231,0,0,1-20.69.8093,82.3765,82.3765,0,0,1-18.6332-2.1778c-.64-.1656-1.2581-.4047-1.88-.6291-.206-.0736-.39-.206-.9087-.4783a5.0921,5.0921,0,0,0,.96-.629c1.5635-1.8027,3.1417-3.5979,4.6316-5.4594a1.2184,1.2184,0,0,1,1.31-.5629,134.9165,134.9165,0,0,0,27.4255,1.1331c5.9891-.2869,11.9745-.802,17.7613-2.5788a1.1736,1.1736,0,0,1,.2685-.0037c.0184.2391.0552.4856.0552.7321.0037,2.0638-.0846,4.1276.0368,6.1841A1.4949,1.4949,0,0,1,222.2441,124.9238Z" fill="#000"/><path d="M146.7511,96.722c0,1.6444-1.2544,2.7039-3.37,2.7039h-1.6739V94.2425a10.62,10.62,0,0,1,1.924-.14C145.5813,94.1321,146.7511,94.993,146.7511,96.722Z" fill="#000"/><path d="M173.22,100.7944a21.7292,21.7292,0,1,0-20.7926,22.4224A21.7133,21.7133,0,0,0,173.22,100.7944Zm-25.8841,9.0794a23.5089,23.5089,0,0,1-1.31-4.3742c-.5-2.3434-1.31-2.9835-3.0387-3.0092h-1.28v7.3834h-4.2048v-18.53a37.541,37.541,0,0,1,5.6542-.39c2.7849,0,4.7347.4194,6.0738,1.4789a4.7646,4.7646,0,0,1,1.729,3.929,4.9818,4.9818,0,0,1-3.3183,4.6242v.081c1.31.53,2.0344,1.7842,2.509,3.5132.5849,2.1154,1.17,4.5691,1.53,5.2939Zm11.2829.2759a12.2754,12.2754,0,0,1-5.32-1.14l.8608-3.51a10.8476,10.8476,0,0,0,4.7089,1.17c1.95,0,2.9835-.8093,2.9835-2.0344,0-1.17-.8939-1.8394-3.1491-2.6487-3.12-1.0853-5.154-2.8143-5.154-5.544,0-3.2042,2.6745-5.6543,7.1038-5.6543a11.5306,11.5306,0,0,1,4.7935.9454l-.9492,3.4287a8.8948,8.8948,0,0,0-3.9289-.89c-1.8394,0-2.73.8351-2.73,1.81,0,1.1956,1.0595,1.7254,3.4839,2.6451,3.3146,1.2287,4.8744,2.954,4.8744,5.6028C166.1974,107.4752,163.773,110.15,158.619,110.15Z" fill="#000"/></svg>