<svg id="Layer_1" data-name="Layer 1" xmlns="http://www.w3.org/2000/svg" viewBox="0 0 300 200"><title>0</title><path d="M178.9968,35.92a3.5419,3.5419,0,0,0-2.4482-3.6379,26.37,26.37,0,0,0-6.9532-1.6778c-.5565-.0726-.6856-.2541-.6775-.77.0282-1.5406.0847-3.0894-.0242-4.622a2.8425,2.8425,0,0,0-.7663-1.8472,8.5159,8.5159,0,0,0-2.7587-1.5366c-4.5777-1.48-9.349-1.8109-14.1081-2.0368a106.2753,106.2753,0,0,0-21.4767.92,21.7453,21.7453,0,0,0-6.3684,1.7625,3.29,3.29,0,0,0-2.0086,3.2427c.0565,2.9764.0162,5.957.02,8.9375a4.3154,4.3154,0,0,0,.0766.851,3.4008,3.4008,0,0,0,2.6861,2.5732c2.19.6372,4.4406,1.0688,6.6548,1.6132.23.06.5848.3106.5888.48.04,2.1094.0283,4.2187.0283,6.441A23.5576,23.5576,0,0,0,114.22,43.7963a23.0891,23.0891,0,0,0-14.4792,9.6716,23.7795,23.7795,0,0,0,32.4027,33.5642,11.785,11.785,0,0,0,5.1947,2.194,79.9785,79.9785,0,0,0,13.8258,1.456,97.9555,97.9555,0,0,0,20.3555-1.1656,31.026,31.026,0,0,0,5.4448-1.585,3.046,3.046,0,0,0,2.0246-3.1782Q178.9283,60.3364,178.9968,35.92Zm-3.4484,2.4724a1.2347,1.2347,0,0,1,.2178,0c.0121.1855.04.3791.0444.5686,0,1.6456-.0524,3.2952.0242,4.9367.0322.7784-.238,1.17-.9478,1.3269-1.9964.4517-3.9767,1.0244-6.0014,1.3269a98.3575,98.3575,0,0,1-17.258.7905,64.16,64.16,0,0,1-14.7211-1.698c-2.19-.5727-2.182-.609-2.182-2.8313V40.2028c2.5046.1089,4.8963.242,7.296.3065,1.98.0524,3.9687.0322,5.949.0242,4.1259-.0161,8.2519.0282,12.3738-.0887A58.011,58.011,0,0,0,175.5484,38.3919Zm-32.576,31.729c10.8493.843,21.8639,1.093,32.8382-1.5891,0,1.9965.0161,4.005-.0242,6.0135a.8723.8723,0,0,1-.54.6131,53.8254,53.8254,0,0,1-5.352,1.3471,97.5826,97.5826,0,0,1-18.6615.9357c-3.38-.0888-6.7556-.46-10.1153-.7018C141.75,74.4848,142.3392,72.3755,142.9724,70.1209Zm-.8591-10.1394c11.184.98,22.4689,1.2221,33.6973-1.4721,0,2.0125.0161,4.0654-.0323,6.1183-.004.1936-.3791.4881-.6292.5566-1.7544.4638-3.5048.9922-5.2875,1.2866a98.7306,98.7306,0,0,1-18.4195.9438c-2.7829-.06-5.5618-.3348-8.2479-.5042C142.8111,64.4664,142.4642,62.2361,142.1133,59.9815Zm33.6691-5.55a.9443.9443,0,0,1-.5687.6736,54.9463,54.9463,0,0,1-5.3561,1.3309,96.055,96.055,0,0,1-18.5769.9317c-3.3314-.0928-6.6547-.5082-9.9781-.7865a1.2894,1.2894,0,0,1-1.1293-.7824,23.1332,23.1332,0,0,0-5.0858-6.5015,2.5755,2.5755,0,0,1-.4194-.7341,101.696,101.696,0,0,0,41.1425,0C175.8106,50.4672,175.8308,52.4515,175.7824,54.4318ZM126.88,35.6089c-2.1981-.5767-2.19-.6049-2.19-2.8232V28.5025a101.5636,101.5636,0,0,0,41.086-.0121c0,1.9077.0121,3.94-.0242,5.9691-.004.1936-.3025.484-.52.5485a39.0708,39.0708,0,0,1-4.4284,1.1979,100.8388,100.8388,0,0,1-21.8558.976A57.6643,57.6643,0,0,1,126.88,35.6089ZM119.2452,87.52a20.5249,20.5249,0,1,1,20.5369-20.4483A20.4364,20.4364,0,0,1,119.2452,87.52ZM174.81,85.4027c-2.3594.5041-4.7067,1.1172-7.09,1.4439a99.0378,99.0378,0,0,1-16.2537.6372,64.8545,64.8545,0,0,1-14.6365-1.71c-.5-.129-.9881-.3186-1.4761-.4961-.1613-.0605-.3065-.1613-.7139-.375a3.8006,3.8006,0,0,0,.7542-.4961c1.23-1.4157,2.4683-2.8232,3.638-4.2873a.9606.9606,0,0,1,1.0284-.44,105.7927,105.7927,0,0,0,21.5453.8873,56.1049,56.1049,0,0,0,13.9468-2.0247.8479.8479,0,0,1,.2137-.004c.0162.19.04.3831.0444.5767,0,1.6214-.0686,3.2427.0282,4.856A1.1744,1.1744,0,0,1,174.81,85.4027Z" fill="#000"/><path d="M115.51,63.2484c0,1.2906-.9841,2.1255-2.65,2.1255H111.55V61.3a8.24,8.24,0,0,1,1.5084-.1088C114.5908,61.2157,115.51,61.8932,115.51,63.2484Z" fill="#000"/><path d="M136.3015,66.4507a17.0689,17.0689,0,1,0-16.33,17.6089A17.0564,17.0564,0,0,0,136.3015,66.4507ZM115.97,73.5774a18.1437,18.1437,0,0,1-1.0285-3.4323c-.3952-1.8391-1.0284-2.3433-2.3876-2.3634H111.55v5.7957h-3.3072V59.0256a29.5419,29.5419,0,0,1,4.4446-.3065c2.186,0,3.7186.3267,4.7713,1.1616a3.7369,3.7369,0,0,1,1.3551,3.0854,3.9083,3.9083,0,0,1-2.6054,3.63v.0686a3.7082,3.7082,0,0,1,1.9722,2.7547c.46,1.6657.9195,3.59,1.2019,4.1582Zm8.8609.2218a9.6483,9.6483,0,0,1-4.1784-.8994l.6776-2.7547a8.5114,8.5114,0,0,0,3.6984.9156c1.5326,0,2.3433-.6332,2.3433-1.5972,0-.9195-.7018-1.4438-2.4723-2.0771-2.4522-.855-4.0493-2.21-4.0493-4.3558,0-2.5167,2.1013-4.4446,5.5779-4.4446a9.0159,9.0159,0,0,1,3.7669.7462l-.7461,2.69a7.0413,7.0413,0,0,0-3.0854-.6978c-1.4439,0-2.1456.6575-2.1456,1.42,0,.9438.8348,1.3592,2.7385,2.0811,2.6014.964,3.8275,2.3191,3.8275,4.4C130.7841,71.6979,128.88,73.7992,124.8311,73.7992Z" fill="#000"/><path d="M245.625,52.9194c-2.3513-5.3762-6.51-8.2922-12.3818-8.4294-5.8119-.1371-10.74,2.2062-14.9914,6.0377a40.5368,40.5368,0,0,0-8.4213,11.4906c-4.4163,8.3567-8.7278,16.77-13.1724,25.1106-4.9164,9.2158-11.2526,17.2177-20.1095,23.0093-7.9776,5.2149-16.6328,8.2035-26.2519,7.6711-11.8173-.6574-22.0495-5.2109-30.9225-12.9828a82.015,82.015,0,0,0-6.808-5.4771c-4.9084-3.4483-10.3129-5.356-16.4312-4.7873-9.3651.8711-16.6732,9.3569-15.9432,18.5647a9.7274,9.7274,0,0,0,7.9776,8.8851c4.7229.8268,8.7319-2.15,8.8488-6.5821a7.0377,7.0377,0,0,0-2.4642-5.5215,4.2,4.2,0,0,1,4.4-1.706,15.1421,15.1421,0,0,1,4.9,1.8512c2.4845,1.6576,4.7309,3.6823,7.07,5.5618,5.7634,4.63,7.5824,10.76,6.2353,17.7783a105.7889,105.7889,0,0,1-6.7274,21.5856,22.8024,22.8024,0,0,1-1.7423,2.9563,1.2763,1.2763,0,0,1-1.98.4719c-3.0975-1.698-6.2555-3.2871-9.3651-4.9649-2.9644-1.6052-6.1828-.8913-7.7558,1.7827a5.484,5.484,0,0,0,2.2465,7.7236c24.3161,13.9467,50.2091,20.2828,78.26,16.2013a129.5281,129.5281,0,0,0,30.0593-8.3044,5.11,5.11,0,0,0,3.34-4.57,5.4718,5.4718,0,0,0-7.5542-5.57c-3.7347,1.3471-7.5057,2.6054-11.2284,3.9888a1.3959,1.3959,0,0,1-2.0771-.8792,27.9155,27.9155,0,0,1-1.3148-3.4645,95.8281,95.8281,0,0,1-3.1257-20.533c-.3549-8.7439,2.5207-16.1811,9.9337-21.5291a63.839,63.839,0,0,0,8.1914-7.1065,77.4372,77.4372,0,0,0,12.7328-18.1816c4.2349-7.9534,8.268-16.0117,12.5594-23.9329a45.2192,45.2192,0,0,1,5.3843-7.8244c1.1373-1.3229,3.0248-2.0247,4.63-2.9079.7139-.3913,1.3068-.2219,1.8029.6654a6.8188,6.8188,0,0,0,12.1963-6.082ZM160.8233,169.301c-2.7708.1694-5.5618.0283-8.3407.0283a75.774,75.774,0,0,1-24.0983-2.8152c-4.9-1.4479-6.8241-4.1179-6.05-9.1473a41.1261,41.1261,0,0,1,2.3473-9.1916c2.5852-6.3926,7.5582-10.1031,14.346-11.2082,6.0014-.9761,12.0552-1.331,18.0485.0282a25.04,25.04,0,0,1,5.7876,2.182,8.8185,8.8185,0,0,1,4.7592,5.78,102.78,102.78,0,0,1,2.666,13.616C170.9385,165.26,167.5385,168.89,160.8233,169.301Z" fill="#000"/></svg>