<svg id="Layer_1" data-name="Layer 1" xmlns="http://www.w3.org/2000/svg" viewBox="0 0 300 200"><title>0</title><path d="M257.2791,62.9071c.0161-4.3193-1.8934-6.6431-5.5242-8.1976-5.0132-2.1516-10.3223-3.0714-15.669-3.7814-1.2533-.1667-1.5437-.5809-1.5276-1.7374.0645-3.4748.1882-6.9658-.0538-10.4245a6.4209,6.4209,0,0,0-1.732-4.1633,19.0051,19.0051,0,0,0-6.2181-3.4587c-10.3223-3.34-21.0748-4.088-31.8059-4.599-16.1854-.7692-32.3546-.42-48.4109,2.0817-4.9325.7691-9.8381,1.7266-14.3564,3.975a7.3784,7.3784,0,0,0-4.5291,7.3047c.1237,6.7129.0323,13.4259.043,20.1442a10.4477,10.4477,0,0,0,.1667,1.92c.6563,3.3458,3.2221,4.97,6.0622,5.7986,4.9379,1.4416,10.0049,2.41,15.0019,3.6469.5218.1237,1.3233.6993,1.3286,1.0758.0914,4.755.0592,9.51.0592,14.5179-12.28-7.0841-25.2436-9.2734-38.8685-6.3418a52.0415,52.0415,0,0,0-32.64,21.7956,53.94,53.94,0,0,0,2.824,64.9081c14.5071,17.4064,43.71,27.1961,70.2226,10.7634,3.3565,2.5281,6.5569,3.8782,11.7154,4.9486a179.8888,179.8888,0,0,0,31.16,3.2758c15.3785.4841,30.7194.0861,45.8935-2.6249a70.7675,70.7675,0,0,0,12.28-3.5717c3.066-1.1511,4.5722-3.5609,4.5614-7.1648Q257.1258,117.9476,257.2791,62.9071Zm-7.7726,5.578a2.1943,2.1943,0,0,1,.4841-.0054c.0376.42.0968.8553.1022,1.291.0054,3.7061-.113,7.4229.0538,11.1237.0806,1.7535-.5326,2.6357-2.13,2.9961-4.5076,1.0166-8.9722,2.3022-13.5282,2.9907-12.8987,1.9418-25.9105,2.1193-38.9169,1.78-11.1559-.285-22.3066-.9843-33.1829-3.8352-4.9325-1.2909-4.9109-1.3662-4.9109-6.3741v-5.89c5.6371.2475,11.0376.5487,16.4381.6939,4.47.1184,8.9452.0753,13.4206.0592,9.3-.0376,18.6005.0592,27.89-.21C226.8018,72.7721,238.3289,71.8523,249.5065,68.4851Zm-73.4446,71.53c24.4636,1.8934,49.2983,2.4582,74.0309-3.5878,0,4.5022.0377,9.0314-.0538,13.5605a1.9894,1.9894,0,0,1-1.21,1.3824,122.6188,122.6188,0,0,1-12.07,3.0337c-13.9262,2.3345-28.003,2.4743-42.069,2.1086-7.622-.1991-15.2279-1.0328-22.8015-1.5815C173.3079,149.8529,174.6418,145.0979,176.0619,140.0147Zm-1.9364-22.8606c25.2166,2.2107,50.6538,2.754,75.9673-3.3189,0,4.54.0377,9.1658-.0646,13.7864-.0107.4464-.8606,1.108-1.4308,1.2587-3.9535,1.0435-7.8909,2.2376-11.9144,2.9046-13.7487,2.2968-27.6372,2.4152-41.5257,2.1247-6.2719-.1345-12.5384-.7531-18.59-1.135C175.7069,127.2612,174.9215,122.2372,174.1255,117.1541Zm75.9081-12.5061a2.1343,2.1343,0,0,1-1.28,1.5115,122.5368,122.5368,0,0,1-12.0758,3.0014c-13.867,2.3237-27.8793,2.4851-41.8808,2.0978-7.509-.21-15.0019-1.1457-22.5-1.7643a2.92,2.92,0,0,1-2.5389-1.77A52.2941,52.2941,0,0,0,158.2952,93.067a5.9531,5.9531,0,0,1-.9521-1.6513,229.22,229.22,0,0,0,92.75-.0054C250.0928,95.7027,250.1412,100.178,250.0336,104.648ZM139.7914,62.2132c-4.954-1.3017-4.9379-1.3716-4.9379-6.3633V46.1892a228.8474,228.8474,0,0,0,92.6153-.0269c0,4.2978.0323,8.8807-.0484,13.4582-.0107.43-.6885,1.092-1.1726,1.2372a89.4834,89.4834,0,0,1-9.9834,2.6949c-16.3252,2.797-32.7849,2.9745-49.2768,2.2053C157.8218,65.333,148.699,64.553,139.7914,62.2132Zm-17.2181,117.02a46.2674,46.2674,0,1,1,.1022-92.5346c26.97.07,46.2754,22.199,46.2055,46.4367C168.8056,158.4162,147.9029,179.5126,122.5733,179.2329Zm125.2657-4.7712c-5.32,1.14-10.6073,2.5174-15.9863,3.26-12.1512,1.6728-24.4045,1.7643-36.6363,1.4308-11.0968-.3013-22.1775-1.0435-33-3.8568-1.13-.29-2.2269-.7207-3.3242-1.1188a17.2332,17.2332,0,0,1-1.6083-.8445,8.6817,8.6817,0,0,0,1.6943-1.1134c2.7756-3.19,5.5673-6.3687,8.203-9.6661a2.1709,2.1709,0,0,1,2.3237-.9951c16.11,2.5336,32.3331,2.77,48.5668,2.001,10.6019-.5,21.1986-1.4147,31.4455-4.5667a2.1553,2.1553,0,0,1,.4788-.0054c.0322.43.0968.866.0968,1.3017.0054,3.6523-.1507,7.31.0645,10.9462C250.2757,173.1815,249.5226,174.1013,247.839,174.4617Z" fill="#000"/><path d="M114.1552,124.5233c0,2.91-2.2215,4.7819-5.9707,4.7819h-2.9584v-9.1766a18.9131,18.9131,0,0,1,3.4049-.2474C112.0843,119.935,114.1552,121.4627,114.1552,124.5233Z" fill="#000"/><path d="M161.0277,131.7365a38.4781,38.4781,0,1,0-36.8192,39.7022A38.4458,38.4458,0,0,0,161.0277,131.7365Zm-45.8344,16.0724c-.5432-.936-1.3339-3.6524-2.3183-7.7458-.8875-4.1471-2.3183-5.2821-5.3789-5.3305h-2.27v13.0763h-7.45V114.9971a66.3672,66.3672,0,0,1,10.0156-.6885c4.9325,0,8.3858.7369,10.7525,2.6142a8.4464,8.4464,0,0,1,3.0607,6.955,8.8263,8.8263,0,0,1-5.8685,8.1922v.1452c2.3184.9413,3.5986,3.1575,4.4377,6.2181,1.0382,3.7492,2.0709,8.09,2.7164,9.3756Zm19.9776.4948a21.7419,21.7419,0,0,1-9.4239-2.0278l1.5329-6.2128a19.2322,19.2322,0,0,0,8.3374,2.071c3.4534,0,5.2768-1.4309,5.2768-3.604,0-2.0709-1.576-3.2542-5.5726-4.6851-5.5242-1.9256-9.1281-4.9809-9.1281-9.8166,0-5.6748,4.7335-10.0156,12.5814-10.0156a20.3483,20.3483,0,0,1,8.4827,1.6782l-1.6729,6.0675a15.8337,15.8337,0,0,0-6.96-1.5814c-3.2543,0-4.8357,1.4846-4.8357,3.2112,0,2.1193,1.8773,3.0553,6.17,4.6851,5.8685,2.1731,8.6333,5.2284,8.6333,9.9188C148.5915,143.5649,144.2991,148.3037,135.1709,148.3037Z" fill="#000"/></svg>