<svg id="Layer_1" data-name="Layer 1" xmlns="http://www.w3.org/2000/svg" viewBox="0 0 300 200"><title>0</title><path d="M115.2687,117.2462a24.8006,24.8006,0,0,0-4.4971.3259v12.1226h3.91c4.9534,0,7.8861-2.4767,7.8861-6.322C122.5682,119.3319,119.8309,117.3115,115.2687,117.2462Z" fill="#000"/><path d="M207.4241,106.0759a87.7359,87.7359,0,0,1,9.9472-.266c2.2612-.033,4.5233-.0064,7.0567-.0064-6.806-17.3248-18.779-29.5768-34.2186-38.97a14.9968,14.9968,0,0,1-9.9968,7.8192c1.0549,2.3761,2.1577,4.5859,3.0174,6.8865a2.6827,2.6827,0,0,1-1.5481,3.7073,2.9315,2.9315,0,0,1-3.8566-2.0316c-.7571-3.0767-2.6534-5.3941-4.79-7.5406a3.6293,3.6293,0,0,0-2.3071-.9911q-14.7709-.1-29.5426-.0089a3.6788,3.6788,0,0,0-2.2192.8578c-2.2194,1.9562-4.34,4.0257-6.4806,6.07-1.4857,1.4188-2.93,2.88-4.42,4.2942-1.48,1.4039-3.1221,1.4782-4.3071.2431-1.1752-1.2247-1.0908-2.7079.26-4.1671.6153-.6647,1.2533-1.3095,1.8977-1.9466q2.6574-2.6277,5.3289-5.2413-.0571-.22-.1147-.44c-6.7379.5491-12.056-1.7037-15.5085-7.7379a78.681,78.681,0,0,0-20.488,16.5721c-13.62,15.9981-20.0925,34.4649-18.92,55.4641,1.0332,18.5138,9.8052,31.6946,27.3272,38.6189,11.1042,4.3882,22.7662,6.02,34.5586,6.3295,11.5792.3033,23.1875.0908,34.7647-.3614,6.2908-.2457,12.5437-1.4616,18.1909-2.1626,1.0947-3.3489,1.8878-6.1059,2.9244-8.7684a2.5865,2.5865,0,0,0-.0211-2.4728,16.6109,16.6109,0,0,1-.0292-16.1331,2.6758,2.6758,0,0,0-.0318-2.8008,16.7038,16.7038,0,0,1-.015-15.985,2.8668,2.8668,0,0,0,0-2.9693A17.8763,17.8763,0,0,1,207.4241,106.0759Zm-83.4873,48.0592c-.7166-1.2382-1.76-4.8228-3.0631-10.2324-1.173-5.4747-3.0633-6.9736-7.1039-7.0388h-2.9982v17.2712H100.93V110.794a87.2574,87.2574,0,0,1,13.23-.9125c6.5175,0,11.08.9775,14.2082,3.4542,2.6068,2.0857,4.0407,5.1488,4.0407,9.19a11.657,11.657,0,0,1-7.756,10.8188v.1956c3.0634,1.2385,4.7579,4.1712,5.8659,8.212,1.3689,4.9534,2.7375,10.6887,3.5846,12.3832Zm26.3958.6519c-5.0186,0-9.9719-1.3035-12.4484-2.6723l2.0206-8.212a25.341,25.341,0,0,0,11.0144,2.7373c4.5622,0,6.9738-1.89,6.9738-4.7577,0-2.7374-2.0857-4.3015-7.365-6.1916-7.2995-2.5418-12.0573-6.5826-12.0573-12.97,0-7.4951,6.2569-13.23,16.62-13.23a26.9178,26.9178,0,0,1,11.21,2.2158l-2.2162,8.0166a20.8815,20.8815,0,0,0-9.1894-2.0857c-4.3017,0-6.3872,1.9554-6.3872,4.2364,0,2.8026,2.4766,4.0409,8.1466,6.1916,7.7559,2.8677,11.4059,6.9086,11.4059,13.1C168.06,148.53,162.39,154.787,150.3326,154.787Z" fill="#000"/><path d="M118.224,31.5322c2.3249,5.0259,4.65,10.0514,6.8675,14.8443,3.6378,0,7.0733-.0082,10.5086.0014q20.2856.0572,40.5712.1277c1.0382.0037,1.9128.0638,2.4155-1.2585,2.0989-5.5217,4.4-10.9671,6.4581-16.5033a8.3838,8.3838,0,0,0,.3516-4.2166,13.4441,13.4441,0,0,0-22.07-7.72,15.5092,15.5092,0,0,0-1.6668,2.0555c-2.9874-3.6372-6.5072-5.4587-10.7947-5.4434a13.74,13.74,0,0,0-10.64,5.0964,1.6332,1.6332,0,0,1-.3305-.136c-.2614-.2482-.5208-.4988-.7731-.7559A12.874,12.874,0,0,0,125.51,14.11a13.3015,13.3015,0,0,0-8.3934,7.2141,8.7984,8.7984,0,0,0,.727,9.3891A6.08,6.08,0,0,1,118.224,31.5322Z" fill="#000"/><path d="M176.7013,52.1475q-23.9088-.01-47.8181.0017c-5.2869.0032-9.2236,3.7008-9.2288,8.62-.0053,5.1209,3.7891,8.73,9.237,8.74q11.9544.0236,23.9088.0038,11.9547-.0006,23.9091-.0045c5.2-.01,9.1841-3.6739,9.2293-8.44A8.9933,8.9933,0,0,0,176.7013,52.1475Z" fill="#000"/><path d="M209.7919,130.3114q16.8321.0675,33.6649.0092a6.1981,6.1981,0,0,0,5.6206-3.043,6.2893,6.2893,0,0,0,.1624-6.5511,6.1777,6.1777,0,0,0-5.8181-3.3177c-5.61-.0308-11.2216-.01-16.8323-.0083q-8.3257.0018-16.6515.0034a6.4686,6.4686,0,0,0-6.8144,6.445A6.5472,6.5472,0,0,0,209.7919,130.3114Z" fill="#000"/><path d="M243.4561,173.66q-16.5606-.0344-33.1212,0c-4.1361.0083-6.9511,2.706-6.9,6.5078.05,3.7364,2.9789,6.4033,7.0608,6.4091q8.2352.0115,16.47-.0008c5.49-.0027,10.98.015,16.47-.0086,4.0877-.0175,6.8022-2.5584,6.85-6.3453C250.3355,176.3568,247.5836,173.6691,243.4561,173.66Z" fill="#000"/><path d="M209.976,148.863c5.6763.0438,11.3533.0134,17.03.0133,5.4954,0,10.991.0181,16.4864-.0064,4.06-.0179,6.792-2.6244,6.7922-6.4129,0-3.7114-2.81-6.4672-6.7934-6.4815q-16.6674-.06-33.3354-.0116a6.2956,6.2956,0,0,0-5.5956,2.7778,6.1283,6.1283,0,0,0-.4314,6.5253A6.2507,6.2507,0,0,0,209.976,148.863Z" fill="#000"/><path d="M210.0476,167.7076c5.6155.0619,11.2322.0142,16.8484.0142v.0071c5.5557,0,11.1118.0264,16.6673-.0088,3.9535-.0252,6.6509-2.5943,6.73-6.3081a6.3992,6.3992,0,0,0-6.5107-6.5789c-11.2923-.07-22.5854-.05-33.8779-.0057a6.1129,6.1129,0,0,0-5.7531,3.44A6.4616,6.4616,0,0,0,210.0476,167.7076Z" fill="#000"/></svg>