<svg id="Layer_1" data-name="Layer 1" xmlns="http://www.w3.org/2000/svg" viewBox="0 0 300 200"><title>0</title><path d="M202.4426,138.4087q0-17.495.0036-34.99a10.2039,10.2039,0,1,1,20.4006-.4131c.0608,17.9231.0231,35.8466.0225,53.77,0,5.6225.0087,11.245-.0153,16.8674a10.2725,10.2725,0,0,1-8.49,10.0671,10.1279,10.1279,0,0,1-11.3768-6.9127,13.611,13.611,0,0,1-.5222-3.9581C202.4263,161.3626,202.4429,149.8856,202.4426,138.4087Z" fill="#000"/><path d="M144.2645,86.5322l52.3933-47.8965L185.373,27.4646l30.78-3.9252c-1.3043,10.2337-2.5865,20.2944-3.877,30.42L202.0011,43.5631c-2.1874,1.988-4.14,3.7532-6.0823,5.5294q-24.2449,22.1712-48.4882,44.3444c-1.7329,1.5844-3.2374,1.6749-5.2429.3886q-11.8968-7.63-23.8009-15.248c-.2186-.14-.4443-.2693-.75-.454q-2.577,2.9332-5.1483,5.8618-7.4634,8.54-14.9131,17.0914a3.9339,3.9339,0,0,1-4.0024,1.6409,3.5746,3.5746,0,0,1-1.8885-5.9c2.2376-2.6438,4.5416-5.2315,6.8226-7.8386q7.689-8.788,15.38-17.5741c1.8772-2.1511,3.6106-2.2384,5.9045-.58,2.35,1.6989,4.8578,3.1812,7.3025,4.749q8.0409,5.1567,16.0884,10.3029C143.524,86.0951,143.8757,86.2972,144.2645,86.5322Z" fill="#000"/><path d="M184.506,149.3441c0,8.1994.0445,16.3991-.0181,24.5979a9.9826,9.9826,0,0,1-6.8982,9.3608,10.1782,10.1782,0,0,1-13.44-9.4309q-.0723-24.4865-.0051-48.9731a10.1859,10.1859,0,0,1,20.3709.1825c.0393,6.3729.0125,12.7463.0142,19.1195q.0007,2.5716,0,5.1433Z" fill="#000"/><path d="M125.8417,156.5566q-.0024-8.496,0-16.992a10.187,10.187,0,1,1,20.3733-.0466q.0188,16.9919-.0027,33.9839a10.1846,10.1846,0,1,1-20.3643.0467Q125.8355,165.0526,125.8417,156.5566Z" fill="#000"/><path d="M87.5694,160.8055c0-4.5061-.1754-9.0208.0454-13.516a10.0523,10.0523,0,0,1,10.3637-9.3429,10.1906,10.1906,0,0,1,9.9209,9.9835q.1057,13.0125.0014,26.0265a10.182,10.182,0,0,1-20.3554.0342c-.0962-4.3931-.0194-8.79-.0194-13.1852Z" fill="#000"/><path d="M127.436,115.0554a8.5913,8.5913,0,1,1,8.4126,8.6665A8.5445,8.5445,0,0,1,127.436,115.0554Z" fill="#000"/><path d="M97.7522,132.7764a8.58,8.58,0,0,1-.0806-17.16,8.58,8.58,0,1,1,.0806,17.16Z" fill="#000"/><path d="M204.0891,78.7436a8.57,8.57,0,1,1,8.62,8.5662A8.5845,8.5845,0,0,1,204.0891,78.7436Z" fill="#000"/><path d="M174.374,109.2921a8.5792,8.5792,0,1,1,8.5385-8.6007A8.522,8.522,0,0,1,174.374,109.2921Z" fill="#000"/></svg>