<svg id="Layer_1" data-name="Layer 1" xmlns="http://www.w3.org/2000/svg" viewBox="0 0 300 200"><title>0</title><path d="M201.1278,68.5289,222.3744,107.93c-4.011,2.21-8.3454,3.989-10.37,8.5261,1.0045,1.07,2.0537,2.1661,3.0791,3.284,6.3538,6.9272,3.0709,17.2629-6.1069,18.213.5349,8.2039-2.9829,12.0408-10.9153,11.9054-2.18,7.2014-5.4629,9.2908-14.6541,9.21-.1136.3514-.2335.7588-.3762,1.1581-1.6025,4.4857-4.8436,6.7738-9.6248,7.0145-5.0816.2558-9.4392-1.893-13.8646-3.8909,1.431-3.1679,1.82-3.3782,4.8208-2.0142,3.3089,1.504,6.6932,2.6148,10.345,1.8341a6.789,6.789,0,0,0,3.2941-1.772c2.3277-2.4031,1.9772-3.821-1.0062-5.253-4.86-2.3328-9.7529-4.6019-14.5367-7.0815a3.012,3.012,0,0,1-1.1845-2.6172c.3467-1.3678,1.6474-1.3,2.8135-.71.2709.1372.5469.2644.8208.3956q8.4228,4.0328,16.8449,8.0669c2.4153,1.159,4.9438,1.7111,7.4886.6986a9.9438,9.9438,0,0,0,3.5144-2.3811c1.9484-2.0992,1.6006-3.3126-.9749-4.5553q-10.2561-4.9488-20.5066-9.9091c-.5464-.2643-1.289-.4274-1.5677-.8714-.4542-.7236-1.0427-1.8773-.7565-2.4107a2.6158,2.6158,0,0,1,2.3766-.8268,30.4746,30.4746,0,0,1,4.5425,2.083c6.1512,2.9715,12.2568,6.044,18.48,8.8561a14.7783,14.7783,0,0,0,5.7345,1.1022c2.8256.0428,4.5-1.5968,5.0508-4.3256.491-2.4338-.3-3.9658-2.8009-5.34q-11.1795-6.1457-22.3667-12.2772c-.4655-.2555-1.1457-.4182-1.3359-.8123-.349-.7229-.7853-1.8032-.4822-2.3316a2.6242,2.6242,0,0,1,2.2317-.84,8.8906,8.8906,0,0,1,2.6226,1.3193c7.0578,3.8712,14.0964,7.7778,21.1766,11.6075,4.59,2.4825,9.2461.6406,10.2893-3.9937a6.7667,6.7667,0,0,0-1.9549-6.283c-2.4926-2.6525-5.1436-5.1674-7.8469-7.6084-4.279-3.8638-8.7319-7.5366-12.9768-11.4365-8.2766-7.6039-18.7379-11.4288-28.41-16.6177-3.411-1.83-6.8985-3.5176-10.3569-5.2587-2.1141-1.0642-6.7741-.35-8.489,1.2757-2.4255,2.2994-4.7671,4.6979-7.3088,6.8611a15.2447,15.2447,0,0,1-8.7618,4.0286,8.7473,8.7473,0,0,1-3.5832-.3429c-2.8863-1.0735-4.989-2.8112-2.3825-6.3357,4.2448-5.74,8.4948-11.4807,12.9432-17.0613a8.8837,8.8837,0,0,1,4.2006-2.4993c5.65-1.7631,11.3216-3.5045,17.0816-4.8376a13.9533,13.9533,0,0,1,7.0734.2515c7.5855,2.4293,15.0945,5.1227,22.5326,7.9762a11.8331,11.8331,0,0,0,10.6893-.5691C198.2269,69.8,199.63,69.2357,201.1278,68.5289Z" fill="#000"/><path d="M227.4375,109.5393c-.3694-.7484-.7161-1.509-1.1116-2.2434Q215.16,86.5665,203.9839,65.8432a2.0793,2.0793,0,0,1,.919-3.2219q6.9132-3.72,13.8066-7.4771c1.8907-1.036,2.75.0336,3.5523,1.5268q8.9336,16.6347,17.9047,33.2491c1.367,2.5367,2.72,5.0811,4.1117,7.6041.6831,1.2383.7588,2.3883-.5937,3.13-4.8545,2.6623-9.7431,5.2624-14.6234,7.8774a5.721,5.721,0,0,1-.8472.2988Z" fill="#000"/><path d="M91.714,51.655A27.9527,27.9527,0,0,1,94.6264,52.75c4.2228,2.2459,8.4484,4.4889,12.623,6.8223,3.47,1.9393,3.9528,3.8272,2.08,7.3016Q98.7939,86.4145,88.2638,105.9579c-2.17,4.0222-3.9075,4.543-7.8709,2.398-4.0062-2.1681-8.024-4.3151-12.0113-6.5174-2.8473-1.5727-3.4821-3.5918-1.95-6.4461C73.7162,81.8171,81,68.2408,88.4074,54.7321,89.1225,53.4278,90.6831,52.5869,91.714,51.655Zm-7.7652,54.2826L106.7683,63.6,92.139,55.7059l-22.8156,42.32Z" fill="#000"/><path d="M137.9027,134.9392a16.7613,16.7613,0,0,1-1.7646,3.8229q-5.1008,6.2792-10.4921,12.32a6.2326,6.2326,0,0,1-8.8226.5175,6.3539,6.3539,0,0,1-.7592-8.8169q5.1426-6.2465,10.5177-12.3a6.0177,6.0177,0,0,1,6.8673-1.6546A7.0607,7.0607,0,0,1,137.9027,134.9392Z" fill="#000"/><path d="M127.1648,155.1853a23.92,23.92,0,0,1,2.2212-4.32c2.7886-3.5006,5.7481-6.8672,8.6932-10.24,2.6327-3.0153,6.516-3.3814,9.287-.956a6.4066,6.4066,0,0,1,.4566,9.1755c-3.0143,3.6134-6.0647,7.1992-9.19,10.7163a6.146,6.146,0,0,1-7.0644,1.6648A7.5657,7.5657,0,0,1,127.1648,155.1853Z" fill="#000"/><path d="M160.8982,154.6429c.0206,3.3889-7.1385,11.98-10.4817,12.5788a6.3025,6.3025,0,0,1-6.5081-2.7972,5.9593,5.9593,0,0,1,.1009-7.0611,74.9458,74.9458,0,0,1,6.2117-7.2713,5.84,5.84,0,0,1,6.7323-1.3178A6.2433,6.2433,0,0,1,160.8982,154.6429Z" fill="#000"/><path d="M104.64,135.8458c-.0277-4.1745,5.56-10.8993,8.971-11.5194a6.2569,6.2569,0,0,1,6.5077,2.7522,5.8211,5.8211,0,0,1,.0264,6.8431,44.61,44.61,0,0,1-5.0075,5.88,6.3339,6.3339,0,0,1-10.4976-3.9559Z" fill="#000"/><path d="M153.4708,60.8635c-5.1922,1.5616-10.2819,2.8481-15.933,2.735-5.49-.11-11.02,1.6731-16.5295,2.6413-2.8723.5047-5.7384,1.0448-9.0339,1.6469.94-2.6917,1.8144-4.153,4.4071-4.5835,4.6994-.78,9.2629-2.7486,13.9626-3.0739,7.6822-.5316,15.428-.1437,23.1469-.1437Z" fill="#000"/><path d="M106.0232,126.6822c-4.2726-6.9364-9.0438-13.3721-16.9708-16.711.4441-.8482.7009-1.3688.9855-1.8738.2878-.51.603-1.0056.8676-1.4436,7.8379,3.3849,13.0344,9.41,17.17,16.4208.4127.7-.8586,2.3923-1.3484,3.624Z" fill="#000"/></svg>