<svg xmlns="http://www.w3.org/2000/svg" viewBox="0 0 276 164"><title>Splash</title><g id="Atlas_Investment" data-name="Atlas Investment"><path d="M115.38,44.44l-5-11.92-4.94,11.92ZM96.66,55.54v-.78a3.4,3.4,0,0,0,2.51-1.26A33.79,33.79,0,0,0,102,47.65l9-21.25h.84L122.7,51a11.23,11.23,0,0,0,1.72,3,4,4,0,0,0,2.2.78v.78h-11v-.78a9.54,9.54,0,0,0,2.45-.39c.37-.17.55-.56.56-1.21a5.53,5.53,0,0,0-.22-1.11,14.28,14.28,0,0,0-.58-1.7L116,46.18H104.65c-1.14,2.84-1.81,4.57-2,5.21a5,5,0,0,0-.32,1.48,1.52,1.52,0,0,0,.9,1.52,6.92,6.92,0,0,0,2,.37v.78Z" fill="#2d2b7f" fill-rule="evenodd"/><path d="M138.33,36.07v1.51H134l0,12.18a8,8,0,0,0,.27,2.44,2,2,0,0,0,2,1.45,2.39,2.39,0,0,0,1.32-.35,6,6,0,0,0,1.29-1.15l.55.47-.47.63a7.15,7.15,0,0,1-2.32,2.11,5.59,5.59,0,0,1-2.39.6,3.35,3.35,0,0,1-3.37-2.22,9.31,9.31,0,0,1-.49-3.34V37.58h-2.29a.53.53,0,0,1-.19-.13.24.24,0,0,1,0-.16.51.51,0,0,1,.09-.32,5.85,5.85,0,0,1,.61-.56,16.5,16.5,0,0,0,2.09-1.93c.44-.52,1.46-1.84,3.05-4a.9.9,0,0,1,.32,0c.05,0,.06.14.06.34v5.2Z" fill="#2d2b7f"/><path d="M140.24,55a5,5,0,0,0,2.66-.78,3,3,0,0,0,.71-2.37V31.16a5.4,5.4,0,0,0-.24-1.92,1.67,1.67,0,0,0-1.71-.89,5.13,5.13,0,0,0-.65,0l-.88.19V27.9c1.9-.52,4.19-1.18,6.88-2,.1,0,.16.05.17.12a2.78,2.78,0,0,1,0,.56V51.9a3.23,3.23,0,0,0,.63,2.4,5.09,5.09,0,0,0,2.62.66v.58H140.24Z" fill="#2d2b7f"/><path d="M163.8,43.85a18.56,18.56,0,0,0-4,1.77q-3.06,1.88-3.06,4.28A3.31,3.31,0,0,0,158,52.73a3.21,3.21,0,0,0,1.86.59,4.88,4.88,0,0,0,2.67-.79,2.26,2.26,0,0,0,1.28-2Zm-7.75,2.38a45.27,45.27,0,0,1,7.75-3.44V41a7.4,7.4,0,0,0-.41-3c-.49-1-1.48-1.43-3-1.43a4,4,0,0,0-2.05.57,1.74,1.74,0,0,0-1,1.56,6.32,6.32,0,0,0,.11.86,6,6,0,0,1,.11.77,1.79,1.79,0,0,1-.78,1.65,2.17,2.17,0,0,1-1.06.27,1.8,1.8,0,0,1-1.47-.62,2.19,2.19,0,0,1-.49-1.4,4.37,4.37,0,0,1,1.81-3.08A7.83,7.83,0,0,1,161,35.5c2.75,0,4.6.9,5.56,2.67a9,9,0,0,1,.79,4.25V50.9a5.64,5.64,0,0,0,.17,1.69,1.1,1.1,0,0,0,1.15.83,1.91,1.91,0,0,0,.8-.14,8.88,8.88,0,0,0,1.1-.73v1.1A6.35,6.35,0,0,1,169.07,55a4.24,4.24,0,0,1-2.41.82,2.42,2.42,0,0,1-2.1-.93,4.39,4.39,0,0,1-.71-2.22,19.24,19.24,0,0,1-2.74,2.06,7.06,7.06,0,0,1-3.66,1.13,4.45,4.45,0,0,1-3.15-1.26A4.37,4.37,0,0,1,153,51.36a6,6,0,0,1,3.08-5.13" fill="#2d2b7f" fill-rule="evenodd"/><path d="M172.85,48.9h.7a10.93,10.93,0,0,0,1.32,3.69A4.76,4.76,0,0,0,179.19,55a3.57,3.57,0,0,0,2.51-.86,3,3,0,0,0,.94-2.29,3.16,3.16,0,0,0-.54-1.7,5.35,5.35,0,0,0-1.86-1.61l-2.36-1.36A14,14,0,0,1,174,44.33a5.31,5.31,0,0,1,.48-7.24,6.13,6.13,0,0,1,4.24-1.5,8,8,0,0,1,2.47.41,11.18,11.18,0,0,0,1.52.41,1.34,1.34,0,0,0,.55-.09,1.46,1.46,0,0,0,.3-.34h.51l.15,5.9h-.66a9.81,9.81,0,0,0-1.14-3.19,4.21,4.21,0,0,0-3.79-2.13,3,3,0,0,0-2.33.91,3.13,3.13,0,0,0-.85,2.14c0,1.3,1,2.46,2.92,3.47l2.8,1.5c3,1.64,4.51,3.53,4.51,5.7a5,5,0,0,1-1.9,4.09A7.24,7.24,0,0,1,178.93,56a11.11,11.11,0,0,1-2.88-.43,14.62,14.62,0,0,0-1.9-.42.65.65,0,0,0-.45.19,1.06,1.06,0,0,0-.29.42h-.56Z" fill="#2d2b7f"/><path d="M81.13,90.12v.54H70.78v-.54h.66a2.78,2.78,0,0,0,1.39-.31,1.37,1.37,0,0,0,.58-.7,5.92,5.92,0,0,0,.16-1.84v-13a6.42,6.42,0,0,0-.16-1.9,1.46,1.46,0,0,0-.65-.66,2.58,2.58,0,0,0-1.32-.29h-.66v-.54H81.13v.54h-.65a2.68,2.68,0,0,0-1.39.31,1.45,1.45,0,0,0-.6.7,5.92,5.92,0,0,0-.16,1.84v13a6.34,6.34,0,0,0,.17,1.9,1.49,1.49,0,0,0,.66.66,2.58,2.58,0,0,0,1.32.29Z" fill="#2d2b7f"/><path d="M88.4,77v1.76a7.88,7.88,0,0,1,2-1.65,4.24,4.24,0,0,1,2.07-.52,3.33,3.33,0,0,1,2.21.74,3.5,3.5,0,0,1,1.16,1.83,13.74,13.74,0,0,1,.24,3.2v5.31a4.07,4.07,0,0,0,.28,2,1.68,1.68,0,0,0,1.19.49v.53h-6.9v-.53a1.47,1.47,0,0,0,1.11-.64A4.31,4.31,0,0,0,92,87.68V81.61a9.82,9.82,0,0,0-.13-2.12,1.32,1.32,0,0,0-.45-.68,1.11,1.11,0,0,0-.69-.24q-1.26,0-2.34,1.8v7.31a4,4,0,0,0,.29,1.94,1.46,1.46,0,0,0,1.06.51v.53H82.84v-.53a1.7,1.7,0,0,0,1.23-.55,4.2,4.2,0,0,0,.25-1.9V80A3.93,3.93,0,0,0,84,78a1.74,1.74,0,0,0-1.19-.49V77Z" fill="#2d2b7f"/><path d="M105.61,91.07,101,80.48a10.74,10.74,0,0,0-1.3-2.42,1.8,1.8,0,0,0-1-.51V77H106v.54a1.32,1.32,0,0,0-.94.25,1,1,0,0,0-.35.76,6.52,6.52,0,0,0,.65,2l2.24,5.13,1.8-4.43a8.37,8.37,0,0,0,.77-2.68.91.91,0,0,0-.33-.74,1.86,1.86,0,0,0-1.15-.31V77h4.46v.54a1.83,1.83,0,0,0-1,.48,9.16,9.16,0,0,0-1.23,2.32L106.3,91.07Z" fill="#2d2b7f"/><path d="M126,83.34h-7.49a7,7,0,0,0,1.45,4.29,3.05,3.05,0,0,0,2.42,1.22,2.77,2.77,0,0,0,1.59-.49,6.22,6.22,0,0,0,1.54-1.76l.49.32a8.13,8.13,0,0,1-2.45,3.2,5.26,5.26,0,0,1-3.11.95,5.19,5.19,0,0,1-4.6-2.34,8.3,8.3,0,0,1-1.25-4.67,7.76,7.76,0,0,1,1.84-5.44,5.71,5.71,0,0,1,4.33-2,4.71,4.71,0,0,1,3.6,1.7A7.68,7.68,0,0,1,126,83.34Zm-3.59-1a13.56,13.56,0,0,0-.25-3.23,2.66,2.66,0,0,0-.8-1.33,1.24,1.24,0,0,0-.82-.26,1.45,1.45,0,0,0-1.24.74,6.44,6.44,0,0,0-.86,3.56v.52Z" fill="#2d2b7f"/><path d="M136.3,76.63l.22,4.65H136a7.4,7.4,0,0,0-1.84-2.83,3.13,3.13,0,0,0-1.91-.76,1.42,1.42,0,0,0-1,.41,1.23,1.23,0,0,0-.43.92,1.18,1.18,0,0,0,.3.76,14,14,0,0,0,2.61,2,10.66,10.66,0,0,1,2.82,2.47,3.94,3.94,0,0,1,.68,2.27,4.77,4.77,0,0,1-.57,2.23,4,4,0,0,1-1.6,1.68,4.59,4.59,0,0,1-2.29.59,8,8,0,0,1-2.62-.62,2.42,2.42,0,0,0-.6-.16c-.32,0-.58.25-.8.73h-.48l-.23-4.9h.49a6.46,6.46,0,0,0,1.8,2.89,3.48,3.48,0,0,0,2.17,1,1.58,1.58,0,0,0,1.15-.43,1.39,1.39,0,0,0,.44-1,1.84,1.84,0,0,0-.43-1.22,12,12,0,0,0-2-1.54,15.07,15.07,0,0,1-2.89-2.37,4.13,4.13,0,0,1-1-2.64,4.3,4.3,0,0,1,1.08-2.85,3.9,3.9,0,0,1,3.15-1.28,4.63,4.63,0,0,1,2.15.54,1.35,1.35,0,0,0,.64.22.77.77,0,0,0,.42-.11,2.55,2.55,0,0,0,.51-.62Z" fill="#2d2b7f"/><path d="M144.72,72v5H148v1.44h-3.24v8.43a6.59,6.59,0,0,0,.11,1.52,1.06,1.06,0,0,0,.39.56.85.85,0,0,0,.51.21c.63,0,1.23-.48,1.79-1.45L148,88a4,4,0,0,1-3.84,2.81,3.33,3.33,0,0,1-2.19-.73,3.22,3.22,0,0,1-1.15-1.61,13.45,13.45,0,0,1-.15-2.69V78.45h-1.78v-.51A18.55,18.55,0,0,0,142,75.21,16.62,16.62,0,0,0,144.24,72Z" fill="#2d2b7f"/><path d="M154.93,77V78.8A7.93,7.93,0,0,1,157,77.09a4.51,4.51,0,0,1,2.1-.49,3.75,3.75,0,0,1,2.2.61,3.82,3.82,0,0,1,1.38,1.87,8.58,8.58,0,0,1,2.24-1.9,4.59,4.59,0,0,1,2.24-.58,3.6,3.6,0,0,1,2.25.65,3.36,3.36,0,0,1,1.17,1.65,11.07,11.07,0,0,1,.33,3.19v5.59a4.12,4.12,0,0,0,.28,1.95,1.72,1.72,0,0,0,1.19.5v.53h-7v-.53a1.56,1.56,0,0,0,1.23-.64,4,4,0,0,0,.26-1.81V81.81a11.57,11.57,0,0,0-.14-2.32,1.41,1.41,0,0,0-.46-.74,1.19,1.19,0,0,0-.74-.24,2.16,2.16,0,0,0-1.27.46,6,6,0,0,0-1.3,1.38v7.33a4.08,4.08,0,0,0,.25,1.85,1.5,1.5,0,0,0,1.28.6v.53h-7.06v-.53a1.58,1.58,0,0,0,.9-.28,1.25,1.25,0,0,0,.43-.62,6.23,6.23,0,0,0,.11-1.55V81.81a11.28,11.28,0,0,0-.14-2.32,1.42,1.42,0,0,0-.49-.73,1.17,1.17,0,0,0-.74-.26,2,2,0,0,0-1.06.3,6,6,0,0,0-1.46,1.55v7.33a4.13,4.13,0,0,0,.28,1.9,1.48,1.48,0,0,0,1.19.55v.53h-7v-.53a1.7,1.7,0,0,0,1.23-.55,4.05,4.05,0,0,0,.25-1.9V80a3.93,3.93,0,0,0-.29-1.93,1.74,1.74,0,0,0-1.19-.49V77Z" fill="#2d2b7f"/><path d="M185.73,83.34h-7.49a7.1,7.1,0,0,0,1.44,4.29,3.06,3.06,0,0,0,2.43,1.22,2.82,2.82,0,0,0,1.59-.49,6.38,6.38,0,0,0,1.53-1.76l.5.32a8.14,8.14,0,0,1-2.46,3.2,5.26,5.26,0,0,1-3.11.95,5.16,5.16,0,0,1-4.59-2.34,8.22,8.22,0,0,1-1.26-4.67,7.76,7.76,0,0,1,1.85-5.44,5.67,5.67,0,0,1,4.33-2,4.68,4.68,0,0,1,3.59,1.7A7.74,7.74,0,0,1,185.73,83.34Zm-3.59-1a13.4,13.4,0,0,0-.26-3.23,2.66,2.66,0,0,0-.8-1.33,1.21,1.21,0,0,0-.81-.26,1.44,1.44,0,0,0-1.24.74,6.36,6.36,0,0,0-.87,3.56v.52Z" fill="#2d2b7f"/><path d="M193,77v1.76a7.72,7.72,0,0,1,2-1.65,4.24,4.24,0,0,1,2.07-.52,3.31,3.31,0,0,1,2.2.74,3.46,3.46,0,0,1,1.17,1.83,13.92,13.92,0,0,1,.23,3.2v5.31a4,4,0,0,0,.29,2,1.66,1.66,0,0,0,1.19.49v.53h-6.91v-.53a1.43,1.43,0,0,0,1.11-.64,4.09,4.09,0,0,0,.24-1.81V81.61a10.57,10.57,0,0,0-.13-2.12,1.32,1.32,0,0,0-.45-.68,1.11,1.11,0,0,0-.69-.24q-1.26,0-2.34,1.8v7.31a4,4,0,0,0,.29,1.94,1.44,1.44,0,0,0,1,.51v.53h-6.9v-.53a1.74,1.74,0,0,0,1.23-.55,4.25,4.25,0,0,0,.24-1.9V80a4,4,0,0,0-.28-1.93,1.77,1.77,0,0,0-1.19-.49V77Z" fill="#2d2b7f"/><path d="M209.48,72v5h3.24v1.44h-3.24v8.43a6,6,0,0,0,.11,1.52A1.1,1.1,0,0,0,210,89a.9.9,0,0,0,.51.21c.64,0,1.24-.48,1.8-1.45l.44.32a4,4,0,0,1-3.84,2.81,3.36,3.36,0,0,1-2.2-.73,3.14,3.14,0,0,1-1.14-1.61,13.45,13.45,0,0,1-.15-2.69V78.45h-1.78v-.51a18.08,18.08,0,0,0,3.13-2.73A17.12,17.12,0,0,0,209,72Z" fill="#2d2b7f"/><path d="M105.78,114.54a1.49,1.49,0,0,0-1-.31,1.7,1.7,0,0,0-1.27.56,4,4,0,0,0-.71,2.22c-.11,1.1-.16,2.64-.16,4.6a19,19,0,0,0,.2,2.92,2.83,2.83,0,0,0,.69,1.58,1.63,1.63,0,0,0,1.19.54,1.67,1.67,0,0,0,1.1-.36,2.49,2.49,0,0,0,.76-1.39,34.28,34.28,0,0,0,.29-5.61,13.47,13.47,0,0,0-.28-3.4A2.56,2.56,0,0,0,105.78,114.54Z" fill="#2d2b7f"/><path d="M53.32,114.64a1.31,1.31,0,0,0-.89.29,3.27,3.27,0,0,0-.88,1.59A12.93,12.93,0,0,0,51.2,120a14.19,14.19,0,0,0,.38,3.82,3.76,3.76,0,0,0,1,1.8,1.42,1.42,0,0,0,.92.28c.86,0,1.66-.67,2.42-2v-7.18Q54.88,114.64,53.32,114.64Z" fill="#2d2b7f"/><path d="M143.29,102.08H21.3a3,3,0,0,0-3,3v30.06a3,3,0,0,0,3,3h122a3,3,0,0,0,3-3V105.08A3,3,0,0,0,143.29,102.08Zm-63.24,5.57a2.17,2.17,0,0,1,1.59-.66,2.2,2.2,0,0,1,1.61.66,2.24,2.24,0,0,1,.65,1.6,2.17,2.17,0,0,1-.66,1.59,2.19,2.19,0,0,1-1.6.66,2.25,2.25,0,0,1-2.25-2.25A2.21,2.21,0,0,1,80.05,107.65Zm-34.61,19.6H35.86v-.54h.4a3.08,3.08,0,0,0,1.62-.32.79.79,0,0,0,.32-.67,1.7,1.7,0,0,0-.09-.54c0-.09-.17-.46-.44-1.1l-1.05-2.47h-7l-.83,1.93a4.17,4.17,0,0,0-.41,1.59,1.31,1.31,0,0,0,.67,1.23,5.58,5.58,0,0,0,1.94.35v.54H24.42v-.54a3,3,0,0,0,1.75-.88,11.81,11.81,0,0,0,1.69-3l7.08-15.79h.28l7.14,16.23a9.6,9.6,0,0,0,1.68,2.9,2.23,2.23,0,0,0,1.4.53Zm16.29-.72L56,127.66V125.5a7.26,7.26,0,0,1-1.84,1.71,3.74,3.74,0,0,1-1.84.45,4.71,4.71,0,0,1-4.13-2.34,8.43,8.43,0,0,1-1.22-4.65,9.73,9.73,0,0,1,.76-4,5.89,5.89,0,0,1,2.08-2.64,5,5,0,0,1,2.83-.89,3.84,3.84,0,0,1,1.74.38A5.9,5.9,0,0,1,56,114.9v-4.12a7.22,7.22,0,0,0-.13-1.88,1.31,1.31,0,0,0-.52-.63,3.05,3.05,0,0,0-1.32-.2v-.61h6.06v15.7a10.5,10.5,0,0,0,.09,1.89,1.15,1.15,0,0,0,.44.71,2.34,2.34,0,0,0,1.15.29Zm15.36-12.39a1.89,1.89,0,0,0-1.06.48,9.12,9.12,0,0,0-1.22,2.32l-4.56,10.72h-.68L65,117.08a10.65,10.65,0,0,0-1.3-2.43,1.74,1.74,0,0,0-1-.51v-.54h7.25v.54a1.28,1.28,0,0,0-.93.25,1,1,0,0,0-.35.76,6.51,6.51,0,0,0,.64,2l2.25,5.12,1.79-4.42a8.51,8.51,0,0,0,.78-2.69.94.94,0,0,0-.33-.74,1.92,1.92,0,0,0-1.16-.31v-.54h4.47Zm8.24,13.11H78v-.53a1.76,1.76,0,0,0,1.34-.52,3.18,3.18,0,0,0,.3-1.78v-8a3.28,3.28,0,0,0-.34-1.85,1.79,1.79,0,0,0-1.3-.46v-.54h5.72v10.82a3.24,3.24,0,0,0,.34,1.84,1.76,1.76,0,0,0,1.31.46Zm10.32-1.85a3.91,3.91,0,0,1-1.6,1.67,4.59,4.59,0,0,1-2.29.59,8.15,8.15,0,0,1-2.62-.61,2.16,2.16,0,0,0-.6-.17c-.32,0-.58.25-.8.73h-.48l-.23-4.9h.49a6.41,6.41,0,0,0,1.8,2.89,3.48,3.48,0,0,0,2.17,1,1.58,1.58,0,0,0,1.15-.43,1.36,1.36,0,0,0,.44-1,1.79,1.79,0,0,0-.43-1.21,11.91,11.91,0,0,0-2-1.55A15.53,15.53,0,0,1,87.8,120a4.14,4.14,0,0,1-1-2.65,4.3,4.3,0,0,1,1.08-2.85,3.93,3.93,0,0,1,3.15-1.28,4.63,4.63,0,0,1,2.15.54,1.35,1.35,0,0,0,.64.22.77.77,0,0,0,.42-.11,2.55,2.55,0,0,0,.51-.62h.5l.22,4.66H95a7.31,7.31,0,0,0-1.84-2.83,3.07,3.07,0,0,0-1.91-.76,1.41,1.41,0,0,0-1,.4,1.25,1.25,0,0,0-.43.93,1.16,1.16,0,0,0,.3.75,13.85,13.85,0,0,0,2.61,2.06,10.67,10.67,0,0,1,2.82,2.46,4,4,0,0,1,.68,2.27A4.81,4.81,0,0,1,95.65,125.4Zm14-.11a5.82,5.82,0,0,1-4.92,2.37A5.64,5.64,0,0,1,100,125.5a8,8,0,0,1-1.66-5,8.12,8.12,0,0,1,1.7-5.12,5.6,5.6,0,0,1,4.66-2.18,6.37,6.37,0,0,1,3.32.92,5.92,5.92,0,0,1,2.33,2.61,8.63,8.63,0,0,1,.79,3.71A7.84,7.84,0,0,1,109.7,125.29Zm14.88-8.65a1.48,1.48,0,0,1-1.15.54,2,2,0,0,1-1.34-.5,7.9,7.9,0,0,0-.67-.55.64.64,0,0,0-.34-.09,1.24,1.24,0,0,0-.8.32,3,3,0,0,0-.9,1.42,9.64,9.64,0,0,0-.47,3.12v4a3.61,3.61,0,0,0,.1,1.06,1.19,1.19,0,0,0,.52.58,3.1,3.1,0,0,0,1.16.22v.53h-7.37v-.53a1.63,1.63,0,0,0,1.21-.48,4.69,4.69,0,0,0,.31-2.2v-7.55a5.54,5.54,0,0,0-.12-1.49,1.19,1.19,0,0,0-.42-.6,2.35,2.35,0,0,0-1-.26v-.54h5.58v3.1a9.76,9.76,0,0,1,2.38-2.81,3.48,3.48,0,0,1,2-.7,1.75,1.75,0,0,1,1.31.51,2,2,0,0,1,.48,1.42A2.21,2.21,0,0,1,124.58,116.64Zm15.6-2.5a1.71,1.71,0,0,0-1.1.52,13.14,13.14,0,0,0-1.41,3l-3.9,10.11a22.21,22.21,0,0,1-2.19,4.68,3.15,3.15,0,0,1-2.53,1.22,2.79,2.79,0,0,1-2-.69,2.19,2.19,0,0,1-.75-1.67,1.94,1.94,0,0,1,.52-1.4,1.67,1.67,0,0,1,1.27-.56,1.57,1.57,0,0,1,1.18.47,2.05,2.05,0,0,1,.46,1.44,1.48,1.48,0,0,0,.13.72.39.39,0,0,0,.34.16,1.08,1.08,0,0,0,.74-.42,9,9,0,0,0,1.37-2.81l.43-1.14-4.41-10.11a12.76,12.76,0,0,0-1.47-2.82,2.55,2.55,0,0,0-1.15-.73v-.54H133v.54a1.67,1.67,0,0,0-1,.28.76.76,0,0,0-.29.6,7,7,0,0,0,.73,2.19l2.34,5.34,1.59-4.13a10.42,10.42,0,0,0,.86-3.07,1.1,1.1,0,0,0-.36-.86,2,2,0,0,0-1.26-.35v-.54h4.57Z" fill="#2d2b7f"/><polygon points="30.14 120.53 36.12 120.53 33.17 113.72 30.14 120.53" fill="#2d2b7f"/><path d="M168.22,107l.16,6.6h-.6a6.78,6.78,0,0,0-2.08-4,5.23,5.23,0,0,0-3.59-1.51,3.34,3.34,0,0,0-2.35.79,2.42,2.42,0,0,0-.87,1.84,2.17,2.17,0,0,0,.31,1.16,4.94,4.94,0,0,0,1.35,1.36,32.17,32.17,0,0,0,3.17,1.71,14.15,14.15,0,0,1,4.69,3.22,5.52,5.52,0,0,1,1.19,3.48,5.62,5.62,0,0,1-1.93,4.27,7,7,0,0,1-4.91,1.79,8.35,8.35,0,0,1-1.77-.19,14.17,14.17,0,0,1-2.09-.72,3.21,3.21,0,0,0-1.15-.29,1.46,1.46,0,0,0-.8.29,2.05,2.05,0,0,0-.69.89h-.54v-7.47h.54a8.56,8.56,0,0,0,2.48,4.81,5.78,5.78,0,0,0,3.94,1.65,3.69,3.69,0,0,0,2.61-.89,2.69,2.69,0,0,0,.6-3.43,4.45,4.45,0,0,0-1.13-1.24,16.46,16.46,0,0,0-2.69-1.54,23,23,0,0,1-3.88-2.27,6.93,6.93,0,0,1-1.82-2.08,5.23,5.23,0,0,1-.63-2.54,5.36,5.36,0,0,1,1.73-4,6.09,6.09,0,0,1,4.38-1.67,7.26,7.26,0,0,1,1.87.24,8.61,8.61,0,0,1,1.67.65,4.08,4.08,0,0,0,1.38.47.8.8,0,0,0,.6-.23,2.7,2.7,0,0,0,.41-1.13Z" fill="#2d2b7f"/><path d="M183.37,119.94h-7.49a7,7,0,0,0,1.45,4.29,3,3,0,0,0,2.42,1.21,2.74,2.74,0,0,0,1.59-.49,6.07,6.07,0,0,0,1.53-1.76l.5.32a8.34,8.34,0,0,1-2.45,3.21,5.36,5.36,0,0,1-3.11.94,5.17,5.17,0,0,1-4.6-2.34,8.2,8.2,0,0,1-1.26-4.67,7.76,7.76,0,0,1,1.85-5.44,5.71,5.71,0,0,1,4.33-2,4.71,4.71,0,0,1,3.6,1.7A7.84,7.84,0,0,1,183.37,119.94Zm-3.59-1a13.46,13.46,0,0,0-.26-3.23,2.69,2.69,0,0,0-.79-1.33,1.26,1.26,0,0,0-.82-.26,1.43,1.43,0,0,0-1.24.75,6.31,6.31,0,0,0-.86,3.56V119Z" fill="#2d2b7f"/><path d="M190.74,113.6v3.1a9.92,9.92,0,0,1,2.38-2.81,3.48,3.48,0,0,1,2-.7,1.73,1.73,0,0,1,1.31.51,2,2,0,0,1,.49,1.42,2.22,2.22,0,0,1-.48,1.52,1.46,1.46,0,0,1-1.14.54,2,2,0,0,1-1.35-.5,7.9,7.9,0,0,0-.67-.55.63.63,0,0,0-.33-.09,1.26,1.26,0,0,0-.81.32,3,3,0,0,0-.9,1.42,9.92,9.92,0,0,0-.47,3.12V124l0,.82a3.28,3.28,0,0,0,.1,1.06,1.14,1.14,0,0,0,.52.58,3,3,0,0,0,1.16.22v.53h-7.38v-.53a1.61,1.61,0,0,0,1.21-.48,4.56,4.56,0,0,0,.31-2.2v-7.55a6.21,6.21,0,0,0-.11-1.49,1.2,1.2,0,0,0-.43-.6,2.35,2.35,0,0,0-1-.26v-.54Z" fill="#2d2b7f"/><path d="M204.51,127.66l-4.6-10.58a10.65,10.65,0,0,0-1.3-2.43,1.8,1.8,0,0,0-1-.51v-.54h7.25v.54a1.28,1.28,0,0,0-.93.25,1,1,0,0,0-.35.76,6.51,6.51,0,0,0,.64,2l2.25,5.12,1.79-4.42a8.51,8.51,0,0,0,.78-2.69.94.94,0,0,0-.33-.74,2,2,0,0,0-1.16-.31v-.54H212v.54a1.89,1.89,0,0,0-1.05.48,9.12,9.12,0,0,0-1.22,2.32l-4.56,10.72Z" fill="#2d2b7f"/><path d="M218.62,113.6v10.82a3.16,3.16,0,0,0,.34,1.84,1.76,1.76,0,0,0,1.31.46v.53H212.9v-.53a1.78,1.78,0,0,0,1.34-.52,3.18,3.18,0,0,0,.3-1.78v-8a3.28,3.28,0,0,0-.34-1.85,1.79,1.79,0,0,0-1.3-.46v-.54Zm-2-6.61a2.16,2.16,0,0,1,1.6.66,2.21,2.21,0,0,1,.66,1.6,2.17,2.17,0,0,1-.66,1.59,2.21,2.21,0,0,1-1.6.66,2.25,2.25,0,0,1-2.25-2.25,2.21,2.21,0,0,1,.66-1.6A2.17,2.17,0,0,1,216.58,107Z" fill="#2d2b7f"/><path d="M232.74,123.73l.45.35a6.79,6.79,0,0,1-2.4,2.7,5.83,5.83,0,0,1-3.06.88,5.29,5.29,0,0,1-4.36-2.06,7.71,7.71,0,0,1-1.64-4.95,8.31,8.31,0,0,1,1.49-4.9,5.72,5.72,0,0,1,4.95-2.56,5,5,0,0,1,3.36,1.07,3.07,3.07,0,0,1,1.25,2.38,1.7,1.7,0,0,1-1.82,1.82,1.89,1.89,0,0,1-1.42-.57,3.28,3.28,0,0,1-.7-2,2.25,2.25,0,0,0-.42-1.28,1.07,1.07,0,0,0-.79-.37,1.43,1.43,0,0,0-1.2.75,6.28,6.28,0,0,0-.76,3.44,11.08,11.08,0,0,0,.62,3.69,5.67,5.67,0,0,0,1.68,2.62,3,3,0,0,0,1.89.63,2.83,2.83,0,0,0,1.36-.34A6.31,6.31,0,0,0,232.74,123.73Z" fill="#2d2b7f"/><path d="M246.43,119.94h-7.49a7,7,0,0,0,1.45,4.29,3,3,0,0,0,2.42,1.21,2.7,2.7,0,0,0,1.59-.49,6.22,6.22,0,0,0,1.54-1.76l.49.32a8.34,8.34,0,0,1-2.45,3.21,5.34,5.34,0,0,1-3.11.94,5.18,5.18,0,0,1-4.6-2.34,8.19,8.19,0,0,1-1.25-4.67,7.76,7.76,0,0,1,1.84-5.44,5.72,5.72,0,0,1,4.33-2,4.71,4.71,0,0,1,3.6,1.7A7.79,7.79,0,0,1,246.43,119.94Zm-3.59-1a12.94,12.94,0,0,0-.26-3.23,2.69,2.69,0,0,0-.79-1.33,1.26,1.26,0,0,0-.82-.26,1.44,1.44,0,0,0-1.24.75,6.4,6.4,0,0,0-.86,3.56V119Z" fill="#2d2b7f"/><path d="M256.77,113.22l.22,4.66h-.5a7.2,7.2,0,0,0-1.85-2.83,3,3,0,0,0-1.9-.76,1.41,1.41,0,0,0-1,.4,1.22,1.22,0,0,0-.43.93,1.2,1.2,0,0,0,.29.75,14.43,14.43,0,0,0,2.62,2.06,10.67,10.67,0,0,1,2.82,2.46,4,4,0,0,1,.68,2.27,4.81,4.81,0,0,1-.57,2.24,3.91,3.91,0,0,1-1.6,1.67,4.63,4.63,0,0,1-2.3.59,8.16,8.16,0,0,1-2.61-.61,2.16,2.16,0,0,0-.6-.17c-.32,0-.59.25-.8.73h-.48l-.24-4.9h.5a6.41,6.41,0,0,0,1.8,2.89,3.48,3.48,0,0,0,2.17,1,1.58,1.58,0,0,0,1.15-.43,1.4,1.4,0,0,0,.44-1,1.75,1.75,0,0,0-.44-1.21,11.26,11.26,0,0,0-2-1.55,15.53,15.53,0,0,1-2.89-2.36,4.15,4.15,0,0,1-1-2.65,4.31,4.31,0,0,1,1.09-2.85,3.93,3.93,0,0,1,3.15-1.28,4.56,4.56,0,0,1,2.14.54,1.41,1.41,0,0,0,.65.22.77.77,0,0,0,.42-.11,2.55,2.55,0,0,0,.51-.62Z" fill="#2d2b7f"/></g></svg>