<?xml version="1.0" encoding="utf-8"?>
<!-- Generator: Adobe Illustrator 19.0.0, SVG Export Plug-In . SVG Version: 6.00 Build 0)  -->
<svg version="1.1" id="Layer_1" xmlns="http://www.w3.org/2000/svg" xmlns:xlink="http://www.w3.org/1999/xlink" x="0px" y="0px"
	 viewBox="-144 258.3 322.4 276.7" style="enable-background:new -144 258.3 322.4 276.7;" xml:space="preserve">
<style type="text/css">
	.st0{fill:#FFFFFF;stroke:#000000;stroke-miterlimit:10;}
</style>
<title>Splash</title>
<g id="Atlas_Logo_100_">
	<path class="st0" d="M17.2,438.6v-96.7c54.7,0,104.2-23.5,139.7-61.5l-3,10.1c-33.8,33-78.4,54-127.7,56.3v100L17.2,438.6z
		 M30.8,450.8v-94.3c44.4-3,85.1-20.4,117.8-48l-2.7,8.6c-30.6,24.2-67.3,39.3-106,43.6v98.2L30.8,450.8L30.8,450.8z M44.4,463
		v-92.7c34.9-4.5,68.2-17.4,97-37.6l-2.1,7.4c-25.9,17.2-55.1,28.8-85.8,33.9v97.1L44.4,463L44.4,463z M58,475.1v-91.8
		c27.2-4.9,53.3-14.7,77-28.9l-2,6.9c-20.6,11.7-42.9,20.2-66,25.3v96.7L58,475.1z M71.6,487.3v-91.4c20-4.6,39.2-11.7,57.4-21.1
		l-1.9,6.5c-14.9,7.4-30.4,13.2-46.4,17.5v96.6L71.6,487.3L71.6,487.3z M-96.1,369.3c17.3,9.4,35.7,16.5,54.8,21.4v100.8l-4.6,4.1
		v-96.5c-16.1-4.3-31.8-10.1-46.8-17.6L-96.1,369.3z M-101.8,350c22.8,14.1,47.9,24.1,74.2,29.5v99.7l-4.6,4.1v-95.4
		c-23-5-45.2-13.3-65.7-24.9L-101.8,350L-101.8,350z M-108,329.3c27.8,20.1,60.1,33.2,94,38.2V467l-4.6,4v-94.7
		c-30.4-5-59.5-16.2-85.3-33L-108,329.3z M-114.7,306.6c32.1,27.7,72.1,44.7,114.3,48.5v99.8L-5,459v-95
		c-38.2-4.1-74.6-18.5-105.2-41.8L-114.7,306.6L-114.7,306.6z M-122.5,280.3c34.6,37,82.7,60.4,135.8,61.5v100.8l-4.6,4.1v-95.6
		c-48.1-2.1-92-21.6-125.9-52.7L-122.5,280.3L-122.5,280.3z"/>
</g>
</svg>
