<svg xmlns="http://www.w3.org/2000/svg" viewBox="0 0 506.87 98.11"><title>Splash</title><g id="Atlas_Logo_Horizental" data-name="Atlas Logo Horizental"><path d="M51.21,25.44q2.3-1.43,4.71-2.76C80.63,9,104.77,8.4,109.83,21.25c2.53,6.42-.18,15-6.59,23.64,4.7-7,6.59-14.09,4.66-19.85C103.53,12,81.18,10.53,58,21.79q-3.51,1.71-6.76,3.65Z" fill="#d1232a"/><path d="M62.36,57.1V32.84A47.84,47.84,0,0,0,97.41,17.41l-.75,2.52a49,49,0,0,1-32,14.12V59.14l-2.27-2Zm3.41,3.06V36.5a51,51,0,0,0,29.54-12l-.68,2.14A52.19,52.19,0,0,1,68,37.57V62.19l-2.27-2Zm3.41,3.05V40A54.32,54.32,0,0,0,93.5,30.53L93,32.4a55.5,55.5,0,0,1-21.52,8.5V65.25l-2.27-2Zm3.41,3.05v-23A57.85,57.85,0,0,0,91.91,36l-.5,1.73a59,59,0,0,1-16.55,6.35V68.3l-2.27-2ZM76,69.32V46.4A61.14,61.14,0,0,0,90.4,41.1l-.48,1.64a63,63,0,0,1-11.65,4.39V71.36l-2.28-2ZM33.93,39.69a60.43,60.43,0,0,0,13.75,5.37V70.34l-1.15,1V47.14a62.15,62.15,0,0,1-11.73-4.4l-.87-3.05ZM32.5,34.87a57.31,57.31,0,0,0,18.6,7.4v25L50,68.3V44.36a59,59,0,0,1-16.48-6.24l-1-3.25Zm-1.56-5.18a53.84,53.84,0,0,0,23.58,9.58v25l-1.14,1V41.45A56.17,56.17,0,0,1,32,33.18l-1-3.49ZM29.27,24A50.87,50.87,0,0,0,57.94,36.14v25l-1.14,1V38.36A52.84,52.84,0,0,1,30.43,27.88L29.27,24Zm-2-6.6A48,48,0,0,0,61.37,32.84V58.12l-1.14,1v-24A49.87,49.87,0,0,1,28.64,21.93l-1.33-4.52Z" fill="#2d2b7f" fill-rule="evenodd"/><path d="M20.35,70.64c-2.93-7.44,1.17-17.75,9.92-27.77-6.59,8.5-9.47,17.26-7,24.12,4.42,12.46,24.81,14.2,46.66,4.5-23.12,11.38-44.78,11.24-49.54-.85Z" fill="#d1232a"/><path d="M101.37,66.83H90.06l-2,4.58A7.21,7.21,0,0,0,87.37,74,1.47,1.47,0,0,0,88,75.12a5.46,5.46,0,0,0,2.74.66v.79H81.54v-.79a5.06,5.06,0,0,0,2.36-.84,13.26,13.26,0,0,0,2.43-4.2l10.28-24h.72L107.49,71a11.25,11.25,0,0,0,2.22,3.8,4.55,4.55,0,0,0,2.79,1v.79H101v-.79a4.36,4.36,0,0,0,2.36-.58A1.53,1.53,0,0,0,104,74a9.1,9.1,0,0,0-.86-3l-1.73-4.16Zm-.66-1.58L95.79,53.46,90.74,65.25Z" fill="#2d2b7f" fill-rule="evenodd"/><path d="M118,50.36v6.47h4.61v1.46l-4.61,0V71.12a4.33,4.33,0,0,0,.55,2.58,1.74,1.74,0,0,0,1.41.67,2.41,2.41,0,0,0,1.37-.45,2.88,2.88,0,0,0,1-1.31h.83a6.84,6.84,0,0,1-2.13,3.2,4.62,4.62,0,0,1-2.84,1.07,3.76,3.76,0,0,1-1.94-.55,3.27,3.27,0,0,1-1.4-1.58,8.09,8.09,0,0,1-.46-3.16V58.29h-3.12V57.6A8.14,8.14,0,0,0,113.74,56,12.66,12.66,0,0,0,116,53.35a23.39,23.39,0,0,0,1.39-3Z" fill="#2d2b7f"/><path d="M129.1,46V72.12a7.39,7.39,0,0,0,.26,2.44,1.93,1.93,0,0,0,.83.91,4.84,4.84,0,0,0,2.08.31v.79h-9.65v-.79a4.13,4.13,0,0,0,1.85-.28,1.89,1.89,0,0,0,.78-.92,7.31,7.31,0,0,0,.28-2.46V54.19a30.65,30.65,0,0,0-.15-4.06,1.74,1.74,0,0,0-.49-1,1.24,1.24,0,0,0-.84-.28,4,4,0,0,0-1.42.35l-.36-.8L128.13,46Z" fill="#2d2b7f"/><path d="M143.45,73.7a33.07,33.07,0,0,1-3.81,2.73,5.78,5.78,0,0,1-2.47.54,4.45,4.45,0,0,1-3.37-1.4,5.16,5.16,0,0,1-1.32-3.69,4.66,4.66,0,0,1,.64-2.49,8.51,8.51,0,0,1,3.07-2.76,46.91,46.91,0,0,1,7.26-3.14v-.78c0-2-.31-3.3-.93-4a3.39,3.39,0,0,0-2.72-1.1,3,3,0,0,0-2.14.73,2.2,2.2,0,0,0-.82,1.68l0,1.25a2.18,2.18,0,0,1-.5,1.53,1.76,1.76,0,0,1-1.34.54,1.67,1.67,0,0,1-1.3-.56,2.21,2.21,0,0,1-.51-1.53,4.42,4.42,0,0,1,1.89-3.41,8.24,8.24,0,0,1,5.33-1.55,9.23,9.23,0,0,1,4.31.88,4.06,4.06,0,0,1,1.87,2.08A11.68,11.68,0,0,1,147,63v6.68a28.28,28.28,0,0,0,.11,3.45,1.5,1.5,0,0,0,.35.85.88.88,0,0,0,.58.21,1.16,1.16,0,0,0,.6-.15,12.89,12.89,0,0,0,1.75-1.57v1.21c-1.61,2.16-3.16,3.24-4.63,3.24a2.1,2.1,0,0,1-1.68-.73,3.86,3.86,0,0,1-.65-2.49Zm0-1.39v-7.5a45,45,0,0,0-4.22,1.82,7.26,7.26,0,0,0-2.45,2,3.81,3.81,0,0,0-.73,2.26,3.69,3.69,0,0,0,.93,2.57,2.82,2.82,0,0,0,2.14,1q1.65,0,4.33-2.15Z" fill="#2d2b7f" fill-rule="evenodd"/><path d="M162.41,56.26V63h-.7a8.69,8.69,0,0,0-2.09-4.29,4.73,4.73,0,0,0-3.25-1.13,3.56,3.56,0,0,0-2.42.79,2.32,2.32,0,0,0-.92,1.76,3.26,3.26,0,0,0,.68,2.07,7.68,7.68,0,0,0,2.7,1.87l3.14,1.52q4.37,2.13,4.36,5.61a5.32,5.32,0,0,1-2,4.34,7,7,0,0,1-4.55,1.64,16.43,16.43,0,0,1-4.13-.62,4.27,4.27,0,0,0-1.16-.21.83.83,0,0,0-.77.53h-.71v-7h.71a8.08,8.08,0,0,0,2.3,4.55,5.54,5.54,0,0,0,3.81,1.53A3.41,3.41,0,0,0,159.8,75a2.75,2.75,0,0,0,.94-2.1,3.31,3.31,0,0,0-1.05-2.49,18.53,18.53,0,0,0-4.17-2.55,11.92,11.92,0,0,1-4.08-2.79,4.83,4.83,0,0,1-1-3.1,5.48,5.48,0,0,1,1.67-4.07,5.88,5.88,0,0,1,4.31-1.64,9.82,9.82,0,0,1,2.81.51,6.54,6.54,0,0,0,1.46.33.81.81,0,0,0,.54-.16,2,2,0,0,0,.45-.68Z" fill="#2d2b7f"/><path d="M186.61,66.83H175.3l-2,4.58a7.44,7.44,0,0,0-.73,2.54,1.47,1.47,0,0,0,.64,1.17,5.49,5.49,0,0,0,2.74.66v.79h-9.21v-.79a5,5,0,0,0,2.36-.84,13,13,0,0,0,2.44-4.2l10.27-24h.73L192.73,71A11.06,11.06,0,0,0,195,74.8a4.5,4.5,0,0,0,2.78,1v.79H186.23v-.79a4.36,4.36,0,0,0,2.36-.58A1.51,1.51,0,0,0,189.2,74a9.1,9.1,0,0,0-.86-3l-1.73-4.16ZM186,65.25,181,53.46,176,65.25Z" fill="#2d2b7f" fill-rule="evenodd"/><path d="M211.5,56.26V63h-.71a8.69,8.69,0,0,0-2.09-4.29,4.72,4.72,0,0,0-3.24-1.13,3.61,3.61,0,0,0-2.43.79,2.32,2.32,0,0,0-.92,1.76,3.26,3.26,0,0,0,.68,2.07,7.68,7.68,0,0,0,2.7,1.87l3.14,1.52Q213,67.68,213,71.16a5.3,5.3,0,0,1-2,4.34,7,7,0,0,1-4.54,1.64,16.3,16.3,0,0,1-4.13-.62,4.33,4.33,0,0,0-1.16-.21.85.85,0,0,0-.78.53h-.7v-7h.7a8.08,8.08,0,0,0,2.3,4.55,5.58,5.58,0,0,0,3.81,1.53,3.43,3.43,0,0,0,2.43-.87,2.77,2.77,0,0,0,.93-2.1,3.34,3.34,0,0,0-1-2.49,18.53,18.53,0,0,0-4.17-2.55,11.89,11.89,0,0,1-4.09-2.79,4.88,4.88,0,0,1-1-3.1,5.47,5.47,0,0,1,1.66-4.07,5.9,5.9,0,0,1,4.31-1.64,9.82,9.82,0,0,1,2.81.51,6.48,6.48,0,0,0,1.47.33.8.8,0,0,0,.53-.16,2,2,0,0,0,.45-.68Z" fill="#2d2b7f"/><path d="M227.78,56.26V63h-.7A8.78,8.78,0,0,0,225,58.67a4.73,4.73,0,0,0-3.25-1.13,3.56,3.56,0,0,0-2.42.79,2.32,2.32,0,0,0-.92,1.76,3.2,3.2,0,0,0,.68,2.07,7.68,7.68,0,0,0,2.7,1.87l3.14,1.52q4.37,2.13,4.36,5.61a5.32,5.32,0,0,1-2,4.34,7,7,0,0,1-4.55,1.64,16.43,16.43,0,0,1-4.13-.62,4.27,4.27,0,0,0-1.16-.21.83.83,0,0,0-.77.53h-.71v-7h.71a8.08,8.08,0,0,0,2.3,4.55,5.54,5.54,0,0,0,3.81,1.53,3.41,3.41,0,0,0,2.42-.87,2.75,2.75,0,0,0,.94-2.1,3.31,3.31,0,0,0-1.05-2.49,18.53,18.53,0,0,0-4.17-2.55,11.92,11.92,0,0,1-4.08-2.79,4.83,4.83,0,0,1-1-3.1,5.48,5.48,0,0,1,1.67-4.07,5.88,5.88,0,0,1,4.3-1.64,9.82,9.82,0,0,1,2.82.51,6.54,6.54,0,0,0,1.46.33.81.81,0,0,0,.54-.16,2,2,0,0,0,.45-.68Z" fill="#2d2b7f"/><path d="M234.64,64.28a10,10,0,0,0,2.13,6.85,6.5,6.5,0,0,0,5.06,2.49,5.45,5.45,0,0,0,3.36-1.06,7.67,7.67,0,0,0,2.4-3.66l.66.43a10.22,10.22,0,0,1-2.62,5.4,7,7,0,0,1-5.44,2.41,8,8,0,0,1-6.07-2.76A10.58,10.58,0,0,1,231.6,67c0-3.37.86-6,2.59-7.88a8.44,8.44,0,0,1,6.5-2.82,7.29,7.29,0,0,1,5.44,2.18,8,8,0,0,1,2.12,5.84Zm0-1.24h9.12a8.36,8.36,0,0,0-.45-2.66,4.29,4.29,0,0,0-1.6-1.89,4.06,4.06,0,0,0-2.23-.69,4.43,4.43,0,0,0-3.2,1.39A6.06,6.06,0,0,0,234.64,63Z" fill="#2d2b7f" fill-rule="evenodd"/><path d="M255.78,50.36v6.47h4.6v1.46l-4.6,0V71.12a4.34,4.34,0,0,0,.54,2.58,1.74,1.74,0,0,0,1.41.67,2.46,2.46,0,0,0,1.38-.45,2.93,2.93,0,0,0,1-1.31H261a6.84,6.84,0,0,1-2.13,3.2A4.62,4.62,0,0,1,256,76.88a3.79,3.79,0,0,1-1.94-.55,3.32,3.32,0,0,1-1.4-1.58,8.32,8.32,0,0,1-.45-3.16V58.29h-3.13V57.6A8.14,8.14,0,0,0,251.51,56a12.7,12.7,0,0,0,2.22-2.66,25.28,25.28,0,0,0,1.38-3Z" fill="#2d2b7f"/><path d="M283.35,76.57,272.07,52V71.5c0,1.8.2,2.93.59,3.37a3.24,3.24,0,0,0,2.55.91h1.05v.79H266v-.79H267a3,3,0,0,0,2.66-1.12,6.53,6.53,0,0,0,.48-3.16V52.43a6.65,6.65,0,0,0-.44-2.81,2.4,2.4,0,0,0-1.12-1,6.11,6.11,0,0,0-2.63-.42v-.79h8.37L284.89,70.2l10.44-22.84h8.29v.79h-1a3.06,3.06,0,0,0-2.68,1.12,6.56,6.56,0,0,0-.48,3.16V71.5c0,1.8.21,2.93.61,3.37a3.24,3.24,0,0,0,2.55.91h1v.79H291.1v-.79h1a3,3,0,0,0,2.66-1.12,6.53,6.53,0,0,0,.48-3.16V52L284.06,76.57Z" fill="#2d2b7f"/><path d="M316.16,73.7a33.07,33.07,0,0,1-3.81,2.73,5.78,5.78,0,0,1-2.47.54,4.44,4.44,0,0,1-3.37-1.4,5.16,5.16,0,0,1-1.32-3.69,4.66,4.66,0,0,1,.64-2.49,8.51,8.51,0,0,1,3.07-2.76,46.91,46.91,0,0,1,7.26-3.14v-.78c0-2-.31-3.3-.94-4a3.36,3.36,0,0,0-2.71-1.1,3,3,0,0,0-2.14.73,2.2,2.2,0,0,0-.82,1.68l0,1.25a2.14,2.14,0,0,1-.51,1.53,1.73,1.73,0,0,1-1.33.54,1.71,1.71,0,0,1-1.31-.56,2.25,2.25,0,0,1-.5-1.53,4.42,4.42,0,0,1,1.89-3.41,8.22,8.22,0,0,1,5.32-1.55,9.2,9.2,0,0,1,4.31.88,4,4,0,0,1,1.88,2.08,11.68,11.68,0,0,1,.39,3.78v6.68a31.85,31.85,0,0,0,.1,3.45,1.57,1.57,0,0,0,.36.85.87.87,0,0,0,.57.21,1.2,1.2,0,0,0,.61-.15,13.55,13.55,0,0,0,1.75-1.57v1.21q-2.43,3.24-4.63,3.24a2.08,2.08,0,0,1-1.68-.73,3.86,3.86,0,0,1-.65-2.49Zm0-1.39v-7.5a45,45,0,0,0-4.22,1.82,7.26,7.26,0,0,0-2.45,2,3.81,3.81,0,0,0-.73,2.26,3.69,3.69,0,0,0,.93,2.57,2.82,2.82,0,0,0,2.14,1q1.65,0,4.33-2.15Z" fill="#2d2b7f" fill-rule="evenodd"/><path d="M329.45,60.39q3.45-4.12,6.59-4.13a4.72,4.72,0,0,1,2.77.81,5.43,5.43,0,0,1,1.85,2.66,12.47,12.47,0,0,1,.47,4v8.43a7,7,0,0,0,.3,2.52,1.72,1.72,0,0,0,.76.84,4.27,4.27,0,0,0,1.93.3v.79h-9.73v-.79h.4a3.24,3.24,0,0,0,1.92-.42,2.15,2.15,0,0,0,.76-1.23,11.81,11.81,0,0,0,.09-2V64a8.27,8.27,0,0,0-.7-3.93,2.47,2.47,0,0,0-2.34-1.22c-1.7,0-3.39.93-5.07,2.81V72.12a7.22,7.22,0,0,0,.24,2.46,2,2,0,0,0,.83.91,5.23,5.23,0,0,0,2.15.29v.79h-9.78v-.79h.43a2.34,2.34,0,0,0,2-.76,5.43,5.43,0,0,0,.53-2.9V64.81a31.28,31.28,0,0,0-.16-4.32,1.9,1.9,0,0,0-.49-1.06,1.37,1.37,0,0,0-.89-.28,4.06,4.06,0,0,0-1.44.33l-.32-.8,5.94-2.42h.93v4.13Z" fill="#2d2b7f"/><path d="M356,73.7a35.05,35.05,0,0,1-3.81,2.73,5.83,5.83,0,0,1-2.48.54,4.43,4.43,0,0,1-3.36-1.4A5.16,5.16,0,0,1,345,71.88a4.66,4.66,0,0,1,.64-2.49,8.51,8.51,0,0,1,3.07-2.76A46.91,46.91,0,0,1,356,63.49v-.78c0-2-.32-3.3-.94-4a3.36,3.36,0,0,0-2.71-1.1,3,3,0,0,0-2.15.73,2.22,2.22,0,0,0-.81,1.68l0,1.25a2.14,2.14,0,0,1-.51,1.53,1.74,1.74,0,0,1-1.33.54,1.71,1.71,0,0,1-1.31-.56,2.21,2.21,0,0,1-.51-1.53,4.44,4.44,0,0,1,1.9-3.41A8.21,8.21,0,0,1,353,56.26a9.2,9.2,0,0,1,4.31.88,4.08,4.08,0,0,1,1.88,2.08,11.77,11.77,0,0,1,.38,3.78v6.68a30.7,30.7,0,0,0,.11,3.45A1.44,1.44,0,0,0,360,74a.86.86,0,0,0,.57.21,1.23,1.23,0,0,0,.61-.15,13.55,13.55,0,0,0,1.75-1.57v1.21q-2.43,3.24-4.63,3.24a2.1,2.1,0,0,1-1.69-.73A3.92,3.92,0,0,1,356,73.7Zm0-1.39v-7.5a45,45,0,0,0-4.22,1.82,7.26,7.26,0,0,0-2.45,2,3.82,3.82,0,0,0-.74,2.26,3.69,3.69,0,0,0,.93,2.57,2.84,2.84,0,0,0,2.15,1c1.09,0,2.54-.72,4.33-2.15Z" fill="#2d2b7f" fill-rule="evenodd"/><path d="M368.77,69.34a6.44,6.44,0,0,1-3.73-6,6.72,6.72,0,0,1,2.2-5,7.82,7.82,0,0,1,5.63-2.1,8.52,8.52,0,0,1,4.87,1.37h4.17a5.26,5.26,0,0,1,1.07,0,.4.4,0,0,1,.22.18,1.41,1.41,0,0,1,.12.69,2.05,2.05,0,0,1-.1.78.46.46,0,0,1-.23.17,5.15,5.15,0,0,1-1.09.06h-2.56a6.64,6.64,0,0,1-.89,8.67,8,8,0,0,1-5.65,2,10.84,10.84,0,0,1-3-.43,5.92,5.92,0,0,0-1.28,1.44,2.32,2.32,0,0,0-.33,1,1,1,0,0,0,.36.72,2.58,2.58,0,0,0,1.39.49c.4.06,1.4.12,3,.16a57,57,0,0,1,5.74.33,5.38,5.38,0,0,1,3.2,1.48,4.06,4.06,0,0,1,1.19,3A6.28,6.28,0,0,1,380.83,83a12.33,12.33,0,0,1-8.76,3.14,12.48,12.48,0,0,1-7-1.88c-1.08-.71-1.62-1.46-1.62-2.23a2.46,2.46,0,0,1,.24-1,11.87,11.87,0,0,1,1.5-2.22c.1-.13.84-.9,2.2-2.32a6.9,6.9,0,0,1-1.58-1.2,1.79,1.79,0,0,1-.46-1.2,3.56,3.56,0,0,1,.61-1.78,13.82,13.82,0,0,1,2.81-2.88Zm3.75-12a3.35,3.35,0,0,0-2.66,1.26,5.87,5.87,0,0,0-1.08,3.88,8.34,8.34,0,0,0,1.46,5.25,3.47,3.47,0,0,0,2.83,1.41,3.35,3.35,0,0,0,2.68-1.22,5.78,5.78,0,0,0,1.05-3.83,8.58,8.58,0,0,0-1.48-5.34,3.38,3.38,0,0,0-2.8-1.41Zm-3.95,19.25a10.5,10.5,0,0,0-1.52,2,3.71,3.71,0,0,0-.51,1.74,2.18,2.18,0,0,0,1.24,1.81A11.94,11.94,0,0,0,374,83.49q3.86,0,5.69-1.37a3.74,3.74,0,0,0,1.84-2.91,1.62,1.62,0,0,0-1.1-1.59,13.92,13.92,0,0,0-4.42-.56,73,73,0,0,1-7.43-.49Z" fill="#2d2b7f" fill-rule="evenodd"/><path d="M388,64.28a10.07,10.07,0,0,0,2.13,6.85,6.51,6.51,0,0,0,5.06,2.49,5.5,5.5,0,0,0,3.37-1.06,7.74,7.74,0,0,0,2.39-3.66l.67.43a10.31,10.31,0,0,1-2.63,5.4,7,7,0,0,1-5.43,2.41,7.93,7.93,0,0,1-6.07-2.76A10.53,10.53,0,0,1,384.91,67c0-3.37.86-6,2.59-7.88a8.45,8.45,0,0,1,6.5-2.82,7.29,7.29,0,0,1,5.44,2.18,8,8,0,0,1,2.13,5.84ZM388,63h9.12a8.36,8.36,0,0,0-.45-2.66,4.29,4.29,0,0,0-1.6-1.89,4,4,0,0,0-2.23-.69,4.41,4.41,0,0,0-3.19,1.39A6,6,0,0,0,388,63Z" fill="#2d2b7f" fill-rule="evenodd"/><path d="M409.22,60.47c1.43-1.44,2.27-2.27,2.52-2.48a8,8,0,0,1,2.08-1.28,5.85,5.85,0,0,1,2.2-.45,4.85,4.85,0,0,1,3.17,1.08A5.37,5.37,0,0,1,421,60.47a14.6,14.6,0,0,1,3.75-3.4,6.62,6.62,0,0,1,3.14-.81,4.91,4.91,0,0,1,2.79.81,5.37,5.37,0,0,1,1.93,2.64,11.74,11.74,0,0,1,.48,3.92v8.49a7.81,7.81,0,0,0,.27,2.52,1.78,1.78,0,0,0,.78.81,3.88,3.88,0,0,0,1.85.33v.79h-9.64v-.79h.4a3.45,3.45,0,0,0,2-.49,1.92,1.92,0,0,0,.71-1.09,13.21,13.21,0,0,0,.09-2.08V63.64a7.11,7.11,0,0,0-.59-3.4,2.92,2.92,0,0,0-2.69-1.38,5.17,5.17,0,0,0-2.3.57,12.45,12.45,0,0,0-2.79,2.12l-.05.24.09.92v9.41a8.1,8.1,0,0,0,.22,2.5,1.82,1.82,0,0,0,.84.83,4.87,4.87,0,0,0,2.11.33v.79h-9.91v-.79a4.41,4.41,0,0,0,2.22-.39,1.93,1.93,0,0,0,.84-1.15,10.51,10.51,0,0,0,.11-2.12V63.64a6.42,6.42,0,0,0-.71-3.48,3,3,0,0,0-2.63-1.39,4.68,4.68,0,0,0-2.29.63,8.85,8.85,0,0,0-2.74,2.15V72.12a7.19,7.19,0,0,0,.27,2.5,1.8,1.8,0,0,0,.78.87,5.12,5.12,0,0,0,2.12.29v.79h-9.74v-.79a4.42,4.42,0,0,0,1.9-.29,1.86,1.86,0,0,0,.82-.92,6.94,6.94,0,0,0,.28-2.45V64.59a27.3,27.3,0,0,0-.19-4.19,1.76,1.76,0,0,0-.47-1,1.34,1.34,0,0,0-.88-.27,4.06,4.06,0,0,0-1.44.33l-.32-.8,5.94-2.42h.93v4.21Z" fill="#2d2b7f"/><path d="M440,64.28a10,10,0,0,0,2.13,6.85,6.49,6.49,0,0,0,5.05,2.49,5.48,5.48,0,0,0,3.37-1.06,7.82,7.82,0,0,0,2.4-3.66l.66.43a10.22,10.22,0,0,1-2.62,5.4,7,7,0,0,1-5.44,2.41,7.94,7.94,0,0,1-6.07-2.76A10.58,10.58,0,0,1,436.94,67c0-3.37.86-6,2.59-7.88a8.44,8.44,0,0,1,6.5-2.82,7.28,7.28,0,0,1,5.43,2.18,8,8,0,0,1,2.13,5.84ZM440,63h9.12a8.65,8.65,0,0,0-.45-2.66A4.31,4.31,0,0,0,447,58.49a4,4,0,0,0-2.22-.69,4.43,4.43,0,0,0-3.2,1.39A6,6,0,0,0,440,63Z" fill="#2d2b7f" fill-rule="evenodd"/><path d="M461.11,60.39c2.31-2.75,4.5-4.13,6.59-4.13a4.72,4.72,0,0,1,2.77.81,5.43,5.43,0,0,1,1.85,2.66,12.47,12.47,0,0,1,.47,4v8.43a7,7,0,0,0,.3,2.52,1.72,1.72,0,0,0,.76.84,4.27,4.27,0,0,0,1.93.3v.79h-9.73v-.79h.41a3.22,3.22,0,0,0,1.91-.42,2.15,2.15,0,0,0,.76-1.23,11.81,11.81,0,0,0,.09-2V64a8.27,8.27,0,0,0-.7-3.93,2.47,2.47,0,0,0-2.34-1.22c-1.69,0-3.38.93-5.07,2.81V72.12a7.22,7.22,0,0,0,.24,2.46,2,2,0,0,0,.83.91,5.23,5.23,0,0,0,2.15.29v.79h-9.78v-.79H455a2.37,2.37,0,0,0,2-.76,5.55,5.55,0,0,0,.52-2.9V64.81a31.28,31.28,0,0,0-.16-4.32,1.84,1.84,0,0,0-.49-1.06,1.37,1.37,0,0,0-.89-.28,4.06,4.06,0,0,0-1.44.33l-.32-.8,5.95-2.42h.92v4.13Z" fill="#2d2b7f"/><path d="M482.26,50.36v6.47h4.61v1.46l-4.61,0V71.12a4.26,4.26,0,0,0,.55,2.58,1.73,1.73,0,0,0,1.41.67,2.41,2.41,0,0,0,1.37-.45,2.8,2.8,0,0,0,1-1.31h.84a6.84,6.84,0,0,1-2.13,3.2,4.62,4.62,0,0,1-2.85,1.07,3.75,3.75,0,0,1-1.93-.55,3.27,3.27,0,0,1-1.4-1.58,8.09,8.09,0,0,1-.46-3.16V58.29h-3.13V57.6A7.9,7.9,0,0,0,478,56a12.4,12.4,0,0,0,2.22-2.66,24.89,24.89,0,0,0,1.39-3Z" fill="#2d2b7f"/></g></svg>