<svg id="Layer_1" data-name="Layer 1" xmlns="http://www.w3.org/2000/svg" viewBox="0 0 300 200"><title>Guest</title><path d="M228.6,152.72V46.91H186.28V152.72h-6.05V68.07H166.37L144,90.49v62.23h-6V114.81L119.77,99.26l-18.14,15.55v37.91h-6V133.27L83.49,126,71.4,133.27v19.45H59.3v6.05H82.73a84.8,84.8,0,0,0,14.88,15.11h20.88a112.49,112.49,0,0,1-8.57-15.11h6.72a106.53,106.53,0,0,0,9.23,15.11h48.26a106.53,106.53,0,0,0,9.23-15.11h6.72a112.49,112.49,0,0,1-8.57,15.11h20.88a84.8,84.8,0,0,0,14.88-15.11H240.7v-6.05Zm-142.09,0h-6V140.63h6Zm27.21-18.14h-6V119.47h6Zm9.07,18.14h-6V140.63h6Zm9.07-18.14h-6.05V119.47h6.05Zm24.19,0H150V119.47h6.05Zm0-21.16H150V98.3h6.05Zm9.07,39.3h-6.05V140.63h6.05Zm9.07-18.14h-6.05V119.47h6.05Zm0-21.16h-6.05V98.3h6.05Zm0-21.16h-6.05V77.14h6.05Zm24.18,42.32h-6.05V119.47h6.05Zm0-21.16h-6.05V98.3h6.05Zm0-21.16h-6.05V77.14h6.05Zm0-21.16h-6.05V56h6.05Zm12.09,81.62h-6V140.63h6Zm0-18.14h-6V119.47h6Zm0-21.16h-6V98.3h6Zm0-21.16h-6V77.14h6Zm0-21.16h-6V56h6Zm12.1,63.48h-6.05V119.47h6.05Zm0-21.16h-6.05V98.3h6.05Zm0-21.16h-6.05V77.14h6.05Zm0-21.16h-6.05V56h6.05Z" fill="#000"/><path d="M222.56,34.82h-12.1V22.72h-6v12.1h-12.1v6h30.24Z" fill="#000"/><path d="M168.22,190.05a84.44,84.44,0,0,0,25.42-10.12h-16.5A107.21,107.21,0,0,1,168.22,190.05Z" fill="#000"/><path d="M130.65,179.93a99.3,99.3,0,0,0,11.88,11.77q3.71.31,7.47.32t7.47-.32a99.3,99.3,0,0,0,11.88-11.77Z" fill="#000"/><path d="M106.36,179.93a84.44,84.44,0,0,0,25.42,10.12,107.21,107.21,0,0,1-8.92-10.12Z" fill="#000"/><path d="M109.61,65.75,125.54,79l34.33-37.19a3,3,0,0,1,3.9-.47l4.88,3.26,2.08-20.73L151,29.82l3.72,2.48a3,3,0,0,1,.84,4.19,2.33,2.33,0,0,1-.27.35L128.06,67.07a3,3,0,0,1-4.18.3L107.79,54,65.35,93.57v9.87l40.26-37.58a3,3,0,0,1,4-.11Z" fill="#000"/></svg>