<svg id="Layer_1" data-name="Layer 1" xmlns="http://www.w3.org/2000/svg" viewBox="0 0 300 200"><title>Guest</title><path d="M123.71,23.75a27.16,27.16,0,1,0,27.16,27.16A27.16,27.16,0,0,0,123.71,23.75Z" fill="#000"/><path d="M190.72,111a38.1,38.1,0,1,0,38.09,38.1A38.1,38.1,0,0,0,190.72,111Z" fill="#000"/><path d="M215.23,150.81a.72.72,0,0,1-.72-.72V145.6a.72.72,0,0,1,1.44,0v4.49A.72.72,0,0,1,215.23,150.81Z" fill="#fff"/><path d="M215.23,167.41h-49a.72.72,0,0,1-.72-.72V136.11a.72.72,0,0,1,.72-.72H170a.72.72,0,1,1,0,1.44h-3V166h47.59V161.8a.72.72,0,1,1,1.44,0v4.89A.72.72,0,0,1,215.23,167.41Z" fill="#fff"/><path d="M215.23,158.92a.72.72,0,0,1-.72-.72v-4.5a.72.72,0,1,1,1.44,0v4.5A.72.72,0,0,1,215.23,158.92Z" fill="#fff"/><path d="M215.23,142.72a.72.72,0,0,1-.72-.72v-5.17h-3a.72.72,0,0,1,0-1.44h3.76a.72.72,0,0,1,.72.72V142A.72.72,0,0,1,215.23,142.72Z" fill="#fff"/><path d="M211.48,163.47H170a.72.72,0,0,1-.72-.72V132.64a.72.72,0,0,1,.72-.72h3.81a.72.72,0,1,1,0,1.44h-3.09V162h40.09V133.36h-3.1a.72.72,0,0,1,0-1.44h3.82a.72.72,0,0,1,.72.72v30.11A.72.72,0,0,1,211.48,163.47Z" fill="#fff"/><path d="M190.71,163.48a.72.72,0,0,1-.72-.72V136.1a.74.74,0,0,1,.2-.5c4.27-4.45,9.83-6.42,17.49-6.18a.72.72,0,0,1,.7.72v28.43a.72.72,0,1,1-1.44,0V130.84c-6.75-.08-11.69,1.69-15.51,5.56v26.36a.72.72,0,0,1-.72.72Z" fill="#fff"/><path d="M190.71,163.48a.72.72,0,0,1-.72-.72V136.4c-3.81-3.87-8.77-5.66-15.51-5.56v27.73a.72.72,0,0,1-1.44,0V130.14a.72.72,0,0,1,.7-.72c7.66-.24,13.22,1.73,17.49,6.18a.74.74,0,0,1,.2.5v26.66a.72.72,0,0,1-.72.72Z" fill="#fff"/><path d="M190.71,163.48a.71.71,0,0,1-.72-.71.72.72,0,0,1,.4-.66c5.56-2.71,16.71-4.19,17.18-4.26a.72.72,0,0,1,.19,1.43c-.12,0-11.39,1.52-16.73,4.13a.71.71,0,0,1-.32.07Z" fill="#fff"/><path d="M190.71,163.48a.67.67,0,0,1-.31-.07c-5.35-2.61-16.62-4.11-16.73-4.12a.72.72,0,1,1,.18-1.43h0c.47.06,11.62,1.54,17.17,4.26a.72.72,0,0,1,.34,1,.73.73,0,0,1-.65.41Z" fill="#fff"/><path d="M194.31,141.25a.72.72,0,0,1-.38-1.33,20.23,20.23,0,0,1,10.21-3.14.72.72,0,1,1,0,1.44,18.92,18.92,0,0,0-9.49,2.92.7.7,0,0,1-.38.11Z" fill="#fff"/><path d="M194.31,146.24a.72.72,0,0,1-.38-1.33,20.33,20.33,0,0,1,10.21-3.14.7.7,0,0,1,.74.66v0a.72.72,0,0,1-.7.74,18.83,18.83,0,0,0-9.49,2.93.7.7,0,0,1-.38.1Z" fill="#fff"/><path d="M194.31,151.24a.72.72,0,0,1-.72-.72.75.75,0,0,1,.34-.62,20.33,20.33,0,0,1,10.21-3.14.72.72,0,0,1,.74.7.73.73,0,0,1-.7.75,18.72,18.72,0,0,0-9.49,2.92.7.7,0,0,1-.38.11Z" fill="#fff"/><path d="M194.31,156.23a.72.72,0,0,1-.72-.72.68.68,0,0,1,.34-.61,20.24,20.24,0,0,1,10.21-3.15.73.73,0,0,1,0,1.45,18.92,18.92,0,0,0-9.49,2.92.7.7,0,0,1-.38.11Z" fill="#fff"/><path d="M187.11,141.25a.76.76,0,0,1-.38-.11,18.89,18.89,0,0,0-9.49-2.92.72.72,0,1,1,0-1.44,20.23,20.23,0,0,1,10.21,3.14.72.72,0,0,1,.23,1,.73.73,0,0,1-.62.34Z" fill="#fff"/><path d="M187.11,146.24a.67.67,0,0,1-.38-.11,18.89,18.89,0,0,0-9.49-2.92.72.72,0,0,1-.7-.74.72.72,0,0,1,.73-.7h0a20.23,20.23,0,0,1,10.21,3.14.73.73,0,0,1,.23,1A.71.71,0,0,1,187.11,146.24Z" fill="#fff"/><path d="M187.11,151.24a.76.76,0,0,1-.38-.11,18.69,18.69,0,0,0-9.49-2.92.73.73,0,0,1,0-1.45,20.33,20.33,0,0,1,10.21,3.14.73.73,0,0,1-.39,1.34Z" fill="#fff"/><path d="M187.11,156.23a.76.76,0,0,1-.38-.11,18.89,18.89,0,0,0-9.49-2.92.72.72,0,1,1,0-1.44,20.14,20.14,0,0,1,10.21,3.14.72.72,0,0,1,.23,1,.73.73,0,0,1-.62.34Z" fill="#fff"/><path d="M133.66,113c.73-1.31,1.34-2.36,1.92-3.43a174,174,0,0,1,11.27-18.65c1.64-2.3,3.55-4.13,6.49-4.66A18,18,0,0,1,173,95.4a29.87,29.87,0,0,1,3.15,9c.27,1.35,0,1.81-1.61,2.58a50.9,50.9,0,0,0-12.43,8.64c-7.33,6.83-12.7,14.9-14.78,24.78-2.24,10.64-1.7,21.16,2.78,31.26.45,1,.88,2,1.38,3.19-.56.06-1,.15-1.51.16-4.89.08-9.78.19-14.67.19q-19.23,0-38.46,0a35,35,0,0,1-11.54-1.67c-6.72-2.33-11-6.93-12.64-13.87a38.71,38.71,0,0,1-1.23-8.19q-.28-20.56-.23-41.14A28.82,28.82,0,0,1,75.27,94.8c2.94-4.72,7-7.94,12.62-8.81a16.6,16.6,0,0,1,8.78,1,7.78,7.78,0,0,1,3.48,2.85c1.79,2.53,3.64,5,5.21,7.69,2.72,4.58,5.23,9.29,7.85,13.93a9,9,0,0,0,1.07,1.25l.93-1.35c.08-.12.11-.29.2-.4,1.31-1.66,1-3.1-.28-4.71a53.94,53.94,0,0,1-3.22-5.13,2.41,2.41,0,0,1,.42-3.31q4.67-4.5,9.36-9a3.43,3.43,0,0,1,.43-.32c1.47-1,2.06-1.14,3.43,0,2.47,2.09,4.86,4.3,7.25,6.49,1,.93,1.93,2,2.88,2.94a2.13,2.13,0,0,1,.35,2.84c-1.43,2.35-2.82,4.7-4.3,7a1.34,1.34,0,0,0,0,1.66C132.35,110.54,132.93,111.65,133.66,113Z" fill="#000"/></svg>