<svg id="Layer_1" data-name="Layer 1" xmlns="http://www.w3.org/2000/svg" viewBox="0 0 300 279.99"><title>Guest</title><g id="Page-1"><g id="_033---Pension-Data" data-name="033---Pension-Data"><path id="Shape" d="M83.85,67.61h3v-3a3,3,0,0,1,6,0v3h6v-3a3,3,0,0,1,6,0v3h6v-3a3,3,0,0,1,6,0v3h6v-3a3,3,0,0,1,6,0v3h6v-3a3,3,0,0,1,6,0v3h6v-3a3,3,0,0,1,6,0v3h3a3,3,0,0,0,3-3v-6a6,6,0,0,0-6-6H86.84a6,6,0,0,0-6,6v6A3,3,0,0,0,83.85,67.61Z" fill="#000"/><path id="Shape-2" data-name="Shape" d="M89.82,202h47.79v-6H89.82Z" fill="#000"/><path id="Shape-3" data-name="Shape" d="M104.76,190.06h47.78v-6H104.76Z" fill="#000"/><path id="Shape-4" data-name="Shape" d="M95.8,172.14v6h47.78v-6Z" fill="#000"/><path id="Shape-5" data-name="Shape" d="M149.55,208H101.77v6h47.79Z" fill="#000"/><path id="Shape-6" data-name="Shape" d="M146.57,139.29a26.88,26.88,0,1,0-26.88,26.88A26.88,26.88,0,0,0,146.57,139.29Zm-32.85-9a6,6,0,0,0,6,6,11.92,11.92,0,0,1,3,23.47v.43a3,3,0,0,1-6,0v-.43a11.94,11.94,0,0,1-9-11.52,3,3,0,1,1,6,0,5.94,5.94,0,0,0,3,5.14v-2.15a3,3,0,1,1,6,0v2.15a6,6,0,0,0-3-11.11,11.92,11.92,0,0,1-3-23.47v-.43a3,3,0,0,1,6,0v.43a11.94,11.94,0,0,1,9,11.52,3,3,0,1,1-6,0,6,6,0,0,0-3-5.14v2.15a3,3,0,1,1-6,0v-2.15a5.94,5.94,0,0,0-3,5.14Z" fill="#000"/><path id="Shape-7" data-name="Shape" d="M242.14,225.9v-9H230.19v9H218.24v-9H206.3v9h-12v-9H182.41v9H168.14a8.85,8.85,0,0,0,2.32-6H89.82a3,3,0,0,1,0-6h6v-6h-6a6,6,0,0,1-6-6v-6a6,6,0,0,1,6-6h9v-6h-3a6,6,0,0,1-6-6v-6a6,6,0,0,1,6-6h5.07a32.86,32.86,0,1,1,37.66,0h5.05a6,6,0,0,1,6,6v6h3a6,6,0,0,1,6,6v6a6,6,0,0,1-6,6h-9v6h6a6,6,0,0,1,6,6v6h14.93V109.42A24,24,0,0,0,154.84,87a12.21,12.21,0,0,1-8.27-11.34V73.58H92.81v2.07A12.21,12.21,0,0,1,84.54,87a24,24,0,0,0-15.62,22.43V214h9a3,3,0,0,1,0,6h-9a8.89,8.89,0,0,0,2.31,6H68.92a3,3,0,1,0,0,6H242.14a3,3,0,0,0,0-6ZM119.69,82.54h17.92a3,3,0,0,1,0,6H119.69a3,3,0,0,1,0-6Zm-17.92,0h6a3,3,0,1,1,0,6h-6a3,3,0,0,1,0-6Z" fill="#000"/><path id="Shape-8" data-name="Shape" d="M194.35,184.09a3,3,0,0,0-3-3h-6a3,3,0,0,0-3,3v6h11.94Z" fill="#000"/><path id="Rectangle-path" d="M182.41,196h11.94V211H182.41Z" fill="#000"/><path id="Rectangle-path-2" data-name="Rectangle-path" d="M230.19,196h11.95V211H230.19Z" fill="#000"/><path id="Rectangle-path-3" data-name="Rectangle-path" d="M230.19,175.13h11.95v14.93H230.19Z" fill="#000"/><path id="Shape-9" data-name="Shape" d="M242.14,160.2a3,3,0,0,0-3-3h-6a3,3,0,0,0-3,3v9h11.95Z" fill="#000"/><path id="Rectangle-path-4" data-name="Rectangle-path" d="M206.3,154.22h11.94v14.93H206.3Z" fill="#000"/><path id="Rectangle-path-5" data-name="Rectangle-path" d="M206.3,196h11.94V211H206.3Z" fill="#000"/><path id="Rectangle-path-6" data-name="Rectangle-path" d="M206.3,175.13h11.94v14.93H206.3Z" fill="#000"/><path id="Shape-10" data-name="Shape" d="M197.14,133.32h7.67a1.49,1.49,0,0,1,1.49,1.49v13.44h11.94V134.81a1.49,1.49,0,0,1,1.5-1.49h7.66a1.51,1.51,0,0,0,1.32-.79,1.48,1.48,0,0,0-.08-1.53l-15.13-22.7a1.48,1.48,0,0,0-2.48,0L195.9,131a1.48,1.48,0,0,0-.07,1.53A1.5,1.5,0,0,0,197.14,133.32Z" fill="#000"/></g></g></svg>