<svg id="Layer_1" data-name="Layer 1" xmlns="http://www.w3.org/2000/svg" viewBox="0 0 300 200"><title>Guest</title><polygon points="130.22 100.14 195.84 62.26 164.97 44.44 99.36 82.32 130.22 100.14" fill="#000"/><polygon points="127.7 104.72 61.95 66.83 61.95 142.62 127.7 180.5 127.7 104.72" fill="#000"/><rect x="185.9" y="143.52" width="7.18" height="7.18" fill="#000"/><path d="M133,104.72V180.5l35.9-20.76V105a11.36,11.36,0,0,1,11.3-11.41h9.41a9.29,9.29,0,0,1,8.85-6.8h-.08v-20Z" fill="#000"/><rect x="194.59" y="92.12" width="23.05" height="7.94" rx="3.84" fill="#000"/><polygon points="159.69 41.38 130.22 24.37 64.6 62.26 94.07 79.27 159.69 41.38" fill="#000"/><path d="M232,98.92h-9.51a9.05,9.05,0,0,1-8.75,6.43H198.45a9,9,0,0,1-8.74-6.43h-9.52a6.05,6.05,0,0,0-6,6.11h0v76.37a5.9,5.9,0,0,0,5.87,5.94H232a6,6,0,0,0,6.08-5.86V105A6.13,6.13,0,0,0,232,98.92ZM180.61,116.7a2.64,2.64,0,0,1,2.62-2.66H195.7a2.67,2.67,0,0,1,2.67,2.66v1.78a2.66,2.66,0,0,1-2.66,2.64,2.56,2.56,0,0,1-2.51-1.79h-7.3v7.18h.1a2.65,2.65,0,1,1,0,5.29h-2.76a2.63,2.63,0,0,1-2.63-2.63h0Zm0,24.17a2.64,2.64,0,0,1,2.64-2.64h12.48a2.64,2.64,0,0,1,2.64,2.64v12.47a2.65,2.65,0,0,1-2.64,2.65H183.25a2.65,2.65,0,0,1-2.64-2.65Zm5.39,39.3h-2.76a2.56,2.56,0,0,1-2.63-2.47V165.16a2.72,2.72,0,0,1,2.63-2.75H195.7a2.76,2.76,0,0,1,2.67,2.75v2.55a2.66,2.66,0,0,1-5.32,0H185.9v7.18h.1a2.65,2.65,0,1,1,0,5.29Zm19.53-10.3-9.62,9.62a2.65,2.65,0,0,1-3.74,0h0l-4.23-4.23a2.64,2.64,0,1,1,3.74-3.74l2.36,2.36,7.75-7.75a2.64,2.64,0,0,1,3.74,3.74Zm0-48.84-9.62,9.62a2.65,2.65,0,0,1-3.74,0h0l-4.23-4.23a2.64,2.64,0,0,1,3.74-3.74L194,125l7.75-7.74a2.64,2.64,0,1,1,3.74,3.74Zm23.4,53.1H212.31a2.65,2.65,0,0,1,0-5.3h16.62a2.65,2.65,0,0,1,0,5.3Zm0-24.19H212.31a2.65,2.65,0,0,1,0-5.29h16.62a2.65,2.65,0,0,1,0,5.29Zm0-24.19H212.31a2.65,2.65,0,0,1,0-5.29h16.62a2.65,2.65,0,0,1,0,5.29Z" fill="#000"/></svg>