<?xml version="1.0" encoding="UTF-8"?>
<svg width="35px" height="35px" viewBox="0 0 35 35" version="1.1" xmlns="http://www.w3.org/2000/svg" xmlns:xlink="http://www.w3.org/1999/xlink">
    <title>D07537C8-EEA4-4087-8BC6-52ED9E68570F</title>
    <g id="Design" stroke="none" stroke-width="1" fill="#000">
        <g id="H01-Home-Empty" transform="translate(-119.000000, -850.000000)">
            <g id="Menu-Home" transform="translate(0.000000, 803.000000)">
                <g id="bell-ring" transform="translate(119.000000, 48.000000)">
                    <path d="M12.3911099,3 C6.9818425,3 2.59676484,7.38201301 2.59676484,12.7875 L2.59676484,20.42175 L0.428949794,23.68425 C-0.100286272,24.4996718 -0.142785524,25.5384993 0.318076637,26.3943702 C0.778938798,27.2502412 1.66991238,27.7871224 2.64247178,27.795 L22.1397481,27.795 C23.1188061,27.7917632 24.0171958,27.2521361 24.479417,26.3896538 C24.9416382,25.5271714 24.8932001,24.4808298 24.3532701,23.664675 L22.185455,20.42175 L22.185455,12.7875 C22.185455,7.38201301 17.8003774,3 12.3911099,3 L12.3911099,3 Z" id="Path" fill="#000" ></path> 
                     <path d="M12.285,33.1534615 C15.1174153,33.1506484 17.6408628,31.5977577 18.585,29.2765385 L5.985,29.2765385 C6.92913721,31.5977577 9.45258468,33.1506484 12.285,33.1534615 Z" id="Path" fill="#000"></path>
                </g>
            </g>
        </g>
    </g>
</svg>