<?xml version="1.0" encoding="UTF-8"?>
<svg width="31px" height="31px" viewBox="0 0 31 31" version="1.1" xmlns="http://www.w3.org/2000/svg" xmlns:xlink="http://www.w3.org/1999/xlink">
    <title>82A08B3D-B084-4752-B6A4-6B475BDD71BE</title>
    <g id="Design" stroke="none" stroke-width="1" fill="#000" >
        <g id="H01-Home-Empty" transform="translate(-42.000000, -854.000000)" fill="#000">
            <g id="Menu-Home" transform="translate(0.000000, 803.000000)">
                <g id="home" transform="translate(42.000000, 51.000000)">
                    <path d="M30.5145128,15.7183674 C30.3468432,16.1263837 29.9502007,16.3935968 29.5089559,16.3957986 L26.2299661,16.3957986 L26.2299661,27.3221074 C26.2299661,29.1324375 24.7619123,30.6 22.9509763,30.6 L18.5789898,30.6 C17.9753445,30.6 17.4859932,30.1108125 17.4859932,29.5073691 L17.4859932,22.9515839 C17.4859932,22.3481405 16.996642,21.858953 16.3929966,21.858953 L14.2070034,21.858953 C13.603358,21.858953 13.1140068,22.3481405 13.1140068,22.9515839 L13.1140068,29.5073691 C13.1140068,30.1108125 12.6246555,30.6 12.0210102,30.6 L7.64902374,30.6 C5.83808766,30.6 4.37003391,29.1324375 4.37003391,27.3221074 L4.37003391,16.3957986 L1.09104409,16.3957986 C0.649799295,16.3935968 0.25315682,16.1263837 0.085487207,15.7183674 C-0.0856724879,15.3114749 0.00488465071,14.8415975 0.315016495,14.5273998 L14.5239724,0.323198383 C14.7292007,0.116349535 15.0085661,0 15.3,0 C15.5914339,0 15.8707993,0.116349535 16.0760276,0.323198383 L30.2849835,14.5273998 C30.5951153,14.8415975 30.6856725,15.3114749 30.5145128,15.7183674 L30.5145128,15.7183674 Z" id="Path"></path>
                </g>
            </g>
        </g>
    </g>
</svg>