<?xml version="1.0" encoding="UTF-8"?>
<svg width="27px" height="27px" viewBox="0 0 27 27" version="1.1" xmlns="http://www.w3.org/2000/svg" xmlns:xlink="http://www.w3.org/1999/xlink">
    <title>743CABF6-18F4-4415-A22A-7405BD086C86</title>
    <g id="Design" stroke="none" stroke-width="1" fill="#000" >
        <g id="H01-Home-Empty" transform="translate(-278.000000, -856.000000)" fill="#000" >
            <g id="Menu-Home" transform="translate(0.000000, 803.000000)">
                <g id="networking" transform="translate(278.000000, 53.000000)">
                    <path d="M24.9978573,0 L1.96614269,0 C0.881956346,0 2.99360536e-15,0.881956346 2.99360536e-15,1.96614269 L2.99360536e-15,4.77491039 C2.99360536e-15,5.85904365 0.881956346,6.741 1.96614269,6.741 L24.9979104,6.741 C26.0820437,6.741 26.964,5.85904365 26.964,4.77485731 L26.964,1.96614269 C26.964,0.881956346 26.0820437,0 24.9978573,0 Z" id="Path"></path>
                    <path d="M16.009875,8.98798231 L1.96614269,8.98798231 C0.887582693,8.98798231 -1.49680268e-15,9.875565 -1.49680268e-15,10.954125 L-1.49680268e-15,24.9978573 C-1.49680268e-15,26.0764173 0.887582693,26.964 1.96614269,26.964 L16.009875,26.964 C17.088435,26.964 17.9760177,26.0764173 17.9760177,24.9978573 L17.9760177,10.954125 C17.9760177,9.875565 17.088435,8.98798231 16.009875,8.98798231 Z M8.98798231,13.482 C9.92046961,13.482 10.6732323,14.2347627 10.6732323,15.16725 C10.6732323,16.0997373 9.92046961,16.8525 8.98798231,16.8525 C8.055495,16.8525 7.30273231,16.0997373 7.30273231,15.16725 C7.30273231,14.2347627 8.055495,13.482 8.98798231,13.482 Z M12.3584823,20.5038927 C12.3584823,20.96451 11.9764746,21.3465177 11.5158573,21.3465177 L6.46010731,21.3465177 C5.99949,21.3465177 5.61748231,20.96451 5.61748231,20.5038927 L5.61748231,20.08818 C5.61748231,18.9197577 6.67359,17.9760177 7.97683231,17.9760177 L9.99913231,17.9760177 C11.3023746,17.9760177 12.3584823,18.9197577 12.3584823,20.08818 L12.3584823,20.5038927 Z" id="Shape"></path>
                    <circle id="Oval" cx="23.5935" cy="23.0317677" r="3.3705"></circle>
                    <path d="M26.121375,12.3584823 L21.065625,12.3584823 C20.600496,12.3584823 20.223,12.7359783 20.223,13.2011073 C20.223,13.6662363 20.600496,14.0437323 21.065625,14.0437323 L26.121375,14.0437323 C26.586504,14.0437323 26.964,13.6662363 26.964,13.2011073 C26.964,12.7359783 26.586504,12.3584823 26.121375,12.3584823 L26.121375,12.3584823 Z" id="Path"></path>
                    <path d="M26.121375,8.98798231 L21.065625,8.98798231 C20.600496,8.98798231 20.223,9.36547831 20.223,9.83060731 C20.223,10.2957363 20.600496,10.6732323 21.065625,10.6732323 L26.121375,10.6732323 C26.586504,10.6732323 26.964,10.2957363 26.964,9.83060731 C26.964,9.36547831 26.586504,8.98798231 26.121375,8.98798231 Z" id="Path"></path>
                    <path d="M26.121375,15.7289823 L21.065625,15.7289823 C20.600496,15.7289823 20.223,16.1064783 20.223,16.5716073 C20.223,17.0367363 20.600496,17.4142323 21.065625,17.4142323 L26.121375,17.4142323 C26.586504,17.4142323 26.964,17.0367363 26.964,16.5716073 C26.964,16.1064783 26.586504,15.7289823 26.121375,15.7289823 Z" id="Path"></path>
                </g>
            </g>
        </g>
    </g>
</svg>