<?xml version="1.0" encoding="UTF-8"?>
<svg width="27px" height="27px" viewBox="0 0 27 27" version="1.1" xmlns="http://www.w3.org/2000/svg" xmlns:xlink="http://www.w3.org/1999/xlink">
    <title>37C1B040-B251-4C1B-B6E9-30B983355255</title>
    <g id="Design" stroke="none" stroke-width="1" fill="#000">
        <g id="H01-Home-Empty" transform="translate(-194.000000, -856.000000)" fill="#000">
            <g id="Menu-Home" transform="translate(0.000000, 803.000000)">
                <g id="Group-5" transform="translate(194.000000, 53.000000)">
                    <path d="M24.9206871,2.05040789 C22.1474798,-0.683469297 17.6365808,-0.683469297 14.8633735,2.05040789 L9,7.83381144 L15.6569825,14.4 C17.0271009,13.2746037 18.7641607,12.5699517 20.6821895,12.5699517 C21.7823291,12.5699517 22.8292209,12.7953634 23.7817834,13.1978733 L24.9206871,11.9706027 C27.6931043,9.23594626 27.6931043,4.78584358 24.9206871,2.05040789 Z" id="Path"></path>
                    <path d="M14.4,15.7008803 L7.77250927,9 L2.06722259,14.7741746 C-0.689074197,17.5610153 -0.689074197,22.0961764 2.06722259,24.8838113 C4.82425245,27.6697519 9.36128484,27.7229062 12.1184194,24.9367008 L13.2749969,23.7616948 C12.8692942,22.8041766 12.6420943,21.7518384 12.6420943,20.6459753 C12.6421467,18.7674692 13.3176198,17.062244 14.4,15.7008803 Z" id="Path"></path>
                    <path d="M14.4,20.7000266 C14.4,23.9505968 16.7598743,26.6034606 19.8,27 L19.8,14.4 C16.7598743,14.7965394 14.4,17.4492969 14.4,20.7000266 Z" id="Path"></path>
                    <path d="M21.6,14.4 L21.6,27 C24.6401257,26.6034606 27,23.9505968 27,20.6999734 C27,17.44935 24.6401771,14.7965394 21.6,14.4 Z" id="Path"></path>
                </g>
            </g>
        </g>
    </g>
</svg>