<?xml version="1.0" encoding="UTF-8"?>
<svg width="31px" height="31px" viewBox="0 0 31 31" version="1.1" xmlns="http://www.w3.org/2000/svg" xmlns:xlink="http://www.w3.org/1999/xlink">
    <title>37E63FB1-80A6-4A8D-9575-F03E53E608EA</title>
    <g id="Design" stroke="none" stroke-width="1" fill="#000">
        <g id="H01-Home-Empty" transform="translate(-359.000000, -854.000000)" fill="#000">
            <g id="Menu-Home" transform="translate(0.000000, 803.000000)">
                <path d="M374.36,51 C365.8763,51 359,57.877425 359,66.36 C359,74.842575 365.8763,81.72 374.36,81.72 C382.842575,81.72 389.72,74.842575 389.72,66.36 C389.72,57.877425 382.842575,51 374.36,51 Z M366.68,68.920125 C365.264975,68.920125 364.119875,67.7739 364.119875,66.36 C364.119875,64.9473 365.264975,63.799875 366.68,63.799875 C368.0939,63.799875 369.240125,64.9473 369.240125,66.36 C369.240125,67.7739 368.0939,68.920125 366.68,68.920125 Z M374.36,68.920125 C372.944975,68.920125 371.799875,67.7739 371.799875,66.36 C371.799875,64.9473 372.944975,63.799875 374.36,63.799875 C375.7739,63.799875 376.920125,64.9473 376.920125,66.36 C376.920125,67.7739 375.7739,68.920125 374.36,68.920125 Z M382.04,68.920125 C380.624975,68.920125 379.479875,67.7739 379.479875,66.36 C379.479875,64.9473 380.624975,63.799875 382.04,63.799875 C383.4539,63.799875 384.600125,64.9473 384.600125,66.36 C384.600125,67.7739 383.4539,68.920125 382.04,68.920125 Z" id="Shape"></path>
            </g>
        </g>
    </g>
</svg>